<svg width="301" height="129" viewBox="0 0 301 129" fill="none" xmlns="http://www.w3.org/2000/svg">
<g clip-path="url(#clip0_1005_217)">
<rect x="4" y="4" width="293" height="121" stroke="#FF9312" stroke-width="8"/>
<path fill-rule="evenodd" clip-rule="evenodd" d="M103.678 64.4412L92.4522 49.146C92.1465 48.7338 91.6747 48.4883 91.1593 48.4883H80.2739L82.72 35.9207C82.8074 35.4471 82.6851 34.9559 82.3881 34.5876C82.0823 34.2193 81.628 34 81.1475 34H38.6542C37.8854 34 37.2302 34.5437 37.0817 35.298L35.9198 41.2441H28.6075C27.7251 41.2441 27 41.9633 27 42.8578C27 43.7524 27.7164 44.4715 28.6075 44.4715H48.6573C50.8675 44.4715 52.6672 46.2694 52.6672 48.497C52.6672 50.7247 50.8675 52.5225 48.6573 52.5225H28.6075C27.7251 52.5225 27 53.2417 27 54.1362C27 55.0308 27.7164 55.75 28.6075 55.75H41.4411C43.6514 55.75 45.451 57.5478 45.451 59.7754C45.451 62.0031 43.6601 63.8009 41.4411 63.8009H28.6075C27.7251 63.8009 27 64.5201 27 65.4146C27 66.3092 27.7164 67.0284 28.6075 67.0284H35.8237C38.0339 67.0284 39.8336 68.8262 39.8336 71.0538C39.8336 73.2815 38.0427 75.0793 35.8237 75.0793H29.3239L27.0349 86.8401C26.9388 87.3137 27.0699 87.8048 27.3669 88.1732C27.6727 88.5415 28.127 88.7608 28.6075 88.7608H35.9896C36.4265 91.0235 37.7194 93.023 39.7375 94.1895C43.6077 96.4346 48.8407 94.8297 51.3568 90.4622C51.68 89.9096 51.9334 89.3396 52.1343 88.7608H76.0892C76.526 91.0235 77.819 93.023 79.8371 94.1895C83.7072 96.4346 88.9403 94.8297 91.4563 90.4622C91.7796 89.9096 92.0329 89.3396 92.2338 88.7608H98.3842C99.153 88.7608 99.8169 88.2082 99.9655 87.4452L103.975 65.7128C104.054 65.2743 103.949 64.827 103.687 64.4675L103.678 64.4412ZM48.5786 88.8222C46.9974 91.5672 43.7737 92.7775 41.3362 91.3743C38.8988 89.9623 38.3397 86.5682 39.921 83.8232C41.5022 81.0781 44.7259 79.8678 47.1633 81.2711C49.6008 82.6831 50.1599 86.0771 48.5786 88.8222ZM68.3663 73.0885L61.4821 69.4489L54.6067 73.0885L55.9171 65.3796L50.3521 59.9158L58.04 58.7932L61.4734 51.7771L64.9155 58.7932L72.6034 59.9245L67.0384 65.3796L68.3576 73.0885H68.3663ZM88.6782 88.8222C87.0969 91.5672 83.8732 92.7775 81.4358 91.3743C78.9984 89.9623 78.4393 86.5682 80.0205 83.8232C81.6018 81.0781 84.8255 79.8678 87.2629 81.2711C89.7003 82.6831 90.2594 86.0771 88.6782 88.8222ZM77.3035 63.7834L79.6536 51.7069H90.3555L99.2141 63.7834H77.3035Z" fill="#FF9312"/>
<path d="M145.159 59.48C142.567 59.48 140.599 58.76 139.255 57.32C137.943 55.88 137.287 53.816 137.287 51.128V48.392H142.279V51.368C142.279 53.576 143.191 54.68 145.015 54.68C145.911 54.68 146.583 54.408 147.031 53.864C147.511 53.288 147.751 52.296 147.751 50.888V48.152C147.751 46.616 147.479 45.528 146.935 44.888C146.391 44.216 145.511 43.88 144.295 43.88H142.519V39.08H144.439C145.495 39.08 146.279 38.808 146.791 38.264C147.335 37.72 147.607 36.808 147.607 35.528V33.08C147.607 31.928 147.367 31.08 146.887 30.536C146.407 29.992 145.767 29.72 144.967 29.72C143.271 29.72 142.423 30.76 142.423 32.84V35.048H137.431V33.272C137.431 30.584 138.087 28.52 139.399 27.08C140.743 25.64 142.663 24.92 145.159 24.92C147.687 24.92 149.607 25.64 150.919 27.08C152.231 28.488 152.887 30.536 152.887 33.224V34.424C152.887 36.248 152.583 37.72 151.975 38.84C151.367 39.928 150.423 40.712 149.143 41.192V41.288C150.519 41.8 151.511 42.632 152.119 43.784C152.727 44.936 153.031 46.408 153.031 48.2V51.176C153.031 53.864 152.359 55.928 151.015 57.368C149.703 58.776 147.751 59.48 145.159 59.48ZM164.522 59.48C161.93 59.48 159.946 58.744 158.57 57.272C157.194 55.8 156.506 53.72 156.506 51.032V33.368C156.506 30.68 157.194 28.6 158.57 27.128C159.946 25.656 161.93 24.92 164.522 24.92C167.114 24.92 169.098 25.656 170.474 27.128C171.85 28.6 172.538 30.68 172.538 33.368V51.032C172.538 53.72 171.85 55.8 170.474 57.272C169.098 58.744 167.114 59.48 164.522 59.48ZM164.522 54.68C166.346 54.68 167.258 53.576 167.258 51.368V33.032C167.258 30.824 166.346 29.72 164.522 29.72C162.698 29.72 161.786 30.824 161.786 33.032V51.368C161.786 53.576 162.698 54.68 164.522 54.68ZM183.796 25.4H191.86C194.484 25.4 196.452 26.104 197.764 27.512C199.076 28.92 199.732 30.984 199.732 33.704V50.696C199.732 53.416 199.076 55.48 197.764 56.888C196.452 58.296 194.484 59 191.86 59H183.796V25.4ZM191.764 54.2C192.628 54.2 193.284 53.944 193.732 53.432C194.212 52.92 194.452 52.088 194.452 50.936V33.464C194.452 32.312 194.212 31.48 193.732 30.968C193.284 30.456 192.628 30.2 191.764 30.2H189.076V54.2H191.764ZM207.282 25.4H214.434L219.906 59H214.626L213.666 52.328V52.424H207.666L206.706 59H201.81L207.282 25.4ZM213.042 47.864L210.69 31.256H210.594L208.29 47.864H213.042ZM225.113 44.696L218.729 25.4H224.345L227.945 37.736H228.041L231.641 25.4H236.777L230.393 44.696V59H225.113V44.696ZM245.27 59.48C242.71 59.48 240.774 58.76 239.462 57.32C238.15 55.848 237.494 53.752 237.494 51.032V49.112H242.486V51.416C242.486 53.592 243.398 54.68 245.222 54.68C246.118 54.68 246.79 54.424 247.238 53.912C247.718 53.368 247.958 52.504 247.958 51.32C247.958 49.912 247.638 48.68 246.998 47.624C246.358 46.536 245.174 45.24 243.446 43.736C241.27 41.816 239.75 40.088 238.886 38.552C238.022 36.984 237.59 35.224 237.59 33.272C237.59 30.616 238.262 28.568 239.605 27.128C240.95 25.656 242.902 24.92 245.462 24.92C247.99 24.92 249.894 25.656 251.174 27.128C252.486 28.568 253.142 30.648 253.142 33.368V34.76H248.15V33.032C248.15 31.88 247.926 31.048 247.478 30.536C247.03 29.992 246.374 29.72 245.51 29.72C243.75 29.72 242.87 30.792 242.87 32.936C242.87 34.152 243.19 35.288 243.83 36.344C244.502 37.4 245.702 38.68 247.43 40.184C249.638 42.104 251.158 43.848 251.99 45.416C252.822 46.984 253.238 48.824 253.238 50.936C253.238 53.688 252.55 55.8 251.174 57.272C249.83 58.744 247.862 59.48 245.27 59.48ZM128.999 66.4H137.063C139.687 66.4 141.655 67.104 142.967 68.512C144.279 69.92 144.935 71.984 144.935 74.704V91.696C144.935 94.416 144.279 96.48 142.967 97.888C141.655 99.296 139.687 100 137.063 100H128.999V66.4ZM136.967 95.2C137.831 95.2 138.487 94.944 138.935 94.432C139.415 93.92 139.655 93.088 139.655 91.936V74.464C139.655 73.312 139.415 72.48 138.935 71.968C138.487 71.456 137.831 71.2 136.967 71.2H134.279V95.2H136.967ZM148.499 66.4H162.899V71.2H153.779V80.08H161.027V84.88H153.779V95.2H162.899V100H148.499V66.4ZM165.937 66.4H171.217V95.2H179.905V100H165.937V66.4ZM182.437 66.4H187.717V100H182.437V66.4ZM190.279 66.4H195.607L199.063 92.464H199.159L202.615 66.4H207.463L202.375 100H195.367L190.279 66.4ZM209.999 66.4H224.399V71.2H215.279V80.08H222.527V84.88H215.279V95.2H224.399V100H209.999V66.4ZM227.437 66.4H235.261C237.981 66.4 239.965 67.04 241.213 68.32C242.461 69.568 243.085 71.504 243.085 74.128V76.192C243.085 79.68 241.933 81.888 239.629 82.816V82.912C240.909 83.296 241.805 84.08 242.317 85.264C242.861 86.448 243.133 88.032 243.133 90.016V95.92C243.133 96.88 243.165 97.664 243.229 98.272C243.293 98.848 243.453 99.424 243.709 100H238.333C238.141 99.456 238.013 98.944 237.949 98.464C237.885 97.984 237.853 97.12 237.853 95.872V89.728C237.853 88.192 237.597 87.12 237.085 86.512C236.605 85.904 235.757 85.6 234.541 85.6H232.717V100H227.437V66.4ZM234.637 80.8C235.693 80.8 236.477 80.528 236.989 79.984C237.533 79.44 237.805 78.528 237.805 77.248V74.656C237.805 73.44 237.581 72.56 237.133 72.016C236.717 71.472 236.045 71.2 235.117 71.2H232.717V80.8H234.637ZM250.894 85.696L244.51 66.4H250.126L253.726 78.736H253.822L257.422 66.4H262.558L256.174 85.696V100H250.894V85.696Z" fill="#FF9312"/>
<path d="M271.5 62L274.531 67.25H268.469L271.5 62Z" fill="#FF9312"/>
</g>
<defs>
<clipPath id="clip0_1005_217">
<rect width="301" height="129" fill="white"/>
</clipPath>
</defs>
</svg>
