<svg width="301" height="129" viewBox="0 0 301 129" fill="none" xmlns="http://www.w3.org/2000/svg">
<g clip-path="url(#clip0_983_39)">
<path d="M135.037 36.4312C135.037 34.949 134.792 33.9492 134.303 33.423C133.814 32.9056 133.158 32.6425 132.346 32.6425C131.534 32.6425 130.878 32.8881 130.389 33.3792C129.9 33.8703 129.655 34.7122 129.655 35.9138V38.0449H124.745V36.247C124.745 33.5634 125.401 31.5024 126.702 30.0641C128.004 28.6258 129.935 27.9066 132.486 27.9066C135.037 27.9066 136.959 28.6258 138.26 30.0641C139.562 31.5024 140.217 33.5634 140.217 36.247V37.0977C140.217 40.6321 139.003 42.9036 136.583 43.9209C137.902 44.491 138.837 45.368 139.387 46.5519C139.938 47.7359 140.217 49.183 140.217 50.8844V53.4891C140.217 56.1728 139.562 58.2338 138.26 59.6721C136.959 61.1104 135.028 61.8295 132.486 61.8295C129.944 61.8295 128.013 61.1104 126.702 59.6721C125.401 58.2338 124.745 56.1728 124.745 53.4891V50.7441H129.655V53.8224C129.655 55.0239 129.9 55.8658 130.389 56.357C130.878 56.8481 131.525 57.0936 132.346 57.0936C133.167 57.0936 133.814 56.8393 134.303 56.3394C134.792 55.8307 135.037 54.8397 135.037 53.3576V50.7528C135.037 49.2093 134.766 48.1218 134.233 47.4816C133.7 46.8501 132.835 46.5344 131.638 46.5344H129.891V41.7985H131.918C132.896 41.7985 133.656 41.5442 134.207 41.0443C134.757 40.5356 135.037 39.6235 135.037 38.2992V36.4487V36.4312Z" fill="#E27656"/>
<path d="M143.293 36.247C143.293 33.5634 143.965 31.5024 145.319 30.0641C146.674 28.6258 148.622 27.9066 151.173 27.9066C153.724 27.9066 155.672 28.6258 157.026 30.0641C158.38 31.5024 159.053 33.5634 159.053 36.247V53.4891C159.053 56.1728 158.38 58.2338 157.026 59.6721C155.672 61.1104 153.724 61.8295 151.173 61.8295C148.622 61.8295 146.674 61.1104 145.319 59.6721C143.965 58.2338 143.293 56.1728 143.293 53.4891V36.247ZM148.482 53.8136C148.482 55.0151 148.727 55.8571 149.216 56.3482C149.705 56.8393 150.351 57.0849 151.173 57.0849C151.994 57.0849 152.64 56.8393 153.13 56.3482C153.619 55.8571 153.863 55.0151 153.863 53.8136V35.9138C153.863 34.7122 153.619 33.8703 153.13 33.3792C152.64 32.8881 151.994 32.6425 151.173 32.6425C150.351 32.6425 149.705 32.8881 149.216 33.3792C148.727 33.8703 148.482 34.7122 148.482 35.9138V53.8136Z" fill="#E27656"/>
<path d="M169.711 28.2925H177.923C180.535 28.2925 182.475 28.9853 183.75 30.3798C185.026 31.7742 185.664 33.8089 185.664 36.4926V53.2611C185.664 55.9447 185.026 57.9794 183.75 59.3739C182.475 60.7595 180.535 61.4612 177.923 61.4612H169.711V28.31V28.2925ZM174.9 33.0196V56.699H177.827C178.648 56.699 179.286 56.4622 179.758 55.9886C180.23 55.515 180.465 54.6818 180.465 53.4803V36.2382C180.465 35.0367 180.23 34.2036 179.758 33.73C179.286 33.2564 178.64 33.0196 177.827 33.0196H174.9Z" fill="#E27656"/>
<path d="M205.705 61.4436H200.472L199.572 55.4273H193.203L192.303 61.4436H187.542L192.827 28.2925H200.419L205.705 61.4436ZM193.867 50.9282H198.864L196.365 34.1597L193.867 50.9282Z" fill="#E27656"/>
<path d="M212.973 50.4546L206.412 28.2925H211.837L215.804 43.4034L219.77 28.2925H224.723L218.163 50.4546V61.4436H212.973V50.4546Z" fill="#E27656"/>
<path d="M225.807 36.247C225.807 33.5634 226.445 31.5024 227.72 30.0641C228.996 28.6258 230.909 27.9066 233.451 27.9066C235.993 27.9066 237.907 28.6258 239.182 30.0641C240.458 31.5024 241.095 33.5634 241.095 36.247V37.2907H236.186V35.9138C236.186 34.7122 235.958 33.8703 235.504 33.3792C235.05 32.8881 234.412 32.6425 233.591 32.6425C232.77 32.6425 232.132 32.8881 231.678 33.3792C231.223 33.8703 230.996 34.7122 230.996 35.9138C230.996 37.0539 231.249 38.0537 231.747 38.9219C232.254 39.7902 232.883 40.6145 233.634 41.3863C234.386 42.1581 235.198 42.9299 236.063 43.7104C236.928 44.4822 237.741 45.3241 238.492 46.245C239.243 47.1571 239.872 48.2007 240.379 49.3672C240.886 50.5336 241.13 51.9105 241.13 53.4891C241.13 56.1728 240.475 58.2338 239.173 59.6721C237.872 61.1104 235.941 61.8295 233.39 61.8295C230.839 61.8295 228.917 61.1104 227.615 59.6721C226.305 58.2338 225.658 56.1728 225.658 53.4891V51.4544H230.568V53.8224C230.568 55.0239 230.813 55.8571 231.302 56.3306C231.791 56.8042 232.438 57.041 233.259 57.041C234.08 57.041 234.727 56.8042 235.216 56.3306C235.705 55.8571 235.95 55.0239 235.95 53.8224C235.95 52.6823 235.696 51.6825 235.198 50.8142C234.692 49.946 234.063 49.1216 233.311 48.3498C232.56 47.578 231.747 46.8063 230.883 46.0257C230.018 45.254 229.205 44.412 228.454 43.4912C227.703 42.5791 227.074 41.5354 226.567 40.369C226.06 39.2026 225.816 37.8256 225.816 36.247H225.807Z" fill="#E27656"/>
<path d="M125.471 68.8456H133.683C136.295 68.8456 138.234 69.5384 139.51 70.9329C140.785 72.3186 141.423 74.362 141.423 77.0457V93.8142C141.423 96.4978 140.785 98.5325 139.51 99.927C138.234 101.313 136.295 102.014 133.683 102.014H125.471V68.8631V68.8456ZM130.66 73.5815V97.2608H133.587C134.408 97.2608 135.046 97.024 135.517 96.5505C135.989 96.0769 136.225 95.2437 136.225 94.0422V76.8001C136.225 75.5986 135.989 74.7654 135.517 74.2918C135.046 73.8183 134.399 73.5815 133.587 73.5815H130.66Z" fill="#E27656"/>
<path d="M149.906 82.8164H157.026V87.5523H149.906V97.2608H158.869V101.997H144.717V68.8456H158.869V73.5815H149.906V82.8164Z" fill="#E27656"/>
<path d="M162.076 68.8456H167.265V97.2608H175.8V101.997H162.076V68.8456Z" fill="#E27656"/>
<path d="M178.072 68.8456H183.261V101.997H178.072V68.8456Z" fill="#E27656"/>
<path d="M194.863 95.8839L198.829 68.8456H203.59L198.497 101.997H190.757L185.664 68.8456H190.897L194.863 95.8839Z" fill="#E27656"/>
<path d="M211.182 82.8164H218.302V87.5523H211.182V97.2608H220.146V101.997H205.993V68.8456H220.146V73.5815H211.182V82.8164Z" fill="#E27656"/>
<path d="M234.202 101.997C234.141 101.777 234.08 101.567 234.01 101.383C233.949 101.19 233.897 100.953 233.844 100.672C233.792 100.392 233.766 100.023 233.748 99.5849C233.731 99.1464 233.722 98.5939 233.722 97.9274V92.7179C233.722 91.1744 233.451 90.0869 232.918 89.4466C232.385 88.8152 231.52 88.4995 230.323 88.4995H228.532V101.997H223.343V68.8456H231.171C233.879 68.8456 235.836 69.477 237.042 70.7399C238.256 72.0028 238.859 73.9147 238.859 76.4668V79.0716C238.859 82.4832 237.723 84.7195 235.46 85.7983C236.78 86.3332 237.688 87.2103 238.169 88.4293C238.658 89.6484 238.902 91.1217 238.902 92.8582V97.9712C238.902 98.7956 238.937 99.506 238.999 100.129C239.06 100.743 239.217 101.365 239.47 101.997H234.185H234.202ZM228.541 73.5815V83.7636H230.568C231.547 83.7636 232.307 83.5093 232.857 83.0094C233.407 82.5007 233.678 81.5886 233.678 80.2643V76.993C233.678 75.7915 233.469 74.9233 233.04 74.3883C232.612 73.8533 231.948 73.5815 231.04 73.5815H228.541Z" fill="#E27656"/>
<path d="M246.704 91.0077L240.143 68.8456H245.568L249.535 83.9565L253.501 68.8456H258.454L251.893 91.0077V101.997H246.704V91.0077Z" fill="#E27656"/>
<path d="M288.769 12.2782V116.722H12.2308V12.2782H288.769ZM301 0H0V129H301V0Z" fill="#E27656"/>
<path d="M267.994 63.6186L267.4 59.8562H269.445L268.85 63.6186L272.24 61.9084L272.878 63.8466L269.147 64.4868L271.803 67.1617L270.17 68.372L268.422 64.9955L266.675 68.372L265.041 67.1617L267.706 64.4868L263.976 63.8466L264.613 61.9084L268.003 63.6186H267.994Z" fill="#E27656"/>
<path fill-rule="evenodd" clip-rule="evenodd" d="M104.94 65.3025L93.7141 50.0074C93.4084 49.5952 92.9366 49.3496 92.4212 49.3496H81.5358L83.9819 36.782C84.0693 36.3084 83.947 35.8173 83.6499 35.4489C83.3442 35.0806 82.8899 34.8613 82.4094 34.8613H39.9161C39.1473 34.8613 38.4921 35.4051 38.3436 36.1593L37.1816 42.1055H29.8694C28.987 42.1055 28.2619 42.8246 28.2619 43.7192C28.2619 44.6137 28.9783 45.3329 29.8694 45.3329H49.9191C52.1294 45.3329 53.9291 47.1308 53.9291 49.3584C53.9291 51.586 52.1294 53.3839 49.9191 53.3839H29.8694C28.987 53.3839 28.2619 54.103 28.2619 54.9976C28.2619 55.8921 28.9783 56.6113 29.8694 56.6113H42.703C44.9132 56.6113 46.7129 58.4092 46.7129 60.6368C46.7129 62.8644 44.922 64.6623 42.703 64.6623H29.8694C28.987 64.6623 28.2619 65.3814 28.2619 66.276C28.2619 67.1705 28.9783 67.8897 29.8694 67.8897H37.0855C39.2958 67.8897 41.0955 69.6876 41.0955 71.9152C41.0955 74.1428 39.3046 75.9407 37.0855 75.9407H30.5857L28.2968 87.7014C28.2007 88.175 28.3318 88.6661 28.6288 89.0345C28.9346 89.4028 29.3889 89.6221 29.8694 89.6221H37.2515C37.6883 91.8848 38.9813 93.8844 40.9994 95.0508C44.8696 97.296 50.1026 95.691 52.6187 91.3235C52.9419 90.771 53.1952 90.2009 53.3962 89.6221H77.3511C77.7879 91.8848 79.0809 93.8844 81.0989 95.0508C84.9691 97.296 90.2022 95.691 92.7182 91.3235C93.0414 90.771 93.2948 90.2009 93.4957 89.6221H99.6461C100.415 89.6221 101.079 89.0696 101.227 88.3066L105.237 66.5742C105.316 66.1357 105.211 65.6884 104.949 65.3288L104.94 65.3025ZM49.8405 89.6835C48.2592 92.4285 45.0356 93.6388 42.5981 92.2356C40.1607 90.8236 39.6016 87.4296 41.1829 84.6845C42.7641 81.9394 45.9878 80.7292 48.4252 82.1324C50.8627 83.5444 51.4218 86.9384 49.8405 89.6835ZM69.6282 73.9498L62.744 70.3102L55.8686 73.9498L57.179 66.2409L51.614 60.7771L59.3019 59.6545L62.7353 52.6384L66.1774 59.6545L73.8653 60.7859L68.3003 66.2409L69.6195 73.9498H69.6282ZM89.9401 89.6835C88.3588 92.4285 85.1351 93.6388 82.6977 92.2356C80.2603 90.8236 79.7011 87.4296 81.2824 84.6845C82.8637 81.9394 86.0874 80.7292 88.5248 82.1324C90.9622 83.5444 91.5213 86.9384 89.9401 89.6835ZM78.5654 64.6447L80.9155 52.5682H91.6174L100.476 64.6447H78.5654Z" fill="#E27656"/>
</g>
<defs>
<clipPath id="clip0_983_39">
<rect width="301" height="129" fill="white"/>
</clipPath>
</defs>
</svg>
