<svg width="301" height="129" viewBox="0 0 301 129" fill="none" xmlns="http://www.w3.org/2000/svg">
<g clip-path="url(#clip0_998_155)">
<path d="M93.079 31.8667H98.6417L102.898 58H98.791L98.0443 52.8107V52.8853H93.3777L92.631 58H88.823L93.079 31.8667ZM97.559 49.3387L95.7297 36.4213H95.655L93.863 49.3387H97.559ZM104.89 31.8667H110.042L114.037 47.5093H114.111V31.8667H117.77V58H113.551L108.623 38.9227H108.549V58H104.89V31.8667ZM120.822 31.8667H125.974L129.969 47.5093H130.044V31.8667H133.702V58H129.484L124.556 38.9227H124.481V58H120.822V31.8667ZM142.728 58.3733C140.737 58.3733 139.219 57.8133 138.173 56.6933C137.128 55.5484 136.605 53.9182 136.605 51.8027V31.8667H140.712V52.1013C140.712 52.9973 140.886 53.6444 141.235 54.0427C141.608 54.4409 142.131 54.64 142.803 54.64C143.475 54.64 143.985 54.4409 144.333 54.0427C144.707 53.6444 144.893 52.9973 144.893 52.1013V31.8667H148.851V51.8027C148.851 53.9182 148.328 55.5484 147.283 56.6933C146.237 57.8133 144.719 58.3733 142.728 58.3733ZM154.876 31.8667H160.439L164.695 58H160.588L159.841 52.8107V52.8853H155.175L154.428 58H150.62L154.876 31.8667ZM159.356 49.3387L157.527 36.4213H157.452L155.66 49.3387H159.356ZM166.687 31.8667H170.794V54.2667H177.551V58H166.687V31.8667ZM190.838 58.3733C188.847 58.3733 187.341 57.8133 186.321 56.6933C185.3 55.5484 184.79 53.9182 184.79 51.8027V50.3093H188.673V52.1013C188.673 53.7938 189.382 54.64 190.801 54.64C191.498 54.64 192.02 54.4409 192.369 54.0427C192.742 53.6196 192.929 52.9476 192.929 52.0267C192.929 50.9316 192.68 49.9733 192.182 49.152C191.684 48.3058 190.763 47.2978 189.419 46.128C187.727 44.6347 186.545 43.2907 185.873 42.096C185.201 40.8764 184.865 39.5076 184.865 37.9893C184.865 35.9236 185.387 34.3307 186.433 33.2107C187.478 32.0658 188.996 31.4933 190.987 31.4933C192.954 31.4933 194.435 32.0658 195.43 33.2107C196.451 34.3307 196.961 35.9484 196.961 38.064V39.1467H193.078V37.8027C193.078 36.9067 192.904 36.2596 192.555 35.8613C192.207 35.4382 191.697 35.2267 191.025 35.2267C189.656 35.2267 188.971 36.0604 188.971 37.728C188.971 38.6738 189.22 39.5573 189.718 40.3787C190.241 41.2 191.174 42.1956 192.518 43.3653C194.235 44.8587 195.418 46.2151 196.065 47.4347C196.712 48.6542 197.035 50.0853 197.035 51.728C197.035 53.8684 196.5 55.5111 195.43 56.656C194.385 57.8009 192.854 58.3733 190.838 58.3733ZM199.39 31.8667H210.59V35.6H203.497V42.5067H209.134V46.24H203.497V54.2667H210.59V58H199.39V31.8667ZM212.953 31.8667H219.038C221.153 31.8667 222.697 32.3644 223.667 33.36C224.638 34.3307 225.123 35.8364 225.123 37.8773V39.4827C225.123 42.1956 224.227 43.9129 222.435 44.6347V44.7093C223.431 45.008 224.128 45.6178 224.526 46.5387C224.949 47.4596 225.161 48.6916 225.161 50.2347V54.8267C225.161 55.5733 225.185 56.1831 225.235 56.656C225.285 57.104 225.409 57.552 225.609 58H221.427C221.278 57.5769 221.178 57.1787 221.129 56.8053C221.079 56.432 221.054 55.76 221.054 54.7893V50.0107C221.054 48.816 220.855 47.9822 220.457 47.5093C220.083 47.0364 219.424 46.8 218.478 46.8H217.059V58H212.953V31.8667ZM218.553 43.0667C219.374 43.0667 219.984 42.8551 220.382 42.432C220.805 42.0089 221.017 41.2996 221.017 40.304V38.288C221.017 37.3422 220.842 36.6578 220.494 36.2347C220.17 35.8116 219.648 35.6 218.926 35.6H217.059V43.0667H218.553ZM226.781 31.8667H230.925L233.613 52.1387H233.688L236.376 31.8667H240.147L236.189 58H230.739L226.781 31.8667ZM242.119 31.8667H246.226V58H242.119V31.8667ZM255.088 58.3733C253.122 58.3733 251.616 57.8133 250.571 56.6933C249.55 55.5733 249.04 53.9929 249.04 51.952V37.9147C249.04 35.8738 249.55 34.2933 250.571 33.1733C251.616 32.0533 253.122 31.4933 255.088 31.4933C257.054 31.4933 258.548 32.0533 259.568 33.1733C260.614 34.2933 261.136 35.8738 261.136 37.9147V40.6773H257.254V37.6533C257.254 36.0356 256.569 35.2267 255.2 35.2267C253.831 35.2267 253.147 36.0356 253.147 37.6533V52.2507C253.147 53.8436 253.831 54.64 255.2 54.64C256.569 54.64 257.254 53.8436 257.254 52.2507V48.256H261.136V51.952C261.136 53.9929 260.614 55.5733 259.568 56.6933C258.548 57.8133 257.054 58.3733 255.088 58.3733ZM263.593 31.8667H274.793V35.6H267.7V42.5067H273.337V46.24H267.7V54.2667H274.793V58H263.593V31.8667ZM128.971 65.8667H135.019C137.06 65.8667 138.59 66.4142 139.611 67.5093C140.631 68.6044 141.141 70.2098 141.141 72.3253V74.9013C141.141 77.0169 140.631 78.6222 139.611 79.7173C138.59 80.8124 137.06 81.36 135.019 81.36H133.077V92H128.971V65.8667ZM135.019 77.6267C135.691 77.6267 136.189 77.44 136.512 77.0667C136.861 76.6933 137.035 76.0587 137.035 75.1627V72.064C137.035 71.168 136.861 70.5333 136.512 70.16C136.189 69.7867 135.691 69.6 135.019 69.6H133.077V77.6267H135.019ZM143.372 65.8667H149.457C151.573 65.8667 153.116 66.3644 154.086 67.36C155.057 68.3307 155.542 69.8364 155.542 71.8773V73.4827C155.542 76.1956 154.646 77.9129 152.854 78.6347V78.7093C153.85 79.008 154.547 79.6178 154.945 80.5387C155.368 81.4596 155.58 82.6916 155.58 84.2347V88.8267C155.58 89.5733 155.605 90.1831 155.654 90.656C155.704 91.104 155.829 91.552 156.028 92H151.846C151.697 91.5769 151.598 91.1787 151.548 90.8053C151.498 90.432 151.473 89.76 151.473 88.7893V84.0107C151.473 82.816 151.274 81.9822 150.876 81.5093C150.502 81.0364 149.843 80.8 148.897 80.8H147.478V92H143.372V65.8667ZM148.972 77.0667C149.793 77.0667 150.403 76.8551 150.801 76.432C151.224 76.0089 151.436 75.2996 151.436 74.304V72.288C151.436 71.3422 151.262 70.6578 150.913 70.2347C150.59 69.8116 150.067 69.6 149.345 69.6H147.478V77.0667H148.972ZM164.365 92.3733C162.349 92.3733 160.806 91.8009 159.736 90.656C158.666 89.5111 158.13 87.8933 158.13 85.8027V72.064C158.13 69.9733 158.666 68.3556 159.736 67.2107C160.806 66.0658 162.349 65.4933 164.365 65.4933C166.381 65.4933 167.924 66.0658 168.994 67.2107C170.065 68.3556 170.6 69.9733 170.6 72.064V85.8027C170.6 87.8933 170.065 89.5111 168.994 90.656C167.924 91.8009 166.381 92.3733 164.365 92.3733ZM164.365 88.64C165.784 88.64 166.493 87.7813 166.493 86.064V71.8027C166.493 70.0853 165.784 69.2267 164.365 69.2267C162.946 69.2267 162.237 70.0853 162.237 71.8027V86.064C162.237 87.7813 162.946 88.64 164.365 88.64ZM179.201 92.3733C177.21 92.3733 175.692 91.8133 174.646 90.6933C173.601 89.5484 173.078 87.9182 173.078 85.8027V72.064C173.078 69.9484 173.601 68.3307 174.646 67.2107C175.692 66.0658 177.21 65.4933 179.201 65.4933C181.192 65.4933 182.71 66.0658 183.756 67.2107C184.801 68.3307 185.324 69.9484 185.324 72.064V74.304H181.441V71.8027C181.441 70.0853 180.732 69.2267 179.313 69.2267C177.894 69.2267 177.185 70.0853 177.185 71.8027V86.1013C177.185 87.7938 177.894 88.64 179.313 88.64C180.732 88.64 181.441 87.7938 181.441 86.1013V80.9867H179.388V77.2533H185.324V85.8027C185.324 87.9182 184.801 89.5484 183.756 90.6933C182.71 91.8133 181.192 92.3733 179.201 92.3733ZM187.96 65.8667H194.046C196.161 65.8667 197.704 66.3644 198.675 67.36C199.646 68.3307 200.131 69.8364 200.131 71.8773V73.4827C200.131 76.1956 199.235 77.9129 197.443 78.6347V78.7093C198.439 79.008 199.135 79.6178 199.534 80.5387C199.957 81.4596 200.168 82.6916 200.168 84.2347V88.8267C200.168 89.5733 200.193 90.1831 200.243 90.656C200.293 91.104 200.417 91.552 200.616 92H196.435C196.286 91.5769 196.186 91.1787 196.136 90.8053C196.087 90.432 196.062 89.76 196.062 88.7893V84.0107C196.062 82.816 195.863 81.9822 195.464 81.5093C195.091 81.0364 194.431 80.8 193.486 80.8H192.067V92H187.96V65.8667ZM193.56 77.0667C194.382 77.0667 194.991 76.8551 195.39 76.432C195.813 76.0089 196.024 75.2996 196.024 74.304V72.288C196.024 71.3422 195.85 70.6578 195.502 70.2347C195.178 69.8116 194.655 69.6 193.934 69.6H192.067V77.0667H193.56ZM206.191 65.8667H211.754L216.01 92H211.903L211.156 86.8107V86.8853H206.49L205.743 92H201.935L206.191 65.8667ZM210.671 83.3387L208.842 70.4213H208.767L206.975 83.3387H210.671ZM218.002 65.8667H223.863L226.477 84.5707H226.551L229.165 65.8667H235.026V92H231.143V72.2133H231.069L228.082 92H224.647L221.661 72.2133H221.586V92H218.002V65.8667Z" fill="#FF9312"/>
<rect x="241" y="66" width="6" height="6" fill="#FF9312"/>
<rect x="4" y="4" width="293" height="121" stroke="#FF9312" stroke-width="8"/>
</g>
<path d="M22.8462 71.9463C22.8375 71.9725 22.8375 72.0075 22.8375 72.0338C22.7762 72.3488 22.75 72.6813 22.75 72.9963C22.75 74.1163 23.0213 75.2013 23.5375 76.155C23.695 76.4438 23.87 76.7238 24.0625 76.9863C24.255 77.2488 24.4737 77.5025 24.71 77.7388H24.7188C25.9875 78.9988 27.6675 79.6988 29.4 79.6988H29.4087C29.5925 79.6988 29.7762 79.69 29.96 79.6725C30.1087 79.6638 30.2575 79.6463 30.4062 79.62C30.4412 79.62 30.4675 79.62 30.5025 79.6113C31.9113 79.4013 33.1888 78.7538 34.195 77.7388L43.5138 68.4288L43.8375 68.7525C44.3538 69.2688 45.0713 69.5663 45.815 69.5663C46.55 69.5663 47.2675 69.2688 47.7838 68.7525C48.8775 67.6588 48.8775 65.8913 47.7838 64.8063L44.87 61.8838L56.245 50.5L57.47 51.725C57.6538 51.9088 57.8988 51.9963 58.1525 51.9788C58.415 51.9613 58.6425 51.83 58.8 51.6288L65.45 42.555C65.7038 42.2138 65.6688 41.7238 65.3625 41.4263L61.0312 37.095C60.725 36.7888 60.2438 36.7538 59.8937 37.0075L50.8288 43.6575C50.6275 43.815 50.4962 44.0425 50.4787 44.2963C50.4525 44.55 50.5487 44.8038 50.7325 44.9875L51.9487 46.2038L40.565 57.5788L37.6513 54.665C37.1175 54.1313 36.4438 53.86 35.6825 53.8513C34.9388 53.8513 34.2213 54.1488 33.705 54.6738C32.62 55.7588 32.62 57.5263 33.705 58.62L34.0288 58.9438L24.7188 68.2538C23.7038 69.2688 23.0562 70.5463 22.8462 71.9463ZM29.1637 77.9313C29.0237 77.9313 28.8925 77.9138 28.7613 77.8963C28.6125 77.8875 28.4637 77.8613 28.315 77.8175C28.1662 77.7825 28.0262 77.7475 27.8863 77.695C27.1687 77.4588 26.5037 77.0563 25.9525 76.505C25.62 76.1725 25.3487 75.8138 25.13 75.42C25.0512 75.2888 24.9812 75.1488 24.9287 75.0088C24.8762 74.895 24.8238 74.7725 24.7887 74.65C24.7713 74.6238 24.7625 74.5975 24.7537 74.5625C24.71 74.44 24.675 74.3175 24.6488 74.195C24.64 74.1688 24.64 74.1513 24.6313 74.1338C24.605 74.0288 24.5875 73.9238 24.57 73.81C24.5612 73.74 24.5438 73.67 24.5438 73.6C24.5263 73.5213 24.5175 73.4425 24.5175 73.3638C24.5087 73.3463 24.5088 73.32 24.5088 73.2938C24.5088 73.2763 24.5175 73.2588 24.5175 73.25C25.5763 73.6525 26.5388 74.2825 27.3525 75.105C28.1663 75.9188 28.7962 76.8813 29.2075 77.94C29.19 77.94 29.1813 77.94 29.1637 77.9313ZM28.315 69.9425L34.7375 63.52C35.0787 63.1788 35.63 63.1788 35.9713 63.52C36.3125 63.8613 36.3125 64.4213 35.9713 64.7625L29.5488 71.185C29.3825 71.3513 29.155 71.4388 28.9275 71.4388C28.7088 71.4388 28.4812 71.3513 28.315 71.185C27.9737 70.8438 27.9737 70.2838 28.315 69.9425ZM38.9287 67.72L32.5062 74.1425C32.34 74.3088 32.1125 74.3963 31.8938 74.3963C31.6663 74.3963 31.4388 74.3088 31.2725 74.1425C30.9312 73.8013 30.9312 73.25 31.2725 72.9L37.695 66.4863C38.0363 66.145 38.5875 66.145 38.9287 66.4863C39.27 66.8275 39.27 67.3788 38.9287 67.72ZM53.8038 46.8163C54.145 46.475 54.145 45.9238 53.8038 45.5825L52.6838 44.4713L60.3225 38.8625L63.595 42.1263L57.9863 49.765L56.8663 48.645C56.5338 48.3213 55.9563 48.3213 55.6325 48.645L43.6275 60.65L41.7987 58.8213L53.8038 46.8163ZM34.9388 55.9075C35.1313 55.715 35.4025 55.6013 35.6913 55.6013C35.98 55.5925 36.2163 55.7063 36.4175 55.9075L39.9088 59.3988C39.9175 59.4163 39.935 59.425 39.9438 59.4425L43.0063 62.505C43.0238 62.5225 43.0325 62.5313 43.05 62.54L46.55 66.04C46.9525 66.4425 46.9525 67.1075 46.55 67.51C46.165 67.895 45.4563 67.895 45.0713 67.51L44.2487 66.6963C44.2137 66.6525 44.1788 66.6088 44.135 66.565L35.8925 58.3138C35.8488 58.27 35.805 58.235 35.7525 58.2C35.7525 58.2 35.7438 58.2 35.7438 58.1913L34.9388 57.3775C34.5363 56.975 34.5363 56.31 34.9388 55.9075Z" fill="#FF9312"/>
<path d="M72.8875 72.9437C72.7212 72.7775 72.4937 72.6812 72.2662 72.6812C72.03 72.6812 71.8112 72.7775 71.645 72.9437L71.12 73.46L70.0962 72.4362L70.6212 71.9112C70.7875 71.745 70.875 71.5262 70.875 71.2987C70.875 71.0625 70.7875 70.8437 70.6212 70.6775L68.8187 68.875C68.4512 68.5075 67.9612 68.3062 67.445 68.3062C66.9287 68.3062 66.4387 68.4987 66.08 68.8662L64.7412 70.1962C63.9887 70.9575 63.9887 72.1912 64.7412 72.9437L65.38 73.5825L58.8 80.1712C58.6425 80.3287 58.555 80.5387 58.5462 80.7575L58.415 84.2575C58.4062 84.5025 58.5025 84.7387 58.6687 84.905C58.835 85.0712 59.0625 85.1587 59.29 85.1587H59.325L62.8075 85.01C63.0262 85.0012 63.2275 84.905 63.385 84.7562L69.965 78.1675L70.6125 78.815C70.98 79.1737 71.4612 79.375 71.9775 79.375H71.9862C72.5025 79.375 72.9837 79.1737 73.3512 78.8062L74.69 77.4762C75.0487 77.1087 75.25 76.6275 75.25 76.1112C75.25 75.5862 75.0487 75.105 74.69 74.7462L72.8875 72.9437ZM62.3875 83.2775L60.2 83.3737L60.2787 81.16L66.6225 74.825L68.7312 76.9337L62.3875 83.2775Z" fill="#FF9312"/>
<path d="M53.5587 76.0238L55.9387 78.5875C56.105 78.7625 56.3325 78.8675 56.5775 78.8675C56.8225 78.8675 57.0587 78.7625 57.225 78.5875L59.5787 76.015C59.7187 75.8575 59.8062 75.6475 59.8062 75.4288V66.1188H60.7162C61.7837 66.1188 62.65 65.2438 62.65 64.1763V62.2863C62.65 61.2188 61.7837 60.3525 60.7162 60.3525H58.17C57.68 60.3525 57.295 60.7463 57.295 61.2275V61.9713H55.8425V61.2275C55.8425 60.7463 55.4487 60.3525 54.9675 60.3525H52.4212C51.345 60.3525 50.4787 61.2188 50.4787 62.2863V64.1763C50.4787 65.2438 51.345 66.1188 52.4212 66.1188H53.3225V75.4288C53.3225 75.6475 53.4012 75.8575 53.5587 76.0238ZM58.0562 66.1188V75.0875L56.5775 76.7063L55.0725 75.0875V66.1188H58.0562Z" fill="#FF9312"/>
<defs>
<clipPath id="clip0_998_155">
<rect width="301" height="129" fill="white"/>
</clipPath>
</defs>
</svg>
