<svg width="301" height="129" viewBox="0 0 301 129" fill="none" xmlns="http://www.w3.org/2000/svg">
<path d="M288.769 12.2782V116.722H12.2308V12.2782H288.769ZM301 0H0V129H301V0Z" fill="#FF9312"/>
<path d="M232 73H238V79H232V73Z" fill="#FF9312"/>
<path d="M133.41 21.5H138.625L142.615 46H138.765L138.065 41.135V41.205H133.69L132.99 46H129.42L133.41 21.5ZM137.61 37.88L135.895 25.77H135.825L134.145 37.88H137.61Z" fill="#FF9312"/>
<path d="M144.483 21.5H149.313L153.058 36.165H153.128V21.5H156.558V46H152.603L147.983 28.115H147.913V46H144.483V21.5Z" fill="#FF9312"/>
<path d="M159.419 21.5H164.249L167.994 36.165H168.064V21.5H171.494V46H167.539L162.919 28.115H162.849V46H159.419V21.5Z" fill="#FF9312"/>
<path d="M179.956 46.35C178.089 46.35 176.666 45.825 175.686 44.775C174.706 43.7017 174.216 42.1733 174.216 40.19V21.5H178.066V40.47C178.066 41.31 178.229 41.9167 178.556 42.29C178.906 42.6633 179.396 42.85 180.026 42.85C180.656 42.85 181.134 42.6633 181.461 42.29C181.811 41.9167 181.986 41.31 181.986 40.47V21.5H185.696V40.19C185.696 42.1733 185.206 43.7017 184.226 44.775C183.246 45.825 181.823 46.35 179.956 46.35Z" fill="#FF9312"/>
<path d="M191.345 21.5H196.56L200.55 46H196.7L196 41.135V41.205H191.625L190.925 46H187.355L191.345 21.5ZM195.545 37.88L193.83 25.77H193.76L192.08 37.88H195.545Z" fill="#FF9312"/>
<path d="M202.417 21.5H206.267V42.5H212.602V46H202.417V21.5Z" fill="#FF9312"/>
<path d="M135.44 76.35C133.573 76.35 132.162 75.825 131.205 74.775C130.248 73.7017 129.77 72.1733 129.77 70.19V68.79H133.41V70.47C133.41 72.0567 134.075 72.85 135.405 72.85C136.058 72.85 136.548 72.6633 136.875 72.29C137.225 71.8933 137.4 71.2633 137.4 70.4C137.4 69.3733 137.167 68.475 136.7 67.705C136.233 66.9117 135.37 65.9667 134.11 64.87C132.523 63.47 131.415 62.21 130.785 61.09C130.155 59.9467 129.84 58.6633 129.84 57.24C129.84 55.3033 130.33 53.81 131.31 52.76C132.29 51.6867 133.713 51.15 135.58 51.15C137.423 51.15 138.812 51.6867 139.745 52.76C140.702 53.81 141.18 55.3267 141.18 57.31V58.325H137.54V57.065C137.54 56.225 137.377 55.6183 137.05 55.245C136.723 54.8483 136.245 54.65 135.615 54.65C134.332 54.65 133.69 55.4317 133.69 56.995C133.69 57.8817 133.923 58.71 134.39 59.48C134.88 60.25 135.755 61.1833 137.015 62.28C138.625 63.68 139.733 64.9517 140.34 66.095C140.947 67.2383 141.25 68.58 141.25 70.12C141.25 72.1267 140.748 73.6667 139.745 74.74C138.765 75.8133 137.33 76.35 135.44 76.35Z" fill="#FF9312"/>
<path d="M143.457 51.5H153.957V55H147.307V61.475H152.592V64.975H147.307V72.5H153.957V76H143.457V51.5Z" fill="#FF9312"/>
<path d="M156.172 51.5H161.877C163.861 51.5 165.307 51.9667 166.217 52.9C167.127 53.81 167.582 55.2217 167.582 57.135V58.64C167.582 61.1833 166.742 62.7933 165.062 63.47V63.54C165.996 63.82 166.649 64.3917 167.022 65.255C167.419 66.1183 167.617 67.2733 167.617 68.72V73.025C167.617 73.725 167.641 74.2967 167.687 74.74C167.734 75.16 167.851 75.58 168.037 76H164.117C163.977 75.6033 163.884 75.23 163.837 74.88C163.791 74.53 163.767 73.9 163.767 72.99V68.51C163.767 67.39 163.581 66.6083 163.207 66.165C162.857 65.7217 162.239 65.5 161.352 65.5H160.022V76H156.172V51.5ZM161.422 62C162.192 62 162.764 61.8017 163.137 61.405C163.534 61.0083 163.732 60.3433 163.732 59.41V57.52C163.732 56.6333 163.569 55.9917 163.242 55.595C162.939 55.1983 162.449 55 161.772 55H160.022V62H161.422Z" fill="#FF9312"/>
<path d="M169.137 51.5H173.022L175.542 70.505H175.612L178.132 51.5H181.667L177.957 76H172.847L169.137 51.5Z" fill="#FF9312"/>
<path d="M183.516 51.5H187.366V76H183.516V51.5Z" fill="#FF9312"/>
<path d="M195.674 76.35C193.831 76.35 192.419 75.825 191.439 74.775C190.483 73.725 190.004 72.2433 190.004 70.33V57.17C190.004 55.2567 190.483 53.775 191.439 52.725C192.419 51.675 193.831 51.15 195.674 51.15C197.518 51.15 198.918 51.675 199.874 52.725C200.854 53.775 201.344 55.2567 201.344 57.17V59.76H197.704V56.925C197.704 55.4083 197.063 54.65 195.779 54.65C194.496 54.65 193.854 55.4083 193.854 56.925V70.61C193.854 72.1033 194.496 72.85 195.779 72.85C197.063 72.85 197.704 72.1033 197.704 70.61V66.865H201.344V70.33C201.344 72.2433 200.854 73.725 199.874 74.775C198.918 75.825 197.518 76.35 195.674 76.35Z" fill="#FF9312"/>
<path d="M203.648 51.5H214.148V55H207.498V61.475H212.783V64.975H207.498V72.5H214.148V76H203.648V51.5Z" fill="#FF9312"/>
<path d="M130.435 81.5H136.105C138.018 81.5 139.453 82.0133 140.41 83.04C141.367 84.0667 141.845 85.5717 141.845 87.555V89.97C141.845 91.9533 141.367 93.4583 140.41 94.485C139.453 95.5117 138.018 96.025 136.105 96.025H134.285V106H130.435V81.5ZM136.105 92.525C136.735 92.525 137.202 92.35 137.505 92C137.832 91.65 137.995 91.055 137.995 90.215V87.31C137.995 86.47 137.832 85.875 137.505 85.525C137.202 85.175 136.735 85 136.105 85H134.285V92.525H136.105Z" fill="#FF9312"/>
<path d="M143.936 81.5H149.641C151.624 81.5 153.071 81.9667 153.981 82.9C154.891 83.81 155.346 85.2217 155.346 87.135V88.64C155.346 91.1833 154.506 92.7933 152.826 93.47V93.54C153.759 93.82 154.413 94.3917 154.786 95.255C155.183 96.1183 155.381 97.2733 155.381 98.72V103.025C155.381 103.725 155.404 104.297 155.451 104.74C155.498 105.16 155.614 105.58 155.801 106H151.881C151.741 105.603 151.648 105.23 151.601 104.88C151.554 104.53 151.531 103.9 151.531 102.99V98.51C151.531 97.39 151.344 96.6083 150.971 96.165C150.621 95.7217 150.003 95.5 149.116 95.5H147.786V106H143.936V81.5ZM149.186 92C149.956 92 150.528 91.8017 150.901 91.405C151.298 91.0083 151.496 90.3433 151.496 89.41V87.52C151.496 86.6333 151.333 85.9917 151.006 85.595C150.703 85.1983 150.213 85 149.536 85H147.786V92H149.186Z" fill="#FF9312"/>
<path d="M163.617 106.35C161.727 106.35 160.281 105.813 159.277 104.74C158.274 103.667 157.772 102.15 157.772 100.19V87.31C157.772 85.35 158.274 83.8333 159.277 82.76C160.281 81.6867 161.727 81.15 163.617 81.15C165.507 81.15 166.954 81.6867 167.957 82.76C168.961 83.8333 169.462 85.35 169.462 87.31V100.19C169.462 102.15 168.961 103.667 167.957 104.74C166.954 105.813 165.507 106.35 163.617 106.35ZM163.617 102.85C164.947 102.85 165.612 102.045 165.612 100.435V87.065C165.612 85.455 164.947 84.65 163.617 84.65C162.287 84.65 161.622 85.455 161.622 87.065V100.435C161.622 102.045 162.287 102.85 163.617 102.85Z" fill="#FF9312"/>
<path d="M177.526 106.35C175.659 106.35 174.236 105.825 173.256 104.775C172.276 103.702 171.786 102.173 171.786 100.19V87.31C171.786 85.3267 172.276 83.81 173.256 82.76C174.236 81.6867 175.659 81.15 177.526 81.15C179.393 81.15 180.816 81.6867 181.796 82.76C182.776 83.81 183.266 85.3267 183.266 87.31V89.41H179.626V87.065C179.626 85.455 178.961 84.65 177.631 84.65C176.301 84.65 175.636 85.455 175.636 87.065V100.47C175.636 102.057 176.301 102.85 177.631 102.85C178.961 102.85 179.626 102.057 179.626 100.47V95.675H177.701V92.175H183.266V100.19C183.266 102.173 182.776 103.702 181.796 104.775C180.816 105.825 179.393 106.35 177.526 106.35Z" fill="#FF9312"/>
<path d="M185.738 81.5H191.443C193.426 81.5 194.873 81.9667 195.783 82.9C196.693 83.81 197.148 85.2217 197.148 87.135V88.64C197.148 91.1833 196.308 92.7933 194.628 93.47V93.54C195.561 93.82 196.214 94.3917 196.588 95.255C196.984 96.1183 197.183 97.2733 197.183 98.72V103.025C197.183 103.725 197.206 104.297 197.253 104.74C197.299 105.16 197.416 105.58 197.603 106H193.683C193.543 105.603 193.449 105.23 193.403 104.88C193.356 104.53 193.333 103.9 193.333 102.99V98.51C193.333 97.39 193.146 96.6083 192.773 96.165C192.423 95.7217 191.804 95.5 190.918 95.5H189.588V106H185.738V81.5ZM190.988 92C191.758 92 192.329 91.8017 192.703 91.405C193.099 91.0083 193.298 90.3433 193.298 89.41V87.52C193.298 86.6333 193.134 85.9917 192.808 85.595C192.504 85.1983 192.014 85 191.338 85H189.588V92H190.988Z" fill="#FF9312"/>
<path d="M202.829 81.5H208.044L212.034 106H208.184L207.484 101.135V101.205H203.109L202.409 106H198.839L202.829 81.5ZM207.029 97.88L205.314 85.77H205.244L203.564 97.88H207.029Z" fill="#FF9312"/>
<path d="M213.902 81.5H219.397L221.847 99.035H221.917L224.367 81.5H229.862V106H226.222V87.45H226.152L223.352 106H220.132L217.332 87.45H217.262V106H213.902V81.5Z" fill="#FF9312"/>
<path d="M33.3737 75.0737C33.3625 75.1075 33.3625 75.1525 33.3625 75.1862C33.2837 75.5912 33.25 76.0188 33.25 76.4238C33.25 77.8638 33.5988 79.2588 34.2625 80.485C34.465 80.8562 34.69 81.2162 34.9375 81.5537C35.185 81.8913 35.4663 82.2175 35.77 82.5213H35.7812C37.4125 84.1413 39.5725 85.0413 41.8 85.0413H41.8112C42.0475 85.0413 42.2837 85.03 42.52 85.0075C42.7113 84.9962 42.9025 84.9738 43.0938 84.94C43.1387 84.94 43.1725 84.94 43.2175 84.9287C45.0287 84.6588 46.6712 83.8263 47.965 82.5213L59.9463 70.5513L60.3625 70.9675C61.0262 71.6312 61.9487 72.0138 62.905 72.0138C63.85 72.0138 64.7725 71.6312 65.4362 70.9675C66.8425 69.5612 66.8425 67.2887 65.4362 65.8937L61.69 62.1362L76.315 47.5L77.89 49.075C78.1263 49.3112 78.4413 49.4237 78.7675 49.4012C79.105 49.3787 79.3975 49.21 79.6 48.9513L88.15 37.285C88.4762 36.8462 88.4313 36.2163 88.0375 35.8338L82.4688 30.265C82.075 29.8713 81.4562 29.8263 81.0062 30.1525L69.3512 38.7025C69.0925 38.905 68.9237 39.1975 68.9012 39.5238C68.8675 39.85 68.9912 40.1762 69.2275 40.4125L70.7913 41.9762L56.155 56.6012L52.4088 52.855C51.7225 52.1688 50.8563 51.82 49.8775 51.8088C48.9213 51.8088 47.9987 52.1912 47.335 52.8662C45.94 54.2612 45.94 56.5337 47.335 57.94L47.7513 58.3562L35.7812 70.3263C34.4762 71.6313 33.6437 73.2737 33.3737 75.0737ZM41.4963 82.7688C41.3162 82.7688 41.1475 82.7463 40.9787 82.7238C40.7875 82.7125 40.5962 82.6788 40.405 82.6225C40.2137 82.5775 40.0337 82.5325 39.8537 82.465C38.9312 82.1613 38.0763 81.6438 37.3675 80.935C36.94 80.5075 36.5913 80.0462 36.31 79.54C36.2088 79.3713 36.1188 79.1912 36.0513 79.0112C35.9837 78.865 35.9162 78.7075 35.8713 78.55C35.8488 78.5163 35.8375 78.4825 35.8262 78.4375C35.77 78.28 35.725 78.1225 35.6912 77.965C35.68 77.9313 35.68 77.9087 35.6688 77.8862C35.635 77.7512 35.6125 77.6162 35.59 77.47C35.5788 77.38 35.5563 77.29 35.5563 77.2C35.5338 77.0988 35.5225 76.9975 35.5225 76.8963C35.5112 76.8738 35.5112 76.84 35.5112 76.8063C35.5112 76.7838 35.5225 76.7613 35.5225 76.75C36.8838 77.2675 38.1213 78.0775 39.1675 79.135C40.2137 80.1813 41.0238 81.4187 41.5525 82.78C41.53 82.78 41.5187 82.78 41.4963 82.7688ZM40.405 72.4975L48.6625 64.24C49.1012 63.8012 49.81 63.8012 50.2487 64.24C50.6875 64.6787 50.6875 65.3988 50.2487 65.8375L41.9912 74.095C41.7775 74.3088 41.485 74.4212 41.1925 74.4212C40.9113 74.4212 40.6187 74.3088 40.405 74.095C39.9662 73.6562 39.9662 72.9363 40.405 72.4975ZM54.0513 69.64L45.7938 77.8975C45.58 78.1113 45.2875 78.2238 45.0062 78.2238C44.7137 78.2238 44.4212 78.1113 44.2075 77.8975C43.7687 77.4587 43.7687 76.75 44.2075 76.3L52.465 68.0537C52.9038 67.615 53.6125 67.615 54.0513 68.0537C54.49 68.4925 54.49 69.2012 54.0513 69.64ZM73.1763 42.7638C73.615 42.325 73.615 41.6163 73.1763 41.1775L71.7363 39.7487L81.5575 32.5375L85.765 36.7337L78.5537 46.555L77.1138 45.115C76.6863 44.6987 75.9438 44.6987 75.5275 45.115L60.0925 60.55L57.7412 58.1987L73.1763 42.7638ZM48.9212 54.4525C49.1688 54.205 49.5175 54.0588 49.8888 54.0588C50.26 54.0475 50.5638 54.1937 50.8225 54.4525L55.3112 58.9412C55.3225 58.9637 55.345 58.975 55.3563 58.9975L59.2938 62.935C59.3162 62.9575 59.3275 62.9687 59.35 62.98L63.85 67.48C64.3675 67.9975 64.3675 68.8525 63.85 69.37C63.355 69.865 62.4437 69.865 61.9487 69.37L60.8913 68.3237C60.8463 68.2675 60.8013 68.2113 60.745 68.155L50.1475 57.5462C50.0912 57.49 50.035 57.445 49.9675 57.4C49.9675 57.4 49.9562 57.4 49.9562 57.3888L48.9212 56.3425C48.4037 55.825 48.4037 54.97 48.9212 54.4525Z" fill="#FF9312"/>
<path d="M97.7125 76.3563C97.4987 76.1425 97.2063 76.0188 96.9137 76.0188C96.61 76.0188 96.3288 76.1425 96.115 76.3563L95.44 77.02L94.1237 75.7038L94.7987 75.0288C95.0125 74.815 95.125 74.5338 95.125 74.2412C95.125 73.9375 95.0125 73.6563 94.7987 73.4425L92.4812 71.125C92.0087 70.6525 91.3787 70.3938 90.715 70.3938C90.0512 70.3938 89.4212 70.6413 88.96 71.1138L87.2387 72.8237C86.2712 73.8025 86.2712 75.3888 87.2387 76.3563L88.06 77.1775L79.6 85.6488C79.3975 85.8512 79.285 86.1213 79.2738 86.4025L79.105 90.9025C79.0937 91.2175 79.2175 91.5212 79.4312 91.735C79.645 91.9488 79.9375 92.0612 80.23 92.0612H80.275L84.7525 91.87C85.0337 91.8587 85.2925 91.735 85.495 91.5438L93.955 83.0725L94.7875 83.905C95.26 84.3662 95.8787 84.625 96.5425 84.625H96.5537C97.2175 84.625 97.8362 84.3663 98.3087 83.8938L100.03 82.1838C100.491 81.7113 100.75 81.0925 100.75 80.4287C100.75 79.7537 100.491 79.135 100.03 78.6738L97.7125 76.3563ZM84.2125 89.6425L81.4 89.7663L81.5013 86.92L89.6575 78.775L92.3687 81.4863L84.2125 89.6425Z" fill="#FF9312"/>
<path d="M72.8613 80.3162L75.9212 83.6125C76.135 83.8375 76.4275 83.9725 76.7425 83.9725C77.0575 83.9725 77.3613 83.8375 77.575 83.6125L80.6012 80.305C80.7812 80.1025 80.8937 79.8325 80.8937 79.5513V67.5812H82.0638C83.4362 67.5812 84.55 66.4562 84.55 65.0837V62.6538C84.55 61.2812 83.4362 60.1675 82.0638 60.1675H78.79C78.16 60.1675 77.665 60.6737 77.665 61.2925V62.2487H75.7975V61.2925C75.7975 60.6737 75.2913 60.1675 74.6725 60.1675H71.3988C70.015 60.1675 68.9012 61.2812 68.9012 62.6538V65.0837C68.9012 66.4562 70.015 67.5812 71.3988 67.5812H72.5575V79.5513C72.5575 79.8325 72.6588 80.1025 72.8613 80.3162ZM78.6437 67.5812V79.1125L76.7425 81.1937L74.8075 79.1125V67.5812H78.6437Z" fill="#FF9312"/>
</svg>
