<svg width="44" height="44" viewBox="0 0 44 44" fill="none" xmlns="http://www.w3.org/2000/svg">
<g clip-path="url(#clip0_842_154)">
<path d="M39.0219 12.6654C35.235 5.77081 28.7445 1.5 21.9742 1.5C15.2039 1.5 8.71337 5.77081 4.92647 12.6654C1.96976 13.0427 -0.24556 15.5599 -0.25 18.5388V21.5C-0.25 23.6265 0.668979 25.6509 2.2672 27.0494C3.82103 35.702 11.6923 41.5 21.9742 41.5C32.2561 41.5 40.1274 35.702 41.6812 27.0494C43.2794 25.6465 44.1984 23.6265 44.1984 21.5V18.5388C44.194 15.5599 41.9786 13.0427 39.0219 12.6654ZM21.9742 2.9828C27.9498 2.9828 33.7211 6.64539 37.2905 12.6121H27.1595C25.4459 12.6121 23.8876 13.6021 23.1507 15.1471C22.4226 14.7297 21.5258 14.7297 20.7933 15.1471C20.0563 13.6021 18.4981 12.6121 16.7844 12.6121H6.65788C10.2272 6.64095 15.9986 2.9828 21.9742 2.9828ZM1.2328 21.5044V18.5433C1.2328 16.0882 3.2217 14.0993 5.67675 14.0993H16.7888C18.427 14.0993 19.75 15.4267 19.75 17.0605V20.0216C19.7456 24.1104 16.4292 27.4267 12.3405 27.4312H7.15511C3.88319 27.4312 1.2328 24.7764 1.22836 21.5044H1.2328ZM21.9742 40.0216C12.8732 40.0216 6.03191 35.4401 4.04745 28.2125C5.0197 28.6698 6.08518 28.9051 7.15954 28.9095H12.3449C17.2506 28.9051 21.2284 24.9273 21.2328 20.0216V17.0694C21.2328 16.803 21.3704 16.5588 21.6013 16.4256C21.8277 16.2925 22.1118 16.2925 22.3427 16.4212C22.5735 16.5499 22.7156 16.7941 22.7156 17.0605V20.0216C22.72 24.9273 26.6978 28.9051 31.6035 28.9095H36.7888C37.8632 28.9095 38.9287 28.6698 39.9009 28.2125C37.9165 35.4401 31.0752 40.0216 21.9742 40.0216ZM42.72 21.5044C42.72 24.7764 40.0652 27.4267 36.7933 27.4312H31.6079C27.5191 27.4267 24.2028 24.1104 24.1984 20.0216V17.0605C24.1984 15.4223 25.5258 14.0993 27.1595 14.0993H38.2716C40.7267 14.0993 42.7156 16.0882 42.7156 18.5433V21.5044H42.72Z" fill="#B67B60"/>
<path d="M3.45258 17.7974C3.64791 17.7974 3.83881 17.7175 3.97644 17.5799L4.71784 16.8385C4.99752 16.5499 4.99309 16.0838 4.70896 15.7996C4.42483 15.5155 3.96312 15.5111 3.67011 15.7908L2.92871 16.5322C2.71562 16.7453 2.65346 17.0605 2.76889 17.3402C2.88432 17.6154 3.15513 17.7974 3.45258 17.7974Z" fill="#B67B60"/>
<path d="M3.97637 20.5454L7.67893 16.8429C7.95862 16.5543 7.95418 16.0882 7.67005 15.804C7.38592 15.5199 6.92421 15.5155 6.6312 15.7952L2.92865 19.4977C2.73775 19.6842 2.65784 19.9594 2.72443 20.2169C2.79102 20.4744 2.99524 20.6786 3.25273 20.7452C3.51022 20.8118 3.78547 20.7363 3.97193 20.541L3.97637 20.5454Z" fill="#B67B60"/>
<path d="M26.4182 17.7974C26.6135 17.7974 26.8044 17.7175 26.942 17.5799L27.6834 16.8385C27.9631 16.5499 27.9587 16.0838 27.6745 15.7996C27.3904 15.5155 26.9287 15.5111 26.6357 15.7908L25.8943 16.5322C25.6812 16.7453 25.619 17.0605 25.7345 17.3402C25.8499 17.6154 26.1207 17.7974 26.4182 17.7974Z" fill="#B67B60"/>
<path d="M29.6013 15.7908L25.8987 19.4934C25.7078 19.6798 25.6279 19.9551 25.6945 20.2126C25.7611 20.4701 25.9653 20.6743 26.2228 20.7409C26.4803 20.8075 26.7556 20.732 26.942 20.5366L30.6446 16.8341C30.9243 16.5455 30.9198 16.0794 30.6357 15.7952C30.3516 15.5111 29.8899 15.5067 29.5969 15.7864L29.6013 15.7908Z" fill="#B67B60"/>
<path d="M25.9032 29.8641C24.7933 30.7564 23.3949 31.2048 21.9787 31.1338C20.5625 31.2093 19.164 30.7564 18.0586 29.8685C17.77 29.5888 17.3039 29.5933 17.0197 29.8774C16.7356 30.1615 16.7312 30.6232 17.0109 30.9162C18.396 32.0883 20.1673 32.692 21.9787 32.6166C23.79 32.6965 25.5614 32.0883 26.9465 30.9162C27.2173 30.6232 27.2084 30.1704 26.9287 29.8907C26.649 29.611 26.1962 29.5977 25.9032 29.8641Z" fill="#B67B60"/>
<path d="M22.7155 33.3535H21.2327C20.8243 33.3535 20.4913 33.6865 20.4913 34.0949C20.4913 34.5033 20.8243 34.8363 21.2327 34.8363H22.7155C23.124 34.8363 23.4569 34.5033 23.4569 34.0949C23.4569 33.6865 23.124 33.3535 22.7155 33.3535Z" fill="#B67B60"/>
<path d="M10.8621 11.8707C11.0575 11.8707 11.2439 11.7953 11.3815 11.6621C12.4914 10.7697 13.8854 10.3169 15.3061 10.3924C15.7145 10.3924 16.0475 10.0594 16.0475 9.65097C16.0475 9.24254 15.7145 8.90957 15.3061 8.90957C13.4948 8.82966 11.7234 9.43787 10.3383 10.6099C10.1252 10.823 10.063 11.1382 10.1784 11.4179C10.2939 11.6976 10.5647 11.8752 10.8621 11.8752V11.8707Z" fill="#B67B60"/>
<path d="M28.6423 10.3879C30.063 10.3124 31.4614 10.7653 32.5668 11.6576C32.8599 11.9373 33.3216 11.9329 33.6057 11.6443C33.8898 11.3557 33.8943 10.894 33.6101 10.6054C32.225 9.43341 30.4492 8.82964 28.6379 8.90511C28.2294 8.90511 27.8965 9.23808 27.8965 9.64651C27.8965 10.0549 28.2294 10.3879 28.6379 10.3879H28.6423Z" fill="#B67B60"/>
<path d="M7.68345 3.20038C7.39488 2.91181 6.92429 2.91181 6.63572 3.20038L6.41819 3.41791L6.20065 3.20038C6.01419 3.00948 5.73894 2.92957 5.48145 2.99616C5.22396 3.06275 5.01974 3.26697 4.95315 3.52446C4.88656 3.78195 4.96203 4.0572 5.15737 4.24366L5.3749 4.4612L5.15737 4.67873C4.96647 4.86519 4.88656 5.14044 4.95315 5.39794C5.01974 5.65543 5.22396 5.85964 5.48145 5.92624C5.73894 5.99283 6.01419 5.91736 6.20065 5.72202L6.41819 5.50448L6.63572 5.72202C6.92429 6.00171 7.39044 5.99727 7.67457 5.71314C7.9587 5.42901 7.96314 4.9673 7.68345 4.6743L7.46591 4.45676L7.68345 4.23922C7.97202 3.95065 7.97202 3.48007 7.68345 3.1915V3.20038Z" fill="#B67B60"/>
<path d="M1.45036 10.1748C1.73893 10.4633 2.20951 10.4633 2.49808 10.1748L2.71562 9.95722L2.93315 10.1748C3.11961 10.3657 3.39486 10.4456 3.65236 10.379C3.90985 10.3124 4.11406 10.1082 4.18066 9.85067C4.24725 9.59318 4.17178 9.31793 3.97644 9.13147L3.7589 8.91393L3.97644 8.6964C4.25613 8.40783 4.25169 7.94168 3.96756 7.65755C3.68343 7.37342 3.22172 7.36898 2.92872 7.64867L2.71118 7.86621L2.49364 7.64867C2.20507 7.36898 1.73893 7.37342 1.4548 7.65755C1.17067 7.94168 1.16623 8.40339 1.44592 8.6964L1.66345 8.91393L1.44592 9.13147C1.15735 9.42004 1.15735 9.89063 1.44592 10.1792L1.45036 10.1748Z" fill="#B67B60"/>
<path d="M38.7955 3.20031C38.5069 2.91174 38.0363 2.91174 37.7477 3.20031L37.5302 3.41785L37.3127 3.20031C37.0241 2.92062 36.558 2.92506 36.2738 3.20919C35.9897 3.49332 35.9853 3.95503 36.265 4.24804L36.4825 4.46557L36.265 4.68311C36.0741 4.86957 35.9941 5.14482 36.0607 5.40231C36.1273 5.6598 36.3315 5.86402 36.589 5.93061C36.8465 5.99721 37.1218 5.92173 37.3082 5.7264L37.5258 5.50886L37.7433 5.7264C38.0319 6.00608 38.498 6.00165 38.7822 5.71752C39.0663 5.43339 39.0707 4.97168 38.791 4.67867L38.5735 4.46113L38.791 4.2436C39.0796 3.95503 39.0796 3.48444 38.791 3.19587L38.7955 3.20031Z" fill="#B67B60"/>
<path d="M41.0197 7.64432C40.7311 7.36463 40.265 7.36907 39.9809 7.6532C39.6967 7.93733 39.6923 8.39904 39.972 8.69205L40.1895 8.90958L39.972 9.12712C39.7811 9.31358 39.7012 9.58883 39.7678 9.84632C39.8344 10.1038 40.0386 10.308 40.2961 10.3746C40.5536 10.4412 40.8288 10.3657 41.0153 10.1704L41.2328 9.95287L41.4503 10.1704C41.7389 10.4501 42.2051 10.4457 42.4892 10.1615C42.7733 9.8774 42.7778 9.41569 42.4981 9.12268L42.2805 8.90514L42.4981 8.68761C42.7778 8.39904 42.7733 7.93289 42.4892 7.64876C42.2051 7.36463 41.7433 7.36019 41.4503 7.63988L41.2328 7.85742L41.0153 7.63988L41.0197 7.64432Z" fill="#B67B60"/>
</g>
<defs>
<clipPath id="clip0_842_154">
<rect width="44" height="44" fill="white"/>
</clipPath>
</defs>
</svg>
