<svg width="44" height="44" viewBox="0 0 44 44" fill="none" xmlns="http://www.w3.org/2000/svg">
<path d="M42.2733 12.12C42.2666 11.7933 42.24 11.4666 42.2066 11.1466C42.1666 10.78 41.8466 10.52 41.4666 10.56C41.1 10.6 40.84 10.9333 40.88 11.3C40.9133 11.5866 40.9333 11.8733 40.94 12.1666C40.9466 12.3866 40.9466 12.6133 40.94 12.8333H38.5866C38.6066 12.7 38.62 12.56 38.62 12.42C38.62 11.0733 37.5266 9.97997 36.18 9.97997C34.8333 9.97997 33.74 11.0733 33.74 12.42C33.74 12.56 33.7533 12.7 33.7733 12.8333H30.5333V8.88663C30.5333 8.6333 30.3866 8.39997 30.1533 8.28663C29.92 8.1733 29.6466 8.20663 29.4466 8.36663C29.2533 8.51997 29.0133 8.60663 28.76 8.60663C28.1533 8.60663 27.6533 8.1133 27.6533 7.49997C27.6533 6.88663 28.1466 6.3933 28.76 6.3933C29.0133 6.3933 29.2466 6.4733 29.4466 6.6333C29.6466 6.7933 29.92 6.81997 30.1533 6.7133C30.38 6.59997 30.5266 6.36663 30.5266 6.1133V1.48663C35.0333 1.7533 38.9533 4.76663 40.38 9.10663C40.4933 9.4533 40.8733 9.64664 41.22 9.5333C41.5666 9.41997 41.76 9.03997 41.6466 8.6933C40.0133 3.6533 35.3533 0.213301 30.0866 0.133301C30.0333 0.133301 29.9866 0.133301 29.88 0.133301C29.5133 0.133301 29.2133 0.433301 29.2133 0.799967V5.0933C29.0733 5.06663 28.9266 5.0533 28.78 5.0533C27.4333 5.0533 26.34 6.14663 26.34 7.4933C26.34 8.83997 27.4333 9.9333 28.78 9.9333C28.9266 9.9333 29.0666 9.91997 29.2133 9.8933V13.5C29.2133 13.8666 29.5133 14.1666 29.88 14.1666H34.7866C35.04 14.1666 35.2733 14.02 35.3866 13.7933C35.5 13.5666 35.4733 13.2933 35.32 13.0933C35.1666 12.9 35.0933 12.6666 35.0933 12.42C35.0933 11.8133 35.5866 11.3133 36.2 11.3133C36.8133 11.3133 37.3066 11.8066 37.3066 12.42C37.3066 12.6666 37.2266 12.9 37.08 13.0933C36.9266 13.2933 36.9 13.5666 37.0133 13.7933C37.1266 14.02 37.36 14.1666 37.6133 14.1666H41.6C41.9466 14.1666 42.2333 13.9 42.2666 13.5533C42.28 13.0733 42.2933 12.5933 42.2733 12.12Z" fill="#B67B60"/>
<path d="M12.9066 4.96668L8.0666 9.80668L6.43993 8.18001C6.17993 7.92001 5.75993 7.92001 5.49993 8.18001C5.23993 8.44001 5.23993 8.86001 5.49993 9.12001L7.59327 11.2133C7.7266 11.3467 7.89327 11.4067 8.0666 11.4067C8.23993 11.4067 8.4066 11.34 8.53993 11.2133L13.8533 5.90001C14.1133 5.64001 14.1133 5.22001 13.8533 4.96001C13.5933 4.70001 13.1666 4.70668 12.9066 4.96668Z" fill="#B67B60"/>
<path d="M35.0466 18.1733H32.0666C32.0866 18.04 32.1 17.9 32.1 17.76C32.1 16.4133 31.0066 15.32 29.66 15.32C28.3133 15.32 27.22 16.4133 27.22 17.76C27.22 17.9 27.2333 18.04 27.2533 18.1733H24.0133V14.2266C24.0133 13.9733 23.8666 13.74 23.6333 13.6266C23.4 13.5133 23.1266 13.5466 22.9266 13.7066C22.7333 13.86 22.4933 13.9466 22.24 13.9466C21.6333 13.9466 21.1333 13.4533 21.1333 12.84C21.1333 12.2266 21.6266 11.7333 22.24 11.7333C22.4933 11.7333 22.7266 11.8133 22.9266 11.9733C23.1266 12.1333 23.4 12.1666 23.6333 12.0533C23.8666 11.94 24.0133 11.7066 24.0133 11.4533V6.14663C24.0133 5.77997 23.7133 5.47997 23.3466 5.47997C21.3066 5.47997 19.32 5.98663 17.5333 6.93997C16.9733 3.0933 13.6666 0.133301 9.6733 0.133301C5.28664 0.133301 1.71997 3.70663 1.71997 8.0933C1.71997 12.48 5.2933 16.0533 9.67997 16.0533C10.1733 16.0533 10.66 16 11.1266 15.9133C11.02 16.5733 10.9533 17.2333 10.9533 17.8733C10.9533 20.9 12.0533 23.8133 14.06 26.08C14.1933 26.2266 14.3733 26.3066 14.56 26.3066C14.72 26.3066 14.8733 26.2533 15 26.14C15.2733 25.8933 15.3 25.4733 15.06 25.2C13.2733 23.18 12.2933 20.58 12.2933 17.88C12.2933 17.1066 12.3866 16.3066 12.5666 15.5066C15.4333 14.3866 17.4866 11.6533 17.6266 8.42663C19.1666 7.48663 20.9 6.93997 22.6933 6.8333V10.44C22.5533 10.4133 22.4066 10.4 22.26 10.4C20.9133 10.4 19.82 11.4933 19.82 12.84C19.82 14.1866 20.9133 15.28 22.26 15.28C22.4066 15.28 22.5533 15.2666 22.6933 15.24V18.8466C22.6933 19.2133 22.9933 19.5133 23.36 19.5133H28.2666C28.52 19.5133 28.7533 19.3666 28.8666 19.14C28.98 18.9133 28.9533 18.64 28.8 18.44C28.6466 18.2466 28.5733 18.0133 28.5733 17.7666C28.5733 17.16 29.0666 16.66 29.68 16.66C30.2933 16.66 30.7866 17.1533 30.7866 17.7666C30.7866 18.0133 30.7066 18.2466 30.5533 18.44C30.4 18.64 30.3733 18.9133 30.4866 19.14C30.6 19.3666 30.8333 19.5133 31.0866 19.5133H34.3266C33.9466 22.12 32.6533 24.48 30.6466 26.2266C29.5866 27.1533 28.7466 28.2666 28.1533 29.5333C27.6533 30.6133 27.36 31.74 27.28 32.9066H19.4466C19.3 30.82 18.46 28.8066 17.0466 27.1866C16.8066 26.9066 16.38 26.88 16.1066 27.12C15.8266 27.36 15.8 27.78 16.04 28.06C17.24 29.44 17.96 31.1333 18.1066 32.9H17.7866C17.42 32.9 17.12 33.2 17.12 33.5666V40.7333C17.12 41.1 17.42 41.4 17.7866 41.4H19.6066C20.2466 42.8666 21.7066 43.86 23.34 43.86C24.9733 43.86 26.4333 42.8666 27.0733 41.4H28.8933C29.26 41.4 29.56 41.1 29.56 40.7333V33.5666C29.56 33.2 29.26 32.9 28.8933 32.9H28.6133C28.6933 31.9266 28.9333 30.9866 29.3466 30.0866C29.86 28.9933 30.58 28.0266 31.5066 27.2266C33.96 25.0866 35.46 22.1333 35.72 18.8933C35.7333 18.7066 35.6733 18.5266 35.5466 18.3866C35.42 18.2466 35.2333 18.1733 35.0466 18.1733ZM9.6733 14.72C6.01997 14.72 3.04664 11.7466 3.04664 8.0933C3.04664 4.43997 6.01997 1.46663 9.6733 1.46663C13.3266 1.46663 16.3 4.43997 16.3 8.0933C16.3 11.7466 13.3266 14.72 9.6733 14.72ZM27.9 34.2333H28.2133V36.4866H18.4466V34.2333H18.8H27.9ZM23.3333 42.5333C22.4466 42.5333 21.6266 42.0933 21.12 41.4066H25.5466C25.04 42.0933 24.22 42.5333 23.3333 42.5333ZM26.6066 40.0733H20.0533H18.4466V37.82H28.2133V40.0733H26.6066Z" fill="#B67B60"/>
</svg>
