<svg width="301" height="129" viewBox="0 0 301 129" fill="none" xmlns="http://www.w3.org/2000/svg">
<g clip-path="url(#clip0_1005_229)">
<rect x="4" y="4" width="293" height="121" stroke="#FF9312" stroke-width="8"/>
<path d="M130.359 25.4H144.759V30.2H135.639V39.08H142.887V43.88H135.639V54.2H144.759V59H130.359V25.4ZM151.876 25.4H159.028L164.5 59H159.22L158.26 52.328V52.424H152.26L151.3 59H146.404L151.876 25.4ZM157.636 47.864L155.284 31.256H155.188L152.884 47.864H157.636ZM173.785 59.48C171.225 59.48 169.289 58.76 167.977 57.32C166.665 55.848 166.009 53.752 166.009 51.032V49.112H171.001V51.416C171.001 53.592 171.913 54.68 173.737 54.68C174.633 54.68 175.305 54.424 175.753 53.912C176.233 53.368 176.473 52.504 176.473 51.32C176.473 49.912 176.153 48.68 175.513 47.624C174.873 46.536 173.689 45.24 171.961 43.736C169.785 41.816 168.265 40.088 167.401 38.552C166.537 36.984 166.105 35.224 166.105 33.272C166.105 30.616 166.777 28.568 168.121 27.128C169.465 25.656 171.417 24.92 173.977 24.92C176.505 24.92 178.409 25.656 179.689 27.128C181.001 28.568 181.657 30.648 181.657 33.368V34.76H176.665V33.032C176.665 31.88 176.441 31.048 175.993 30.536C175.545 29.992 174.889 29.72 174.025 29.72C172.265 29.72 171.385 30.792 171.385 32.936C171.385 34.152 171.705 35.288 172.345 36.344C173.017 37.4 174.217 38.68 175.945 40.184C178.153 42.104 179.673 43.848 180.505 45.416C181.337 46.984 181.753 48.824 181.753 50.936C181.753 53.688 181.065 55.8 179.689 57.272C178.345 58.744 176.377 59.48 173.785 59.48ZM189.347 44.696L182.963 25.4H188.579L192.179 37.736H192.275L195.875 25.4H201.011L194.627 44.696V59H189.347V44.696ZM211.077 25.4H225.477V30.2H216.357V39.08H223.605V43.88H216.357V54.2H225.477V59H211.077V25.4ZM228.515 25.4H236.051L239.411 49.448H239.507L242.867 25.4H250.403V59H245.411V33.56H245.315L241.475 59H237.059L233.219 33.56H233.123V59H228.515V25.4ZM254.343 25.4H259.623V59H254.343V25.4ZM143.545 100.48C140.953 100.48 138.969 99.744 137.593 98.272C136.217 96.8 135.529 94.72 135.529 92.032V74.368C135.529 71.68 136.217 69.6 137.593 68.128C138.969 66.656 140.953 65.92 143.545 65.92C146.137 65.92 148.121 66.656 149.497 68.128C150.873 69.6 151.561 71.68 151.561 74.368V92.032C151.561 94.72 150.873 96.8 149.497 98.272C148.121 99.744 146.137 100.48 143.545 100.48ZM143.545 95.68C145.369 95.68 146.281 94.576 146.281 92.368V74.032C146.281 71.824 145.369 70.72 143.545 70.72C141.721 70.72 140.809 71.824 140.809 74.032V92.368C140.809 94.576 141.721 95.68 143.545 95.68ZM155.132 66.4H162.908C165.532 66.4 167.5 67.104 168.812 68.512C170.124 69.92 170.78 71.984 170.78 74.704V78.016C170.78 80.736 170.124 82.8 168.812 84.208C167.5 85.616 165.532 86.32 162.908 86.32H160.412V100H155.132V66.4ZM162.908 81.52C163.772 81.52 164.412 81.28 164.828 80.8C165.276 80.32 165.5 79.504 165.5 78.352V74.368C165.5 73.216 165.276 72.4 164.828 71.92C164.412 71.44 163.772 71.2 162.908 71.2H160.412V81.52H162.908ZM177.869 71.2H172.349V66.4H188.669V71.2H183.149V100H177.869V71.2ZM191.226 66.4H196.506V100H191.226V66.4ZM208.092 100.48C205.5 100.48 203.516 99.744 202.14 98.272C200.764 96.8 200.076 94.72 200.076 92.032V74.368C200.076 71.68 200.764 69.6 202.14 68.128C203.516 66.656 205.5 65.92 208.092 65.92C210.684 65.92 212.668 66.656 214.044 68.128C215.42 69.6 216.108 71.68 216.108 74.368V92.032C216.108 94.72 215.42 96.8 214.044 98.272C212.668 99.744 210.684 100.48 208.092 100.48ZM208.092 95.68C209.916 95.68 210.828 94.576 210.828 92.368V74.032C210.828 71.824 209.916 70.72 208.092 70.72C206.268 70.72 205.356 71.824 205.356 74.032V92.368C205.356 94.576 206.268 95.68 208.092 95.68ZM219.679 66.4H226.303L231.439 86.512H231.535V66.4H236.239V100H230.815L224.479 75.472H224.383V100H219.679V66.4ZM247.027 100.48C244.467 100.48 242.531 99.76 241.219 98.32C239.907 96.848 239.251 94.752 239.251 92.032V90.112H244.243V92.416C244.243 94.592 245.155 95.68 246.979 95.68C247.875 95.68 248.547 95.424 248.995 94.912C249.475 94.368 249.715 93.504 249.715 92.32C249.715 90.912 249.395 89.68 248.755 88.624C248.115 87.536 246.931 86.24 245.203 84.736C243.027 82.816 241.507 81.088 240.643 79.552C239.779 77.984 239.347 76.224 239.347 74.272C239.347 71.616 240.019 69.568 241.363 68.128C242.707 66.656 244.659 65.92 247.219 65.92C249.747 65.92 251.651 66.656 252.931 68.128C254.243 69.568 254.899 71.648 254.899 74.368V75.76H249.907V74.032C249.907 72.88 249.683 72.048 249.235 71.536C248.787 70.992 248.131 70.72 247.267 70.72C245.507 70.72 244.627 71.792 244.627 73.936C244.627 75.152 244.947 76.288 245.587 77.344C246.259 78.4 247.459 79.68 249.187 81.184C251.395 83.104 252.915 84.848 253.747 86.416C254.579 87.984 254.995 89.824 254.995 91.936C254.995 94.688 254.307 96.8 252.931 98.272C251.587 99.744 249.619 100.48 247.027 100.48Z" fill="#FF9312"/>
<circle cx="265" cy="68" r="3" fill="#FF9312"/>
<path d="M77.9699 38.3743V29H55.9579C53.0964 29 50.7961 31.358 50.7961 34.219V78.1285C50.7961 80.99 53.0969 83.3475 55.9579 83.3475H87.4735C90.3351 83.3475 92.6353 80.9895 92.6353 78.1285V44.3842H84.0661C80.7307 44.3842 77.9699 41.6954 77.9699 38.3743ZM69.214 49.5603H65.8787C65.2458 49.5603 64.728 49.0424 64.728 48.4101C64.728 47.7773 65.2458 47.2595 65.8787 47.2595H77.5533C78.1856 47.2595 78.7034 47.7773 78.7034 48.4101C78.7034 49.0424 78.1856 49.5603 77.5533 49.5603H74.016C74.6345 50.279 75.0802 51.2855 75.2668 52.2919H77.5528C78.1856 52.2919 78.7034 52.8092 78.7034 53.4421C78.7034 54.0749 78.1856 54.5922 77.5528 54.5922H75.2668C74.7204 57.3239 72.2187 59.4805 69.214 59.4805H68.7683L75.0225 65.4188C75.4825 65.8502 75.5111 66.6118 75.0654 67.0719C74.8354 67.3162 74.5338 67.4318 74.2317 67.4318C73.9439 67.4318 73.6709 67.3311 73.4409 67.1153L65.0874 59.2219C64.7423 58.8911 64.6273 58.3881 64.8144 57.9424C65.001 57.4967 65.4181 57.1946 65.8782 57.1946H69.214C70.9392 57.1946 72.4058 56.0444 72.8945 54.6065H65.8638C65.231 54.6065 64.7137 54.0892 64.7137 53.4564C64.7137 52.8236 65.231 52.3063 65.8638 52.3063H72.8945C72.4058 50.7104 70.9392 49.5603 69.214 49.5603ZM84.6989 75.2961C84.6989 75.9289 84.1811 76.4462 83.5488 76.4462H59.8827C59.2503 76.4462 58.7325 75.9289 58.7325 75.2961C58.7325 74.6638 59.2503 74.146 59.8827 74.146H83.5631C84.1954 74.146 84.6989 74.6638 84.6989 75.2961Z" fill="#FF9312"/>
<path d="M84.0661 42.0839H91.1253L80.2706 30.7686V38.3743C80.2706 40.4303 81.9958 42.0839 84.0661 42.0839Z" fill="#FF9312"/>
<path d="M48.4958 78.1285V35.499C46.1951 36.0163 44.4699 38.0865 44.4699 40.5453V84.4547C44.4699 87.3157 46.7706 89.6737 49.6317 89.6737H81.1473C83.606 89.6737 85.6619 87.9485 86.1941 85.6483H55.9579C51.8312 85.6483 48.4958 82.2551 48.4958 78.1285Z" fill="#FF9312"/>
<path d="M42.1696 84.4547V41.7961C39.7252 42.2705 38 44.3698 38 46.8715V90.781C38 93.642 40.3003 96 43.1618 96H74.6774C77.1362 96 79.1921 94.2748 79.7242 91.974H49.6317C45.505 91.974 42.1696 88.5809 42.1696 84.4547Z" fill="#FF9312"/>
</g>
<defs>
<clipPath id="clip0_1005_229">
<rect width="301" height="129" fill="white"/>
</clipPath>
</defs>
</svg>
