<svg width="303" height="129" viewBox="0 0 303 129" fill="none" xmlns="http://www.w3.org/2000/svg">
<path d="M290.688 12.2782V116.722H12.3121V12.2782H290.688ZM303 0H0V129H303V0Z" fill="#FF9312"/>
<path d="M126.968 25.4H141.368V30.2H132.248V39.08H139.496V43.88H132.248V54.2H141.368V59H126.968V25.4Z" fill="#FF9312"/>
<path d="M148.486 25.4H155.637L161.109 59H155.829L154.87 52.328V52.424H148.87L147.91 59H143.014L148.486 25.4ZM154.245 47.864L151.893 31.256H151.798L149.493 47.864H154.245Z" fill="#FF9312"/>
<path d="M170.395 59.48C167.835 59.48 165.898 58.76 164.587 57.32C163.275 55.848 162.618 53.752 162.618 51.032V49.112H167.611V51.416C167.611 53.592 168.522 54.68 170.346 54.68C171.242 54.68 171.915 54.424 172.363 53.912C172.842 53.368 173.083 52.504 173.083 51.32C173.083 49.912 172.762 48.68 172.122 47.624C171.482 46.536 170.298 45.24 168.57 43.736C166.395 41.816 164.874 40.088 164.01 38.552C163.146 36.984 162.714 35.224 162.714 33.272C162.714 30.616 163.387 28.568 164.73 27.128C166.074 25.656 168.027 24.92 170.587 24.92C173.115 24.92 175.019 25.656 176.299 27.128C177.611 28.568 178.266 30.648 178.266 33.368V34.76H173.275V33.032C173.275 31.88 173.05 31.048 172.602 30.536C172.154 29.992 171.499 29.72 170.635 29.72C168.875 29.72 167.995 30.792 167.995 32.936C167.995 34.152 168.314 35.288 168.954 36.344C169.626 37.4 170.827 38.68 172.555 40.184C174.762 42.104 176.283 43.848 177.115 45.416C177.947 46.984 178.363 48.824 178.363 50.936C178.363 53.688 177.675 55.8 176.299 57.272C174.955 58.744 172.986 59.48 170.395 59.48Z" fill="#FF9312"/>
<path d="M185.957 44.696L179.573 25.4H185.189L188.789 37.736H188.885L192.485 25.4H197.621L191.237 44.696V59H185.957V44.696Z" fill="#FF9312"/>
<path d="M207.687 25.4H222.087V30.2H212.967V39.08H220.215V43.88H212.967V54.2H222.087V59H207.687V25.4Z" fill="#FF9312"/>
<path d="M225.124 25.4H232.66L236.02 49.448H236.116L239.476 25.4H247.012V59H242.02V33.56H241.924L238.084 59H233.668L229.828 33.56H229.732V59H225.124V25.4Z" fill="#FF9312"/>
<path d="M250.952 25.4H256.232V59H250.952V25.4Z" fill="#FF9312"/>
<path d="M134.6 100.48C132.008 100.48 130.024 99.744 128.648 98.272C127.272 96.8 126.584 94.72 126.584 92.032V74.368C126.584 71.68 127.272 69.6 128.648 68.128C130.024 66.656 132.008 65.92 134.6 65.92C137.192 65.92 139.176 66.656 140.552 68.128C141.928 69.6 142.616 71.68 142.616 74.368V92.032C142.616 94.72 141.928 96.8 140.552 98.272C139.176 99.744 137.192 100.48 134.6 100.48ZM134.6 95.68C136.424 95.68 137.336 94.576 137.336 92.368V74.032C137.336 71.824 136.424 70.72 134.6 70.72C132.776 70.72 131.864 71.824 131.864 74.032V92.368C131.864 94.576 132.776 95.68 134.6 95.68Z" fill="#FF9312"/>
<path d="M146.187 66.4H153.963C156.587 66.4 158.555 67.104 159.867 68.512C161.179 69.92 161.835 71.984 161.835 74.704V78.016C161.835 80.736 161.179 82.8 159.867 84.208C158.555 85.616 156.587 86.32 153.963 86.32H151.467V100H146.187V66.4ZM153.963 81.52C154.827 81.52 155.467 81.28 155.883 80.8C156.331 80.32 156.555 79.504 156.555 78.352V74.368C156.555 73.216 156.331 72.4 155.883 71.92C155.467 71.44 154.827 71.2 153.963 71.2H151.467V81.52H153.963Z" fill="#FF9312"/>
<path d="M168.924 71.2H163.404V66.4H179.724V71.2H174.204V100H168.924V71.2Z" fill="#FF9312"/>
<path d="M182.281 66.4H187.561V100H182.281V66.4Z" fill="#FF9312"/>
<path d="M199.147 100.48C196.555 100.48 194.571 99.744 193.195 98.272C191.819 96.8 191.131 94.72 191.131 92.032V74.368C191.131 71.68 191.819 69.6 193.195 68.128C194.571 66.656 196.555 65.92 199.147 65.92C201.739 65.92 203.723 66.656 205.099 68.128C206.475 69.6 207.163 71.68 207.163 74.368V92.032C207.163 94.72 206.475 96.8 205.099 98.272C203.723 99.744 201.739 100.48 199.147 100.48ZM199.147 95.68C200.971 95.68 201.883 94.576 201.883 92.368V74.032C201.883 71.824 200.971 70.72 199.147 70.72C197.323 70.72 196.411 71.824 196.411 74.032V92.368C196.411 94.576 197.323 95.68 199.147 95.68Z" fill="#FF9312"/>
<path d="M210.734 66.4H217.358L222.494 86.512H222.59V66.4H227.294V100H221.87L215.534 75.472H215.438V100H210.734V66.4Z" fill="#FF9312"/>
<path d="M238.082 100.48C235.522 100.48 233.586 99.76 232.274 98.32C230.962 96.848 230.306 94.752 230.306 92.032V90.112H235.298V92.416C235.298 94.592 236.21 95.68 238.034 95.68C238.93 95.68 239.602 95.424 240.05 94.912C240.53 94.368 240.77 93.504 240.77 92.32C240.77 90.912 240.45 89.68 239.81 88.624C239.17 87.536 237.986 86.24 236.258 84.736C234.082 82.816 232.562 81.088 231.698 79.552C230.834 77.984 230.402 76.224 230.402 74.272C230.402 71.616 231.074 69.568 232.418 68.128C233.762 66.656 235.714 65.92 238.274 65.92C240.802 65.92 242.706 66.656 243.986 68.128C245.298 69.568 245.954 71.648 245.954 74.368V75.76H240.962V74.032C240.962 72.88 240.738 72.048 240.29 71.536C239.842 70.992 239.186 70.72 238.322 70.72C236.562 70.72 235.682 71.792 235.682 73.936C235.682 75.152 236.002 76.288 236.642 77.344C237.314 78.4 238.514 79.68 240.242 81.184C242.45 83.104 243.97 84.848 244.802 86.416C245.634 87.984 246.05 89.824 246.05 91.936C246.05 94.688 245.362 96.8 243.986 98.272C242.642 99.744 240.674 100.48 238.082 100.48Z" fill="#FF9312"/>
<path d="M256 68C256 69.6569 254.657 71 253 71C251.343 71 250 69.6569 250 68C250 66.3431 251.343 65 253 65C254.657 65 256 66.3431 256 68Z" fill="#FF9312"/>
<path d="M80.1203 39.3743V30H58.1083C55.2468 30 52.9465 32.358 52.9465 35.219V79.1285C52.9465 81.99 55.2473 84.3475 58.1083 84.3475H89.6239C92.4854 84.3475 94.7857 81.9895 94.7857 79.1285V45.3842H86.2165C82.8811 45.3842 80.1203 42.6954 80.1203 39.3743ZM71.3644 50.5603H68.0291C67.3962 50.5603 66.8784 50.0424 66.8784 49.4101C66.8784 48.7773 67.3962 48.2595 68.0291 48.2595H79.7037C80.336 48.2595 80.8538 48.7773 80.8538 49.4101C80.8538 50.0424 80.336 50.5603 79.7037 50.5603H76.1664C76.7849 51.279 77.2306 52.2855 77.4172 53.2919H79.7031C80.336 53.2919 80.8538 53.8092 80.8538 54.4421C80.8538 55.0749 80.336 55.5922 79.7031 55.5922H77.4172C76.8708 58.3239 74.3691 60.4805 71.3644 60.4805H70.9187L77.1729 66.4188C77.6329 66.8502 77.6615 67.6118 77.2158 68.0719C76.9858 68.3162 76.6842 68.4318 76.3821 68.4318C76.0943 68.4318 75.8213 68.3311 75.5913 68.1153L67.2378 60.2219C66.8927 59.8911 66.7777 59.3881 66.9648 58.9424C67.1514 58.4967 67.5685 58.1946 68.0285 58.1946H71.3644C73.0896 58.1946 74.5562 57.0444 75.0449 55.6065H68.0142C67.3814 55.6065 66.8641 55.0892 66.8641 54.4564C66.8641 53.8236 67.3814 53.3063 68.0142 53.3063H75.0449C74.5562 51.7104 73.0896 50.5603 71.3644 50.5603ZM86.8493 76.2961C86.8493 76.9289 86.3315 77.4462 85.6992 77.4462H62.033C61.4007 77.4462 60.8829 76.9289 60.8829 76.2961C60.8829 75.6638 61.4007 75.146 62.033 75.146H85.7135C86.3458 75.146 86.8493 75.6638 86.8493 76.2961Z" fill="#FF9312"/>
<path d="M86.2165 43.0839H93.2757L82.421 31.7686V39.3743C82.421 41.4303 84.1462 43.0839 86.2165 43.0839Z" fill="#FF9312"/>
<path d="M50.6462 79.1285V36.499C48.3455 37.0163 46.6203 39.0865 46.6203 41.5453V85.4547C46.6203 88.3157 48.921 90.6738 51.782 90.6738H83.2977C85.7564 90.6738 87.8123 88.9486 88.3445 86.6483H58.1083C53.9816 86.6483 50.6462 83.2552 50.6462 79.1285Z" fill="#FF9312"/>
<path d="M44.32 85.4547V42.7961C41.8756 43.2705 40.1504 45.3698 40.1504 47.8715V91.781C40.1504 94.642 42.4507 97 45.3122 97H76.8278C79.2865 97 81.3425 95.2748 81.8746 92.974H51.7821C47.6554 92.974 44.32 89.5809 44.32 85.4547Z" fill="#FF9312"/>
</svg>
