<svg width="42" height="42" viewBox="0 0 42 42" fill="none" xmlns="http://www.w3.org/2000/svg">
<path d="M5.91278e-05 5.23477C5.91278e-05 2.37194 2.29032 -0.000110149 5.23494 -0.000110149H28.7919C31.6547 -0.000110149 34.0268 2.37194 34.0268 5.23477V10.4696C34.0268 13.4143 31.6547 15.7045 28.7919 15.7045H5.23494C2.29032 15.7045 5.91278e-05 13.4143 5.91278e-05 10.4696V5.23477ZM13.0873 28.7917C13.0873 27.4012 14.2324 26.1743 15.7047 26.1743V24.8656C15.7047 21.2666 18.5675 18.322 22.2483 18.322H34.0268C35.4173 18.322 36.6442 17.1768 36.6442 15.7045V5.72554C39.6706 6.78887 41.8791 9.73349 41.8791 13.0871V15.7045C41.8791 20.0397 38.3619 23.5568 34.0268 23.5568H22.2483C21.5121 23.5568 20.9396 24.2112 20.9396 24.8656V26.1743C22.3301 26.1743 23.557 27.4012 23.557 28.7917V39.2615C23.557 40.7338 22.3301 41.8789 20.9396 41.8789H15.7047C14.2324 41.8789 13.0873 40.7338 13.0873 39.2615V28.7917Z" fill="#A3B18A"/>
</svg>
