<svg width="47" height="40" viewBox="0 0 47 40" fill="none" xmlns="http://www.w3.org/2000/svg">
<path d="M21.8844 39.6324C22.325 39.6324 22.6187 39.3382 22.6187 38.8971V31.6176C22.6187 31.1765 22.325 30.8823 21.8844 30.8823C19.6078 30.8823 17.3313 30.2941 15.3484 29.1912C15.0547 29.0441 14.6875 29.0441 14.4672 29.3382L12.7047 31.0294C11.0891 29.9265 9.69375 28.5294 8.51875 26.9118L10.3547 25.0735C10.575 24.8529 10.6484 24.4853 10.5016 24.1912C9.4 22.2059 8.8125 20 8.8125 17.7206C8.8125 17.2794 8.51875 16.9853 8.07812 16.9853H0.734375C0.29375 16.9853 0 17.2794 0 17.7206C0 29.8529 9.84062 39.6324 21.8844 39.6324ZM7.27031 18.4559C7.34375 20.5882 7.93125 22.5735 8.88594 24.4853L7.05 26.3235C6.82969 26.5441 6.75625 26.9118 6.97656 27.2059C8.37188 29.3382 10.2078 31.25 12.4109 32.6471C12.7047 32.7941 13.0719 32.7941 13.2922 32.5735L15.1281 30.7353C16.9641 31.6912 19.0203 32.2794 21.15 32.3529V38.1618C10.5016 37.7206 1.83594 29.1912 1.46875 18.4559H7.27031Z" fill="#B67B60"/>
<path d="M19.6078 5.07353C19.1672 5.07353 18.8734 5.36765 18.8734 5.80882C18.8734 6.25 19.1672 6.54412 19.6078 6.54412C24.3078 6.54412 28.0531 10.3676 28.0531 15C28.0531 15.4412 28.3469 15.7353 28.7875 15.7353C29.2281 15.7353 29.5219 15.4412 29.5219 15C29.5219 9.55882 25.0422 5.07353 19.6078 5.07353Z" fill="#B67B60"/>
<path d="M19.6078 10.2206C19.1672 10.2206 18.8734 10.5147 18.8734 10.9559C18.8734 11.3971 19.1672 11.6912 19.6078 11.6912C21.4438 11.6912 22.9859 13.2353 22.9859 15.0735C22.9859 15.5147 23.2797 15.8088 23.7203 15.8088C24.1609 15.8088 24.4547 15.5147 24.4547 15.0735C24.3813 12.3529 22.2516 10.2206 19.6078 10.2206Z" fill="#B67B60"/>
<path d="M31.5047 6.02941H41.4188C41.8594 6.02941 42.1531 5.73529 42.1531 5.29412C42.1531 4.85294 41.8594 4.55882 41.4188 4.55882H31.5047C31.0641 4.55882 30.7703 4.85294 30.7703 5.29412C30.7703 5.66176 31.0641 6.02941 31.5047 6.02941Z" fill="#B67B60"/>
<path d="M41.3453 9.70588H33.7078C33.2672 9.70588 32.9734 10 32.9734 10.4412C32.9734 10.8824 33.2672 11.1765 33.7078 11.1765H41.3453C41.7859 11.1765 42.0797 10.8824 42.0797 10.4412C42.0797 10.0735 41.7859 9.70588 41.3453 9.70588Z" fill="#B67B60"/>
<path d="M41.3453 14.8529H38.775C38.3344 14.8529 38.0406 15.1471 38.0406 15.5882C38.0406 16.0294 38.3344 16.3235 38.775 16.3235H41.3453C41.7859 16.3235 42.0797 16.0294 42.0797 15.5882C42.0797 15.2206 41.7859 14.8529 41.3453 14.8529Z" fill="#B67B60"/>
<path d="M47 28.0147C47 26.5441 45.825 25.3676 44.3563 25.3676C43.9156 25.3676 43.4016 25.5147 43.0344 25.7353C42.6672 24.7794 41.7125 24.1176 40.6109 24.1176C40.1703 24.1176 39.7297 24.2647 39.2891 24.4853C38.9219 23.4559 37.9672 22.7206 36.7922 22.7206C36.3516 22.7206 35.9844 22.7941 35.6172 23.0147V21.0294H44.7969C46.0453 21.0294 47 20.0735 47 18.8235V2.20588C47 0.955882 46.0453 0 44.7969 0H16.8172C15.5687 0 14.6141 1.02941 14.6141 2.20588V18.75C14.6141 20 15.6422 20.9559 16.8172 20.9559H20.5625V24.0441C20.5625 24.7059 21.2969 25 21.7375 24.6324L26.0703 21.0294H30.4031V28.6029L29.375 27.5C28.0531 26.1029 25.85 25.9559 24.3813 27.2794C23.4266 28.1618 23.3531 29.7059 24.2344 30.6618L31.3578 38.0147C32.1656 39.2647 33.5609 40 35.1031 40H42.9609C46.3391 39.4853 47 36.3235 46.9266 34.7794V28.0147H47ZM25.85 19.5588C25.7031 19.5588 25.4828 19.6324 25.4094 19.7059L22.0312 22.5V20.2941C22.0312 19.8529 21.7375 19.5588 21.2969 19.5588H16.8172C16.3766 19.5588 16.0828 19.2647 16.0828 18.8235V2.20588C16.0828 1.76471 16.45 1.47059 16.8172 1.47059H44.7969C45.2375 1.47059 45.5312 1.83824 45.5312 2.20588V18.75C45.5312 19.1912 45.2375 19.4853 44.7969 19.4853H35.6906V17.5C35.6906 16.0294 34.5156 14.8529 33.0469 14.8529C31.5781 14.8529 30.4031 16.0294 30.4031 17.5V19.4853H25.85V19.5588ZM42.8141 38.5294H35.1766C34.1484 38.5294 33.1938 38.0147 32.6063 37.1324C32.6063 37.0588 32.5328 37.0588 32.5328 36.9853L25.4094 29.6324C25.0422 29.2647 25.1156 28.6765 25.4828 28.3088C26.2906 27.5735 27.6125 27.5735 28.3469 28.4559L30.6234 30.9559C31.0641 31.4706 31.8719 31.1029 31.8719 30.4412C31.8719 27.5735 31.8719 20.3676 31.8719 17.5C31.8719 16.8382 32.3859 16.3235 33.0469 16.3235C33.7078 16.3235 34.2219 16.8382 34.2219 17.5V26.7647C34.2219 27.7206 35.6906 27.7206 35.6906 26.7647C35.7641 26.3235 35.25 24.1176 36.8656 24.1176C37.5266 24.1176 38.0406 24.6324 38.0406 25.2941V26.7647C38.0406 27.7206 39.5094 27.7206 39.5094 26.7647C39.5094 26.1029 40.0234 25.5882 40.6844 25.5882C41.3453 25.5882 41.8594 26.1029 41.8594 26.7647V28.0147C41.8594 28.9706 43.3281 28.9706 43.3281 28.0147C43.3281 27.4265 43.6953 26.9118 44.2094 26.8382C44.9438 26.6912 45.6047 27.2794 45.6047 27.9412V34.7794C45.5312 35 45.6781 38.0147 42.8141 38.5294Z" fill="#B67B60"/>
</svg>
