<svg width="44" height="44" viewBox="0 0 44 44" fill="none" xmlns="http://www.w3.org/2000/svg">
<path d="M28.5656 33.5586C28.4023 33.275 28.4968 32.9055 28.7804 32.7422C29.064 32.5703 29.4336 32.6734 29.6054 32.957L31.2898 35.8789L37.2453 29.9234C37.4773 29.6914 37.8554 29.6914 38.0961 29.9234C38.3281 30.1641 38.3281 30.5422 38.0961 30.7742L31.5906 37.2797C31.3156 37.5547 30.8429 37.5031 30.6453 37.1594L28.5656 33.5586ZM33.3781 24.5953C35.157 24.5953 36.8156 25.1023 38.2164 25.9875C39.6343 20.7023 38.5859 14.9961 35.3117 10.5617C35.114 10.2953 35.1742 9.91719 35.432 9.71953C35.6984 9.52188 36.0765 9.58203 36.2742 9.83985C39.8664 14.6953 40.9492 20.9773 39.2476 26.7352C43.3125 30.1727 43.5789 36.3516 39.8062 40.1242C36.0765 43.8539 29.975 43.6391 26.5117 39.6688C24.0539 40.4336 21.4672 40.6914 18.9148 40.4508C16.5945 40.2273 14.3086 39.5828 12.1687 38.5172L13.2515 40.4852C13.4062 40.7773 13.3031 41.1383 13.0109 41.3016C12.7187 41.4563 12.3578 41.3531 12.1945 41.0609L10.089 37.2281C9.87418 36.8328 10.1492 36.3086 10.6648 36.343L14.9961 36.4289C15.3312 36.4375 15.589 36.7125 15.589 37.0391C15.5804 37.3742 15.3054 37.632 14.9789 37.6234L13.0023 37.5805C14.9273 38.5 16.964 39.05 19.0351 39.2562C21.2867 39.4711 23.564 39.2648 25.7468 38.6461C24.389 36.5578 23.9336 33.9797 24.5437 31.5047C24.1398 31.6508 23.7273 31.7797 23.3148 31.8742V33.9023C23.3148 34.2375 23.0484 34.5039 22.7132 34.5039H18.8547C18.5195 34.5039 18.2531 34.2375 18.2531 33.9023V31.8828C17.1359 31.6164 16.0617 31.1695 15.082 30.568L13.6468 32.0031C13.4148 32.2438 13.0281 32.2438 12.7961 32.0031L10.0547 29.2703C9.82262 29.0383 9.82262 28.6516 10.0547 28.4195L11.4898 26.9844C10.8882 26.0047 10.4414 24.9391 10.175 23.8133H8.15543C7.82028 23.8133 7.55387 23.5469 7.55387 23.2117V19.3531C7.55387 19.018 7.82028 18.7516 8.15543 18.7516H10.1836C10.45 17.6258 10.8968 16.5602 11.4984 15.5805L10.0547 14.1453C9.82262 13.9133 9.82262 13.5266 10.0547 13.2945L12.7875 10.5617C13.0195 10.3297 13.4062 10.3297 13.6382 10.5617L15.0734 11.9969C16.0531 11.3953 17.1187 10.9484 18.2445 10.682V8.65391C18.2445 8.31875 18.5109 8.05235 18.8461 8.05235H22.7047C23.0398 8.05235 23.3062 8.31875 23.3062 8.65391V10.682C24.432 10.9484 25.4976 11.3953 26.4773 11.9969L27.9125 10.5617C28.1445 10.3297 28.5312 10.3297 28.7632 10.5617L31.4961 13.2945C31.7281 13.5266 31.7281 13.9047 31.4961 14.1453L30.0609 15.5805C30.6625 16.5516 31.1093 17.6258 31.3757 18.7516H33.4039C33.739 18.7516 34.0054 19.018 34.0054 19.3531V23.2117C34.0054 23.5555 33.7304 23.8219 33.3523 23.8047H31.3757L31.0578 24.8789C31.7968 24.6984 32.5789 24.5953 33.3781 24.5953ZM25.0679 29.9836C25.5234 28.9609 26.1593 28.0414 26.9414 27.2594C27.689 26.5117 28.5656 25.893 29.5367 25.4461C29.6914 25.1109 29.8375 24.7672 29.9578 24.4063C30.1039 23.9852 30.2156 23.5555 30.3015 23.1086C30.3531 22.8336 30.6023 22.6188 30.8945 22.6188H32.8109V19.9547H30.8945C30.6109 19.9547 30.3617 19.757 30.3015 19.4648C30.1812 18.8117 29.9836 18.1758 29.7343 17.5742C29.4851 16.9727 29.1757 16.4055 28.8148 15.8727C28.6343 15.632 28.6515 15.2969 28.8664 15.082L30.2156 13.7328L28.3336 11.8508L26.9843 13.2C26.7867 13.3977 26.4687 13.432 26.2195 13.2688C25.6781 12.8992 25.0937 12.5813 24.4836 12.332C23.8906 12.0828 23.2718 11.9023 22.6359 11.7734C22.3351 11.7391 22.1031 11.4813 22.1031 11.1805V9.26406H19.439V11.1461C19.4562 11.4469 19.25 11.7133 18.9492 11.7734C18.2875 11.8938 17.6601 12.0914 17.0586 12.3406C16.457 12.5898 15.8898 12.8992 15.3484 13.2602C15.1164 13.4406 14.7726 13.4234 14.5578 13.2086L13.2086 11.8594L11.3265 13.7414L12.6757 15.0906C12.8734 15.2883 12.9078 15.6063 12.7445 15.8555C12.375 16.3969 12.057 16.9813 11.8078 17.5914C11.5672 18.1844 11.3781 18.8031 11.2492 19.4391C11.2148 19.7398 10.9656 19.9719 10.6562 19.9719H8.73981V22.6273H10.6562C10.9398 22.6273 11.189 22.8336 11.2492 23.1172C11.3695 23.7789 11.5672 24.4063 11.8164 25.0078C12.0656 25.6094 12.375 26.1766 12.7359 26.7094C12.9164 26.9414 12.8992 27.2852 12.6843 27.5L11.3351 28.8492L13.2172 30.7313L14.5664 29.382C14.764 29.1844 15.082 29.15 15.3312 29.3133C15.8726 29.6828 16.457 30.0008 17.0672 30.25C17.6601 30.4906 18.2789 30.6797 18.9234 30.8086C19.2242 30.843 19.4562 31.0922 19.4562 31.4016V33.318H22.1117V31.4016C22.1117 31.118 22.3179 30.8688 22.6015 30.8086C23.4609 30.6453 24.2859 30.3617 25.0679 29.9836ZM38.964 28.1102C35.8789 25.025 30.8773 25.025 27.7922 28.1102C24.707 31.1953 24.707 36.1969 27.7922 39.282C30.8773 42.3672 35.8789 42.3672 38.964 39.282C42.0406 36.1969 42.0406 31.1953 38.964 28.1102ZM28.3078 2.09688C28.1531 1.80469 28.2562 1.44375 28.5484 1.28047C28.8406 1.12578 29.2015 1.22891 29.3648 1.5125L31.4703 5.34531C31.6851 5.74063 31.4101 6.26485 30.8945 6.23047L26.5547 6.14453C26.2281 6.13594 25.9617 5.86094 25.9703 5.53438C25.9789 5.20781 26.2539 4.94141 26.5804 4.95L28.557 4.99297C25.1882 3.38594 21.4156 2.87891 17.7804 3.48906C9.41871 4.88125 3.12809 11.9711 2.74137 20.4703C2.5609 24.5352 3.74684 28.6258 6.24762 32.0203C6.44528 32.2867 6.38512 32.6648 6.12731 32.8625C5.8609 33.0602 5.48278 33 5.28512 32.7422C2.61246 29.1328 1.34918 24.7586 1.53825 20.4273C1.95075 11.3438 8.66246 3.78125 17.5828 2.29453C21.5703 1.63281 25.7211 2.23438 29.3906 4.06485L28.3078 2.09688ZM20.7797 15.3227C24.0711 15.3227 26.7351 17.9867 26.7351 21.2781C26.7351 24.5695 24.0625 27.2336 20.7797 27.2336C17.4882 27.2336 14.8156 24.5695 14.8156 21.2781C14.8156 17.9953 17.4882 15.3227 20.7797 15.3227ZM24.1398 17.9266C22.2836 16.0703 19.2672 16.0703 17.4109 17.9266C15.5547 19.7828 15.5547 22.7906 17.4109 24.6555C19.2672 26.5117 22.2836 26.5117 24.1398 24.6555C25.9961 22.7906 25.9961 19.7828 24.1398 17.9266Z" fill="#B67B60"/>
</svg>
