<svg width="20" height="20" viewBox="0 0 20 20" fill="none" xmlns="http://www.w3.org/2000/svg">
<g clip-path="url(#clip0_841_104)">
<path d="M19.5351 8.58215C19.1055 9.74621 18.4687 10.7892 17.7383 11.7775C16.7812 13.0665 15.6797 14.2306 14.5117 15.3282C13.1016 16.6525 11.5976 17.8712 10.0469 19.0275C10.0351 19.0353 10.0234 19.0431 10.0078 19.0548C10.0039 19.0587 9.99609 19.0626 9.99218 19.0665C9.52734 18.6915 9.0664 18.3204 8.60937 17.9415C7.27733 16.8478 5.97265 15.7228 4.74218 14.5157C3.6289 13.4259 2.58593 12.2775 1.70702 10.9884C1.14062 10.172 0.66796 9.30481 0.351554 8.3595C0.0898348 7.57825 -0.046884 6.77746 0.015616 5.95715C0.128897 4.46106 0.664053 3.15637 1.8203 2.15246C2.55468 1.51574 3.42187 1.16418 4.37499 1.01574C4.82421 0.945432 5.27733 0.925901 5.73046 0.957151C7.35546 1.07043 8.64452 1.78918 9.5664 3.13684C9.71874 3.35559 9.84765 3.58996 9.99218 3.82043C9.99609 3.81653 9.99609 3.81262 9.99999 3.80871C10.0703 3.68762 10.1367 3.56262 10.2109 3.44153C10.7226 2.58996 11.3867 1.89856 12.2812 1.44153C13.1172 1.00793 14.0117 0.871213 14.9453 0.953245C15.7617 1.02356 16.543 1.21887 17.2695 1.59778C18.7187 2.34778 19.5859 3.53918 19.8945 5.13293C20.1289 6.31653 19.9453 7.46496 19.5351 8.58215Z" fill="#B67B60"/>
</g>
<defs>
<clipPath id="clip0_841_104">
<rect width="20" height="20" fill="white"/>
</clipPath>
</defs>
</svg>
