<svg width="42" height="42" viewBox="0 0 42 42" fill="none" xmlns="http://www.w3.org/2000/svg">
<path d="M28.7918 7.85221C28.7918 9.07913 28.4647 10.1425 28.0557 11.2058L32.3908 18.6491C30.4277 20.694 27.8921 22.2481 25.1111 22.9843L20.9395 15.7045H20.8577L15.2957 25.3563C17.0951 25.9289 18.9764 26.1743 20.9395 26.1743C26.6652 26.1743 31.8182 23.5568 35.1718 19.3035C36.0716 18.2402 37.7893 17.9948 38.8526 18.8945C39.9977 19.8761 40.1613 21.512 39.2616 22.5753C35.0083 27.9738 28.3011 31.4092 20.9395 31.4092C17.9949 31.4092 15.2139 30.9184 12.6782 29.9369L8.01591 37.9528C7.60693 38.6071 7.03437 39.1797 6.38001 39.5069L1.88128 41.7971C1.47231 41.9607 0.981538 41.9607 0.572563 41.7153C0.163588 41.4699 -1.90735e-06 41.061 -1.90735e-06 40.5702V36.0715C-1.90735e-06 35.4171 0.163588 34.681 0.490768 34.1084L5.39847 25.6017C4.33513 24.702 3.35359 23.7204 2.53564 22.5753C1.6359 21.512 1.79949 19.8761 2.94462 18.8945C4.00795 17.9948 5.72565 18.2402 6.62539 19.3035C7.03437 19.9579 7.52514 20.4486 8.0977 21.0212L13.7416 11.2058C13.3326 10.1425 13.0872 9.07913 13.0872 7.85221C13.0872 3.51707 16.5226 -0.000110149 20.9395 -0.000110149C25.2746 -0.000110149 28.7918 3.51707 28.7918 7.85221ZM20.9395 10.4696C22.33 10.4696 23.557 9.32452 23.557 7.85221C23.557 6.46169 22.33 5.23477 20.9395 5.23477C19.4672 5.23477 18.3221 6.46169 18.3221 7.85221C18.3221 9.32452 19.4672 10.4696 20.9395 10.4696ZM30.4277 32.2271C33.127 31.2456 35.5808 29.7733 37.7075 27.892L41.3065 34.1084C41.6336 34.681 41.879 35.4171 41.879 36.0715V40.5702C41.879 41.061 41.6336 41.4699 41.2247 41.7153C40.8157 41.9607 40.3249 41.9607 39.916 41.7971L35.4172 39.5069C34.7629 39.1797 34.1903 38.6071 33.7813 37.9528L30.4277 32.2271Z" fill="#A3B18A"/>
</svg>
