<svg width="48" height="42" viewBox="0 0 48 42" fill="none" xmlns="http://www.w3.org/2000/svg">
<path d="M47.0322 20.9394C47.0322 22.4117 45.8052 23.5568 44.4147 23.5568H41.7973L41.8791 36.644C41.8791 36.8894 41.8791 37.1348 41.8791 37.2984V38.6071C41.8791 40.4884 40.4068 41.8789 38.6073 41.8789H37.2986C37.135 41.8789 37.0532 41.8789 36.9714 41.8789C36.8896 41.8789 36.726 41.8789 36.6442 41.8789H32.0637C30.1824 41.8789 28.7919 40.4884 28.7919 38.6071V31.4092C28.7919 30.0186 27.565 28.7917 26.1744 28.7917H20.9396C19.4673 28.7917 18.3221 30.0186 18.3221 31.4092V38.6071C18.3221 40.4884 16.8498 41.8789 15.0503 41.8789H10.4698C10.3062 41.8789 10.2244 41.8789 10.0608 41.8789C9.97904 41.8789 9.89724 41.8789 9.81545 41.8789H8.50673C6.62545 41.8789 5.23493 40.4884 5.23493 38.6071V29.4461C5.23493 29.4461 5.23493 29.3643 5.23493 29.2825V23.5568H2.61749C1.14518 23.5568 5.14984e-05 22.4117 5.14984e-05 20.9394C5.14984e-05 20.2033 0.245436 19.5489 0.818001 18.9763L21.7575 0.736045C22.3301 0.16348 22.9844 -0.000110149 23.557 -0.000110149C24.1296 -0.000110149 24.7839 0.245275 25.2747 0.65425L46.1324 18.9763C46.7868 19.5489 47.114 20.2033 47.0322 20.9394Z" fill="#A3B18A"/>
</svg>
