<svg width="301" height="129" viewBox="0 0 301 129" fill="none" xmlns="http://www.w3.org/2000/svg">
<g clip-path="url(#clip0_1005_235)">
<rect x="4" y="4" width="293" height="121" stroke="#FF9312" stroke-width="8"/>
<path d="M132.64 25.4H137.92V54.2H146.608V59H132.64V25.4ZM149.14 25.4H154.42V59H149.14V25.4ZM158.374 25.4H172.342V30.2H163.654V39.56H170.47V44.36H163.654V59H158.374V25.4ZM174.874 25.4H189.274V30.2H180.154V39.08H187.402V43.88H180.154V54.2H189.274V59H174.874V25.4ZM196.44 30.2H190.92V25.4H207.24V30.2H201.72V59H196.44V30.2ZM209.796 25.4H215.076V59H209.796V25.4ZM219.031 25.4H226.567L229.927 49.448H230.023L233.383 25.4H240.919V59H235.927V33.56H235.831L231.991 59H227.575L223.735 33.56H223.639V59H219.031V25.4ZM244.859 25.4H259.259V30.2H250.139V39.08H257.387V43.88H250.139V54.2H259.259V59H244.859V25.4ZM116.04 66.4H121.128L123.48 92.224H123.576L126.072 66.4H131.832L134.328 92.224H134.424L136.776 66.4H141.336L137.928 100H131.352L128.952 77.344H128.856L126.456 100H119.448L116.04 66.4ZM147.431 66.4H154.583L160.055 100H154.775L153.815 93.328V93.424H147.815L146.855 100H141.959L147.431 66.4ZM153.191 88.864L150.839 72.256H150.743L148.439 88.864H153.191ZM162.616 66.4H170.44C173.16 66.4 175.144 67.04 176.392 68.32C177.64 69.568 178.264 71.504 178.264 74.128V76.192C178.264 79.68 177.112 81.888 174.808 82.816V82.912C176.088 83.296 176.984 84.08 177.496 85.264C178.04 86.448 178.312 88.032 178.312 90.016V95.92C178.312 96.88 178.344 97.664 178.408 98.272C178.472 98.848 178.632 99.424 178.888 100H173.512C173.32 99.456 173.192 98.944 173.128 98.464C173.064 97.984 173.032 97.12 173.032 95.872V89.728C173.032 88.192 172.776 87.12 172.264 86.512C171.784 85.904 170.936 85.6 169.72 85.6H167.896V100H162.616V66.4ZM169.816 80.8C170.872 80.8 171.656 80.528 172.168 79.984C172.712 79.44 172.984 78.528 172.984 77.248V74.656C172.984 73.44 172.76 72.56 172.312 72.016C171.896 71.472 171.224 71.2 170.296 71.2H167.896V80.8H169.816ZM181.976 66.4H189.8C192.52 66.4 194.504 67.04 195.752 68.32C197 69.568 197.624 71.504 197.624 74.128V76.192C197.624 79.68 196.472 81.888 194.168 82.816V82.912C195.448 83.296 196.344 84.08 196.856 85.264C197.4 86.448 197.672 88.032 197.672 90.016V95.92C197.672 96.88 197.704 97.664 197.768 98.272C197.832 98.848 197.992 99.424 198.248 100H192.872C192.68 99.456 192.552 98.944 192.488 98.464C192.424 97.984 192.392 97.12 192.392 95.872V89.728C192.392 88.192 192.136 87.12 191.624 86.512C191.144 85.904 190.296 85.6 189.08 85.6H187.256V100H181.976V66.4ZM189.176 80.8C190.232 80.8 191.016 80.528 191.528 79.984C192.072 79.44 192.344 78.528 192.344 77.248V74.656C192.344 73.44 192.12 72.56 191.672 72.016C191.256 71.472 190.584 71.2 189.656 71.2H187.256V80.8H189.176ZM205.415 66.4H212.567L218.039 100H212.759L211.799 93.328V93.424H205.799L204.839 100H199.943L205.415 66.4ZM211.175 88.864L208.823 72.256H208.727L206.423 88.864H211.175ZM220.601 66.4H227.225L232.361 86.512H232.457V66.4H237.161V100H231.737L225.401 75.472H225.305V100H220.601V66.4ZM245.213 71.2H239.693V66.4H256.013V71.2H250.493V100H245.213V71.2ZM263.605 85.696L257.221 66.4H262.837L266.437 78.736H266.533L270.133 66.4H275.269L268.885 85.696V100H263.605V85.696Z" fill="#FF9312"/>
<path d="M88.431 57.9929L63.1912 47.802L37.9691 57.9929C37.2831 88.9076 53.2009 101.133 60.0956 104.966C61.9512 106.001 64.2905 105.939 66.0582 104.79C81.6857 94.6521 88.7476 76.0594 88.431 57.9929ZM61.1773 83.4614C60.1572 84.4173 58.5039 84.3559 57.5541 83.3386L50.8176 76.1734L54.564 72.6653L59.5416 77.9625L72.1263 66.2193L75.6352 69.9641L61.1773 83.4526V83.4614Z" fill="#FF9312"/>
<path d="M63.2 35.1291L58.4423 37.6286L59.3481 32.3314L55.505 28.5866L60.8168 27.8148L63.2 23L65.5745 27.8148L70.8951 28.5866L67.0432 32.3314L67.949 37.6286L63.2 35.1291Z" fill="#FF9312"/>
<path d="M37.5382 45.8374L38.444 51.1346L33.695 48.6351L28.9373 51.1346L29.8519 45.8462L26 42.1014L31.3206 41.3208L33.695 36.506L36.0695 41.3208L41.3901 42.0926L37.5382 45.8374Z" fill="#FF9312"/>
<path d="M88.5365 45.2762L84.6846 41.5225L89.9964 40.7508L92.3796 35.936L94.7541 40.7595L100.066 41.5313L96.2228 45.2762L97.1374 50.5733L92.3796 48.0738L87.6307 50.5646L88.5365 45.2762Z" fill="#FF9312"/>
<path d="M283.045 62.7624L282.447 59H284.505L283.907 62.7624L287.319 61.0522L287.961 62.9904L284.206 63.6306L286.88 66.3055L285.235 67.5158L283.476 64.1393L281.717 67.5158L280.073 66.3055L282.755 63.6306L279 62.9904L279.642 61.0522L283.054 62.7624H283.045Z" fill="#FF9312"/>
</g>
<defs>
<clipPath id="clip0_1005_235">
<rect width="301" height="129" fill="white"/>
</clipPath>
</defs>
</svg>
