<svg width="303" height="129" viewBox="0 0 303 129" fill="none" xmlns="http://www.w3.org/2000/svg">
<g clip-path="url(#clip0_978_78)">
<path d="M290.688 12.2782V116.722H12.3121V12.2782H290.688ZM303 0H0V129H303V0Z" fill="#613F30"/>
<path d="M114.74 28.3626H119.964V56.7779H128.556V61.5138H114.74V28.3626Z" fill="#613F30"/>
<path d="M130.833 28.3626H136.057V61.5138H130.833V28.3626Z" fill="#613F30"/>
<path d="M145.08 43.0877H151.825V47.8236H145.08V61.5138H139.856V28.3626H153.672V33.0985H145.08V43.0877Z" fill="#613F30"/>
<path d="M161.42 42.3335H168.587V47.0693H161.42V56.7779H170.443V61.5138H156.196V28.3626H170.443V33.0985H161.42V42.3335Z" fill="#613F30"/>
<path d="M172.149 28.3626H188.296V33.0985H182.834V61.5138H177.61V33.0985H172.149V28.3626Z" fill="#613F30"/>
<path d="M190.573 28.3626H195.797V61.5138H190.573V28.3626Z" fill="#613F30"/>
<path d="M210.668 51.9017L214.23 28.3626H221.494V61.5138H216.552V37.7379L212.946 61.5138H208.004L204.108 38.0712V61.5138H199.552V28.3626H206.816L210.659 51.9017H210.668Z" fill="#613F30"/>
<path d="M230.517 42.3335H237.684V47.0693H230.517V56.7779H239.54V61.5138H225.293V28.3626H239.54V33.0985H230.517V42.3335Z" fill="#613F30"/>
<path d="M127.676 84.7634L125.777 102.426H118.609L114.907 69.2753H119.99L122.795 95.4191L125.31 69.2753H130.341L132.953 95.6033L135.661 69.2753H140.217L136.514 102.426H129.585L127.685 84.7634H127.676Z" fill="#613F30"/>
<path d="M159.019 102.426H153.751L152.846 96.4101H146.434L145.529 102.426H140.736L146.056 69.2753H153.699L159.019 102.426ZM147.094 91.9111H152.124L149.609 75.1426L147.094 91.9111Z" fill="#613F30"/>
<path d="M172.36 102.426C172.299 102.207 172.237 101.997 172.167 101.813C172.105 101.62 172.052 101.383 172 101.102C171.956 100.822 171.92 100.453 171.903 100.015C171.885 99.5762 171.876 99.0236 171.876 98.3571V93.1477C171.876 91.6041 171.604 90.5078 171.067 89.8764C170.531 89.2449 169.66 88.9292 168.455 88.9292H166.653V102.426H161.429V69.2753H169.309C172.035 69.2753 174.005 69.9068 175.218 71.1697C176.441 72.4326 177.048 74.3445 177.048 76.8966V79.5013C177.048 82.9129 175.904 85.1493 173.627 86.228C174.954 86.763 175.869 87.64 176.353 88.8591C176.845 90.0781 177.091 91.5515 177.091 93.288V98.401C177.091 99.2254 177.127 99.9357 177.188 100.558C177.25 101.172 177.408 101.795 177.663 102.426H172.343H172.36ZM166.661 74.0112V84.1933H168.702C169.687 84.1933 170.452 83.939 171.006 83.4391C171.56 82.9304 171.832 82.0183 171.832 80.6941V77.4228C171.832 76.2213 171.621 75.353 171.191 74.8181C170.76 74.2831 170.091 74.0112 169.177 74.0112H166.661Z" fill="#613F30"/>
<path d="M191.453 102.426C191.391 102.207 191.33 101.997 191.259 101.813C191.198 101.62 191.145 101.383 191.092 101.102C191.048 100.822 191.013 100.453 190.995 100.015C190.978 99.5762 190.969 99.0236 190.969 98.3571V93.1477C190.969 91.6041 190.696 90.5078 190.16 89.8764C189.623 89.2449 188.753 88.9292 187.548 88.9292H185.745V102.426H180.521V69.2753H188.401C191.127 69.2753 193.097 69.9068 194.311 71.1697C195.533 72.4326 196.14 74.3445 196.14 76.8966V79.5013C196.14 82.9129 194.997 85.1493 192.719 86.228C194.047 86.763 194.962 87.64 195.445 88.8591C195.938 90.0781 196.184 91.5515 196.184 93.288V98.401C196.184 99.2254 196.219 99.9357 196.281 100.558C196.342 101.172 196.501 101.795 196.756 102.426H191.435H191.453ZM185.754 74.0112V84.1933H187.794C188.779 84.1933 189.544 83.939 190.098 83.4391C190.652 82.9304 190.925 82.0183 190.925 80.6941V77.4228C190.925 76.2213 190.714 75.353 190.283 74.8181C189.852 74.2831 189.184 74.0112 188.269 74.0112H185.754Z" fill="#613F30"/>
<path d="M216.525 102.426H211.257L210.352 96.4101H203.941L203.035 102.426H198.242L203.562 69.2753H211.205L216.525 102.426ZM204.609 91.9111H209.639L207.124 75.1426L204.609 91.9111Z" fill="#613F30"/>
<path d="M223.605 78.4138V102.426H218.9V69.2753H225.452L230.816 89.1222V69.2753H235.468V102.426H230.104L223.596 78.4138H223.605Z" fill="#613F30"/>
<path d="M237.702 69.2753H253.848V74.0112H248.387V102.426H243.163V74.0112H237.702V69.2753Z" fill="#613F30"/>
<path d="M261.025 91.4375L254.42 69.2753H259.881L263.874 84.3863L267.867 69.2753H272.853L266.248 91.4375V102.426H261.025V91.4375Z" fill="#613F30"/>
<path d="M85.8327 59.672L60.593 49.4811L35.3708 59.672C34.6849 90.5868 50.6026 102.812 57.4974 106.645C59.353 107.68 61.6923 107.618 63.4599 106.47C79.0874 96.3312 86.1493 77.7385 85.8327 59.672ZM58.5791 85.1405C57.5589 86.0965 55.9056 86.0351 54.9558 85.0178L48.2193 77.8525L51.9657 74.3445L56.9433 79.6417L69.528 67.8984L73.0369 71.6433L58.5791 85.1318V85.1405Z" fill="#613F30"/>
<path d="M60.6018 36.8083L55.844 39.3078L56.7498 34.0106L52.9067 30.2657L58.2185 29.494L60.6018 24.6792L62.9762 29.494L68.2968 30.2657L64.4449 34.0106L65.3507 39.3078L60.6018 36.8083Z" fill="#613F30"/>
<path d="M34.9399 47.5166L35.8457 52.8138L31.0968 50.3143L26.339 52.8138L27.2536 47.5254L23.4017 43.7805L28.7223 43L31.0968 38.1852L33.4712 43L38.7918 43.7718L34.9399 47.5166Z" fill="#613F30"/>
<path d="M85.9382 46.9553L82.0863 43.2017L87.3981 42.4299L89.7814 37.6151L92.1558 42.4387L97.4676 43.2105L93.6245 46.9553L94.5391 52.2525L89.7814 49.753L85.0324 52.2437L85.9382 46.9553Z" fill="#613F30"/>
<path d="M276.766 63.6186L276.168 59.8562H278.226L277.628 63.6186L281.041 61.9084L281.683 63.8466L277.927 64.4868L280.601 67.1617L278.956 68.372L277.197 64.9955L275.439 68.372L273.794 67.1617L276.476 64.4868L272.721 63.8466L273.363 61.9084L276.775 63.6186H276.766Z" fill="#613F30"/>
</g>
<defs>
<clipPath id="clip0_978_78">
<rect width="303" height="129" fill="white"/>
</clipPath>
</defs>
</svg>
