<svg width="26" height="26" viewBox="0 0 26 26" fill="none" xmlns="http://www.w3.org/2000/svg">
<path d="M15.0636 3.9108L10.7598 2.46997V22.0891L15.0636 23.53V3.9108Z" fill="#DCAA37"/>
<path d="M22.7786 2.99C22.217 2.58524 21.4966 2.47644 20.8418 2.6975L17.2158 3.91083V23.53L22.1975 21.8617C23.0783 21.5673 23.6724 20.7377 23.6716 19.8033V4.75583C23.6744 4.05662 23.3418 3.39904 22.7786 2.99Z" fill="#DCAA37"/>
<path d="M8.60814 2.46997L3.62643 4.1383C2.74567 4.43263 2.15152 5.26228 2.15236 6.19664V21.2441C2.14961 21.9434 2.48217 22.6009 3.04541 23.01C3.41545 23.268 3.85418 23.4077 4.30429 23.4108C4.53464 23.4128 4.76373 23.3762 4.98215 23.3025L8.60814 22.0891V2.46997Z" fill="#DCAA37"/>
</svg>
