<svg width="44" height="80" viewBox="0 0 44 80" fill="none" xmlns="http://www.w3.org/2000/svg">
<g clip-path="url(#clip0_759_50)">
<path d="M0 0V66.1605H43.6768V0H0ZM40.8377 8.68689H30.8367C29.3902 6.22634 28.1681 4.42934 27.1756 3.30769C27.0287 3.14096 26.8819 2.98601 26.7351 2.83612H40.8377V8.68689ZM2.87623 33.156V11.0413H19.3234V18.3034H16.1214C14.2123 18.3034 12.651 18.8238 11.4374 19.8663C10.2238 20.9088 9.6178 22.3606 9.6178 24.2199C9.6178 26.0792 10.1849 27.4535 11.3192 28.5398C12.4535 29.6277 13.9524 30.17 15.8175 30.17C17.7941 30.17 19.3116 29.5705 20.3665 28.3713C21.4215 27.1722 21.9498 25.4527 21.9498 23.2111V20.6225H28.1158V33.156H2.87623ZM28.1192 35.5088V63.348H21.8249L13.9726 46.951C16.6413 46.951 18.0962 46.7472 20.0846 44.6033C21.3421 43.2475 21.9717 41.2922 21.9717 38.7357V35.5071H28.1192V35.5088ZM19.3234 20.6225V23.3458C19.3234 24.7352 19.0145 25.8232 18.3967 26.6063C17.7789 27.3912 16.9198 27.7836 15.8192 27.7836C14.7862 27.7836 13.9321 27.4585 13.2587 26.8084C12.5852 26.1584 12.2476 25.2961 12.2476 24.2199C12.2476 23.1437 12.6122 22.2477 13.3431 21.5977C14.0739 20.9476 15.0225 20.6225 16.1906 20.6225H19.3251H19.3234ZM21.9532 18.3034V11.0413H28.1192V18.3034H21.9532ZM40.8377 11.0413V33.156H30.9498V11.0413H40.8377ZM18.92 2.83612V2.87149H20.3344C21.5481 2.87149 22.5017 2.99444 23.1988 3.24201C23.896 3.48789 24.6201 4.02009 25.3729 4.83859C26.1071 5.6352 27.0389 6.9219 28.1681 8.68858H2.87623V2.83612H18.92ZM2.87623 35.5088H19.1748V38.7373C19.1748 42.4812 17.254 44.3523 13.4123 44.3523H10.823C10.0297 44.3254 10.0617 44.7532 10.5428 45.7435C13.262 51.606 15.9678 57.482 18.6836 63.348H2.87623V35.5088ZM30.9498 63.348V35.5088H40.8377V63.348H30.9498Z" fill="#B87E65"/>
<path d="M19.5158 73.9565H15.6859V70.2412H13.4629V79.8291H15.6859V75.8983H19.5158V79.8291H21.7388V70.2412H19.5158V73.9565Z" fill="#B87E65"/>
<path d="M8.2995 76.4238H10.1613V76.7286C9.84564 77.0907 9.50637 77.377 9.14178 77.5791C8.72148 77.8115 8.28093 77.9261 7.82013 77.9261C7.44541 77.9261 7.10445 77.8536 6.79387 77.7105C6.48161 77.5657 6.21322 77.3652 5.98535 77.1092C5.75917 76.8499 5.58194 76.5467 5.45703 76.1981C5.33044 75.8461 5.26799 75.4638 5.26799 75.0461C5.26799 74.6285 5.32706 74.2647 5.44353 73.9144C5.56 73.5624 5.73048 73.2542 5.9516 72.9915C6.17103 72.7287 6.43266 72.5216 6.73479 72.3717C7.03524 72.2201 7.36945 72.146 7.73573 72.146C8.20667 72.146 8.6489 72.2656 9.05907 72.5081C9.46923 72.749 9.78319 73.0841 9.99924 73.5169L11.6568 72.2673C11.326 71.6256 10.8229 71.117 10.1478 70.7414C9.47261 70.3625 8.69279 70.1739 7.80831 70.1739C7.12977 70.1739 6.50017 70.2968 5.91784 70.5461C5.33888 70.792 4.83081 71.1355 4.39702 71.5768C3.96322 72.018 3.62395 72.5266 3.3792 73.1026C3.13276 73.6803 3.01123 74.3051 3.01123 74.9704C3.01123 75.7063 3.13276 76.3733 3.37413 76.9745C3.61551 77.5741 3.94972 78.0928 4.37339 78.5324C4.80043 78.9686 5.29162 79.3071 5.84863 79.5429C6.40734 79.7786 6.9998 79.8982 7.62602 79.8982C8.58138 79.8982 9.42366 79.5546 10.1579 78.8793V79.8308H11.9994V74.8205H8.29781V76.4255L8.2995 76.4238Z" fill="#B87E65"/>
<path d="M39.3844 75.5716C39.619 75.2887 39.7996 74.9687 39.9262 74.6099C40.0494 74.2529 40.1135 73.879 40.1135 73.4866C40.1135 73.0942 40.0359 72.6984 39.884 72.3111C39.7304 71.9237 39.511 71.5751 39.2324 71.2618C38.9506 70.9519 38.618 70.7044 38.2349 70.5174C37.8517 70.3322 37.4314 70.2412 36.9757 70.2412H32.6495V79.8291H34.8708V76.7387H36.3731L38.2146 79.8291H40.6638L38.5455 76.2621C38.8695 76.0836 39.1481 75.8528 39.3844 75.5716ZM37.7251 74.1687C37.634 74.3674 37.5192 74.5224 37.3774 74.6318C37.2339 74.7447 37.0753 74.8002 36.8997 74.8002H34.8692V72.178H36.8288C36.9976 72.178 37.1614 72.2336 37.3167 72.3447C37.4753 72.4542 37.6036 72.6058 37.7049 72.7995C37.8062 72.9931 37.8585 73.2222 37.8585 73.4866C37.8585 73.751 37.8129 73.97 37.7251 74.1687Z" fill="#B87E65"/>
<path d="M26.0059 70.2412L22.679 79.8291H24.9627L25.6953 77.6768H28.6863L29.4323 79.8291H31.7043L28.3909 70.2412H26.0059ZM26.043 76.161L27.2009 72.4744L28.3133 76.161H26.043Z" fill="#B87E65"/>
</g>
<defs>
<clipPath id="clip0_759_50">
<rect width="43.6768" height="79.8965" fill="white"/>
</clipPath>
</defs>
</svg>
