<svg width="42" height="50" viewBox="0 0 42 50" fill="none" xmlns="http://www.w3.org/2000/svg">
<path d="M41.0002 44.0002H25.8982C25.5002 42.0442 23.9562 40.5002 22.0002 40.1022V36.0002H35.0002C35.5532 36.0002 36.0002 35.5532 36.0002 35.0002V17.4142L40.2932 21.7073C40.4882 21.9023 40.7442 22.0002 41.0002 22.0002C41.2562 22.0002 41.5122 21.9023 41.7072 21.7073C42.0982 21.3162 42.0982 20.6842 41.7072 20.2932L21.7073 0.29325C21.3162 -0.09775 20.6842 -0.09775 20.2932 0.29325L0.29325 20.2932C-0.09775 20.6842 -0.09775 21.3162 0.29325 21.7073C0.48825 21.9023 0.74425 22.0002 1.00025 22.0002C1.25625 22.0002 1.51225 21.9023 1.70725 21.7073L6.00025 17.4142V35.0002C6.00025 35.5532 6.44825 36.0002 7.00025 36.0002H20.0002V40.1022C18.0443 40.5002 16.5002 42.0442 16.1012 44.0002H1.00025C0.44825 44.0002 0.000249781 44.4472 0.000249781 45.0002C0.000249781 45.5532 0.44825 46.0002 1.00025 46.0002H16.1012C16.5662 48.2792 18.5853 50.0002 21.0002 50.0002C23.4142 50.0002 25.4352 48.2792 25.8982 46.0002H41.0002C41.5532 46.0002 42.0002 45.5532 42.0002 45.0002C42.0002 44.4472 41.5532 44.0002 41.0002 44.0002ZM8.00025 15.4142L21.0002 2.41425L34.0002 15.4142V34.0002H8.00025V15.4142ZM21.0002 48.0002C19.3463 48.0002 18.0002 46.6542 18.0002 45.0002C18.0002 43.3462 19.3463 42.0002 21.0002 42.0002C22.6542 42.0002 24.0002 43.3462 24.0002 45.0002C24.0002 46.6542 22.6542 48.0002 21.0002 48.0002Z" fill="#B67B60"/>
<path d="M21.4092 29.9132C22.0832 29.6102 28.0002 26.8512 28.0002 23.0002V19.0002C28.0002 18.4482 27.5532 18.0002 27.0002 18.0002C25.3462 18.0002 24.0002 16.6542 24.0002 15.0002C24.0002 14.4482 23.5532 14.0002 23.0002 14.0002H19.0002C18.4482 14.0002 18.0002 14.4482 18.0002 15.0002C18.0002 16.6542 16.6542 18.0002 15.0002 18.0002C14.4482 18.0002 14.0002 18.4482 14.0002 19.0002V23.0002C14.0002 26.8512 19.9172 29.6102 20.5912 29.9132C20.7212 29.9712 20.8612 30.0002 21.0002 30.0002C21.1392 30.0002 21.2792 29.9712 21.4092 29.9132ZM16.0002 23.0002V19.8992C17.9562 19.5012 19.5012 17.9562 19.8992 16.0002H22.1002C22.4982 17.9562 24.0432 19.5012 25.9992 19.8992V23.0002C25.9992 24.9842 22.6442 27.0692 20.9992 27.8932C19.3552 27.0692 16.0002 24.9842 16.0002 23.0002Z" fill="#B67B60"/>
</svg>
