<svg width="26" height="26" viewBox="0 0 26 26" fill="none" xmlns="http://www.w3.org/2000/svg">
<path fill-rule="evenodd" clip-rule="evenodd" d="M17.3337 2.16675H8.66699C6.87207 2.16675 5.41699 3.62182 5.41699 5.41675V20.5834C5.41699 22.3783 6.87207 23.8334 8.66699 23.8334H17.3337C19.1286 23.8334 20.5837 22.3783 20.5837 20.5834V5.41675C20.5837 3.62182 19.1286 2.16675 17.3337 2.16675ZM13.7695 20.2692C13.6642 20.3649 13.5433 20.4419 13.412 20.4967C13.0096 20.6578 12.5499 20.5635 12.2434 20.257C11.9369 19.9505 11.8426 19.4908 12.0037 19.0884C12.0552 18.9554 12.1325 18.8339 12.2312 18.7309C12.4853 18.4659 12.8564 18.3476 13.217 18.4167L13.412 18.4817C13.481 18.5055 13.5466 18.5382 13.607 18.5792C13.6637 18.6192 13.718 18.6627 13.7695 18.7092C13.8652 18.8145 13.9421 18.9355 13.997 19.0667C14.1666 19.4702 14.0769 19.9361 13.7695 20.2476V20.2692ZM11.917 7.58341H14.2137H14.2353C14.8336 7.58341 15.3187 7.09839 15.3187 6.50008C15.3187 5.90177 14.8336 5.41675 14.2353 5.41675H11.917C11.3187 5.41675 10.8337 5.90177 10.8337 6.50008C10.8337 7.09839 11.3187 7.58341 11.917 7.58341Z" fill="#DCAA37"/>
</svg>
