<svg width="18" height="18" viewBox="0 0 18 18" fill="none" xmlns="http://www.w3.org/2000/svg">
<path d="M15 0H2.5C1.09375 0 0 1.13281 0 2.5V15C0 16.4062 1.09375 17.5 2.5 17.5H15C16.3672 17.5 17.5 16.4062 17.5 15V2.5C17.5 1.13281 16.3672 0 15 0ZM13.7109 11.3281L13.2422 13.2812C13.2031 13.5938 12.9688 13.75 12.6562 13.75C7.73438 13.75 3.75 9.76562 3.75 4.84375C3.75 4.53125 3.94531 4.29688 4.21875 4.21875L6.17188 3.78906C6.44531 3.71094 6.75781 3.86719 6.875 4.14062L7.77344 6.25C7.89062 6.52344 7.8125 6.79688 7.61719 6.95312L6.5625 7.8125C7.22656 9.17969 8.32031 10.2734 9.6875 10.9375L10.5469 9.88281C10.7031 9.6875 10.9766 9.60938 11.25 9.72656L13.3594 10.625C13.6328 10.7422 13.7891 11.0547 13.7109 11.3281Z" fill="white"/>
</svg>
