<svg width="51" height="51" viewBox="0 0 51 51" fill="none" xmlns="http://www.w3.org/2000/svg">
<g clip-path="url(#clip0_870_217)">
<path d="M25.5852 17.7928C26.2872 17.7928 26.8556 17.2239 26.8556 16.5224C26.8556 15.8208 26.2872 15.252 25.5852 15.252C19.9725 15.252 15.4224 19.8021 15.4224 25.4152C15.4224 31.028 19.9725 35.5781 25.5852 35.5781C31.1984 35.5781 35.7485 31.028 35.7485 25.4152C35.7485 24.7133 35.1796 24.1448 34.4781 24.1448C33.7765 24.1448 33.2077 24.7133 33.2077 25.4152C33.2077 29.6249 29.7953 33.0376 25.5852 33.0376C21.3756 33.0376 17.9628 29.6249 17.9628 25.4152C17.9628 21.2052 21.3756 17.7928 25.5852 17.7928Z" fill="#B67B60"/>
<path d="M49.8247 17.8694C49.6041 17.2028 48.885 16.8414 48.2181 17.062C47.5668 17.2776 47.2041 17.9709 47.3983 18.6289C51.1974 30.7271 44.4699 43.6145 32.3717 47.4136C20.2738 51.2128 7.38649 44.4853 3.58733 32.387C-0.212217 20.2888 6.51569 7.40145 18.6135 3.6023C23.0921 2.19609 27.8935 2.19609 32.3717 3.6023C33.044 3.80502 33.7534 3.42448 33.9561 2.75212C34.1557 2.08987 33.7896 1.38988 33.1316 1.17588C19.698 -3.03884 5.3908 4.43458 1.17609 17.8686C-3.03863 31.3022 4.43518 45.6094 17.8688 49.8241C31.3028 54.0388 45.6096 46.5654 49.8243 33.1314C51.383 28.1634 51.383 22.8374 49.8247 17.8694Z" fill="#B67B60"/>
<path d="M28.0045 9.07606C28.0111 8.35273 27.4555 7.74807 26.7341 7.69398C26.3548 7.66169 25.975 7.62939 25.5855 7.62939C15.7627 7.62939 7.7998 15.5923 7.7998 25.4151C7.7998 35.2375 15.7627 43.2004 25.5855 43.2004C35.4079 43.2004 43.3708 35.2375 43.3708 25.4151C43.3708 24.9556 43.3428 24.4964 43.2864 24.0404C43.1848 23.3431 42.5374 22.8603 41.8401 22.9618C41.1428 23.063 40.66 23.7108 40.7611 24.4081C40.765 24.4346 40.7697 24.4606 40.7751 24.4871C40.8028 24.7949 40.83 25.0999 40.83 25.4143C40.8304 33.834 34.0052 40.6592 25.5859 40.66C17.1662 40.6604 10.341 33.8348 10.3406 25.4155C10.3402 16.9962 17.165 10.1706 25.5847 10.1702H25.5851C25.9003 10.1702 26.2057 10.1974 26.5127 10.2247L26.7509 10.2445C27.4147 10.2729 27.9757 9.75776 28.0038 9.09396C28.0041 9.08774 28.0041 9.0819 28.0045 9.07606Z" fill="#B67B60"/>
<path d="M33.2076 11.4406V15.9961L24.6871 24.5166C24.1825 25.0041 24.1685 25.8084 24.656 26.3131C25.1436 26.8177 25.9478 26.8317 26.4525 26.3442C26.463 26.3341 26.4735 26.3236 26.4836 26.3131L35.0041 17.7926H39.5597C39.8966 17.7926 40.2196 17.6587 40.4581 17.4202L48.0801 9.79778C48.5762 9.30168 48.5762 8.49741 48.0801 8.00131C47.842 7.76318 47.5191 7.62933 47.1821 7.62933H43.3709V3.81811C43.3709 3.11657 42.802 2.54771 42.1001 2.5481C41.7635 2.5481 41.4406 2.68195 41.2024 2.92007L33.58 10.5425C33.3415 10.7806 33.2076 11.1036 33.2076 11.4406ZM35.7484 11.9666L40.8301 6.88499V8.89974C40.8301 9.60129 41.3989 10.1701 42.1005 10.1701H44.1152L39.0336 15.2518H35.7484V11.9666Z" fill="#B67B60"/>
</g>
<defs>
<clipPath id="clip0_870_217">
<rect width="51" height="51" fill="white"/>
</clipPath>
</defs>
</svg>
