<svg width="40" height="40" viewBox="0 0 40 40" fill="none" xmlns="http://www.w3.org/2000/svg">
<path d="M38.125 29.7162H29.885V2.08496C29.885 1.73996 29.605 1.45996 29.26 1.45996H1.875C1.53 1.45996 1.25 1.73996 1.25 2.08496V33.4793C1.25 36.2693 3.5175 38.54 6.30437 38.54H33.6956C36.4825 38.54 38.75 36.27 38.75 33.4793V30.3412C38.75 29.9962 38.47 29.7162 38.125 29.7162ZM30.3619 37.29H6.30437C4.20687 37.29 2.5 35.5806 2.5 33.4793V2.70996H28.635V33.4793C28.635 34.8337 29.1606 36.105 30.1156 37.0593C30.195 37.1393 30.2775 37.2156 30.3619 37.29ZM37.5 33.4793C37.5 35.5806 35.7938 37.29 33.6956 37.29C32.6756 37.29 31.7181 36.8943 30.9994 36.1756C30.2812 35.4568 29.885 34.4993 29.885 33.4793V30.9662H37.5V33.4793Z" fill="#B67B60"/>
<path d="M37.3349 1.25H33.9087C33.1249 1.25 32.4868 1.90125 32.4868 2.70187V23.7294C32.4868 23.8044 32.5049 23.8762 32.5306 23.9456C32.5362 23.9613 32.5412 23.9756 32.5481 23.9906C32.5537 24.0031 32.5562 24.0162 32.5631 24.0287L35.0699 28.625C35.1793 28.8256 35.3899 28.9506 35.6187 28.9506C35.8474 28.9506 36.0581 28.8256 36.1674 28.625L38.6743 24.0287C38.6806 24.0169 38.6837 24.0031 38.6893 23.9906C38.6962 23.9756 38.7012 23.9613 38.7068 23.9456C38.7324 23.8762 38.7506 23.8037 38.7506 23.7294V2.70187C38.7506 1.90125 38.1149 1.25 37.3349 1.25ZM33.7368 23.1044V8.5225H37.4999V23.1044H33.7368ZM33.7368 6.08938H37.4999V7.2725H33.7368V6.08938ZM33.9087 2.5H37.3349C37.4243 2.5 37.4999 2.5925 37.4999 2.70187V4.83938H33.7368V2.70187C33.7368 2.59062 33.8143 2.5 33.9087 2.5ZM35.6187 27.02L34.1649 24.3538H37.0731L35.6187 27.02Z" fill="#B67B60"/>
<path d="M9.36433 4.43567C6.92183 4.43567 4.93433 6.42317 4.93433 8.86567C4.93433 11.3082 6.92183 13.2957 9.36433 13.2957C11.8068 13.2957 13.7943 11.3082 13.7943 8.86567C13.7943 6.42317 11.8068 4.43567 9.36433 4.43567ZM9.36433 12.0457C7.61058 12.0457 6.18433 10.6194 6.18433 8.86567C6.18433 7.11192 7.61058 5.68567 9.36433 5.68567C11.1181 5.68567 12.5443 7.11254 12.5443 8.86567C12.5443 10.6188 11.1175 12.0457 9.36433 12.0457Z" fill="#B67B60"/>
<path d="M10.5462 7.45501L9.05125 8.95001L8.18312 8.08188C7.93875 7.83751 7.54375 7.83751 7.29937 8.08188C7.055 8.32626 7.055 8.72126 7.29937 8.96563L8.60937 10.2756C8.73125 10.3975 8.89125 10.4588 9.05125 10.4588C9.21125 10.4588 9.37125 10.3975 9.49312 10.2756L11.43 8.33876C11.6744 8.09438 11.6744 7.69938 11.43 7.45501C11.1856 7.21063 10.7906 7.21063 10.5462 7.45501Z" fill="#B67B60"/>
<path d="M25.585 6.64062H16.4719C16.1269 6.64062 15.8469 6.92063 15.8469 7.26562C15.8469 7.61062 16.1269 7.89062 16.4719 7.89062H25.585C25.93 7.89062 26.21 7.61062 26.21 7.26562C26.21 6.92063 25.93 6.64062 25.585 6.64062Z" fill="#B67B60"/>
<path d="M16.4719 11.09H22.9594C23.3044 11.09 23.5844 10.81 23.5844 10.465C23.5844 10.12 23.3044 9.83997 22.9594 9.83997H16.4719C16.1269 9.83997 15.8469 10.12 15.8469 10.465C15.8469 10.81 16.1269 11.09 16.4719 11.09Z" fill="#B67B60"/>
<path d="M9.36433 15.1525C6.92183 15.1525 4.93433 17.14 4.93433 19.5825C4.93433 22.025 6.92183 24.0125 9.36433 24.0125C11.8068 24.0125 13.7943 22.025 13.7943 19.5825C13.7943 17.14 11.8068 15.1525 9.36433 15.1525ZM9.36433 22.7625C7.61058 22.7625 6.18433 21.3362 6.18433 19.5825C6.18433 17.8287 7.61058 16.4025 9.36433 16.4025C11.1181 16.4025 12.5443 17.8293 12.5443 19.5825C12.5443 21.3356 11.1175 22.7625 9.36433 22.7625Z" fill="#B67B60"/>
<path d="M10.5462 18.1719L9.05125 19.6669L8.18312 18.7988C7.93875 18.5544 7.54375 18.5544 7.29937 18.7988C7.055 19.0432 7.055 19.4382 7.29937 19.6826L8.60937 20.9926C8.73125 21.1144 8.89125 21.1757 9.05125 21.1757C9.21125 21.1757 9.37125 21.1144 9.49312 20.9926L11.43 19.0557C11.6744 18.8113 11.6744 18.4163 11.43 18.1719C11.1856 17.9276 10.7906 17.9276 10.5462 18.1719Z" fill="#B67B60"/>
<path d="M25.585 17.3575H16.4719C16.1269 17.3575 15.8469 17.6375 15.8469 17.9825C15.8469 18.3275 16.1269 18.6075 16.4719 18.6075H25.585C25.93 18.6075 26.21 18.3275 26.21 17.9825C26.21 17.6375 25.93 17.3575 25.585 17.3575Z" fill="#B67B60"/>
<path d="M16.4719 21.8069H22.9594C23.3044 21.8069 23.5844 21.5269 23.5844 21.1819C23.5844 20.8369 23.3044 20.5569 22.9594 20.5569H16.4719C16.1269 20.5569 15.8469 20.8369 15.8469 21.1819C15.8469 21.5269 16.1269 21.8069 16.4719 21.8069Z" fill="#B67B60"/>
<path d="M9.36433 25.8694C6.92183 25.8694 4.93433 27.8569 4.93433 30.2994C4.93433 32.7419 6.92183 34.7294 9.36433 34.7294C11.8068 34.7294 13.7943 32.7419 13.7943 30.2994C13.7943 27.8569 11.8068 25.8694 9.36433 25.8694ZM9.36433 33.4794C7.61058 33.4794 6.18433 32.0525 6.18433 30.2994C6.18433 28.5463 7.61058 27.1194 9.36433 27.1194C11.1181 27.1194 12.5443 28.5456 12.5443 30.2994C12.5443 32.0531 11.1175 33.4794 9.36433 33.4794Z" fill="#B67B60"/>
<path d="M25.585 28.0743H16.4719C16.1269 28.0743 15.8469 28.3543 15.8469 28.6993C15.8469 29.0443 16.1269 29.3243 16.4719 29.3243H25.585C25.93 29.3243 26.21 29.0443 26.21 28.6993C26.21 28.3543 25.93 28.0743 25.585 28.0743Z" fill="#B67B60"/>
<path d="M22.9594 31.2738H16.4719C16.1269 31.2738 15.8469 31.5538 15.8469 31.8988C15.8469 32.2438 16.1269 32.5238 16.4719 32.5238H22.9594C23.3044 32.5238 23.5844 32.2438 23.5844 31.8988C23.5844 31.5538 23.3044 31.2738 22.9594 31.2738Z" fill="#B67B60"/>
</svg>
