<svg width="53" height="63" viewBox="0 0 53 63" fill="none" xmlns="http://www.w3.org/2000/svg">
<path d="M51.2503 55.0003H32.3728C31.8753 52.5553 29.9453 50.6253 27.5003 50.1278V45.0003H43.7503C44.4416 45.0003 45.0003 44.4416 45.0003 43.7503V21.7678L50.3666 27.1341C50.6103 27.3778 50.9303 27.5003 51.2503 27.5003C51.5703 27.5003 51.8903 27.3778 52.1341 27.1341C52.6228 26.6453 52.6228 25.8553 52.1341 25.3666L27.1341 0.366562C26.6453 -0.122188 25.8553 -0.122188 25.3666 0.366562L0.366562 25.3666C-0.122188 25.8553 -0.122188 26.6453 0.366562 27.1341C0.610312 27.3778 0.930312 27.5003 1.25031 27.5003C1.57031 27.5003 1.89031 27.3778 2.13406 27.1341L7.50031 21.7678V43.7503C7.50031 44.4416 8.06031 45.0003 8.75031 45.0003H25.0003V50.1278C22.5553 50.6253 20.6253 52.5553 20.1266 55.0003H1.25031C0.560312 55.0003 0.000312226 55.5591 0.000312226 56.2503C0.000312226 56.9416 0.560312 57.5003 1.25031 57.5003H20.1266C20.7078 60.3491 23.2316 62.5003 26.2503 62.5003C29.2678 62.5003 31.7941 60.3491 32.3728 57.5003H51.2503C51.9416 57.5003 52.5003 56.9416 52.5003 56.2503C52.5003 55.5591 51.9416 55.0003 51.2503 55.0003ZM10.0003 19.2678L26.2503 3.01781L42.5003 19.2678V42.5003H10.0003V19.2678ZM26.2503 60.0003C24.1828 60.0003 22.5003 58.3178 22.5003 56.2503C22.5003 54.1828 24.1828 52.5003 26.2503 52.5003C28.3178 52.5003 30.0003 54.1828 30.0003 56.2503C30.0003 58.3178 28.3178 60.0003 26.2503 60.0003Z" fill="#B67B60"/>
<path d="M37.3227 29.3916C37.5577 28.9966 37.5577 28.5054 37.3227 28.1104C37.1252 27.7791 32.4115 20.0004 26.2502 20.0004C20.0877 20.0004 15.374 27.7791 15.1765 28.1091C14.9415 28.5041 14.9415 28.9954 15.1765 29.3904C15.374 29.7216 20.0877 37.5004 26.2502 37.5004C32.4115 37.5004 37.1252 29.7216 37.3227 29.3916ZM17.7377 28.7441C19.224 26.5429 22.6902 22.5004 26.2502 22.5004C30.1177 22.5004 33.5877 27.0391 34.759 28.7504C33.5877 30.4616 30.1177 35.0004 26.2502 35.0004C22.3777 35.0004 18.9027 30.4491 17.7377 28.7441Z" fill="#B67B60"/>
<path d="M26.2502 31.2504C27.631 31.2504 28.7502 30.1311 28.7502 28.7504C28.7502 27.3697 27.631 26.2504 26.2502 26.2504C24.8695 26.2504 23.7502 27.3697 23.7502 28.7504C23.7502 30.1311 24.8695 31.2504 26.2502 31.2504Z" fill="#B67B60"/>
</svg>
