<svg width="336" height="336" viewBox="0 0 336 336" fill="none" xmlns="http://www.w3.org/2000/svg">
<g clip-path="url(#clip0_955_39)">
<path d="M174.033 307.8C96.7054 311.303 30.935 251.304 27.4188 174.047C23.9122 96.7801 83.976 31.0698 161.304 27.5664C238.632 24.063 304.402 84.0623 307.918 161.319C311.425 238.577 251.371 304.287 174.043 307.8H174.033ZM161.486 31.6169C86.397 35.0243 28.072 98.8341 31.4826 173.855C34.8931 248.876 98.7614 307.147 173.851 303.74C248.94 300.332 307.265 236.523 303.855 161.502C300.444 86.481 236.576 28.2094 161.486 31.6169Z" fill="#B67B60"/>
<path d="M332.666 160.168C328.775 156.463 328.228 150.454 331.388 146.116C334.991 141.172 333.723 134.223 328.612 130.864C324.116 127.917 322.512 122.101 324.846 117.263C327.507 111.754 325.019 105.14 319.389 102.75C314.442 100.648 311.819 95.2155 313.25 90.0324C314.883 84.139 311.262 78.0729 305.286 76.7291C300.04 75.5485 296.486 70.6629 296.976 65.3167C297.533 59.2313 292.873 53.9138 286.763 53.6451C281.393 53.4147 277.022 49.249 276.551 43.8931C276.013 37.7982 270.479 33.4021 264.417 34.2372C259.095 34.9667 254.051 31.6456 252.62 26.4721C250.996 20.5787 244.771 17.2289 238.958 19.1294C233.847 20.7995 228.294 18.4287 225.969 13.5911C223.318 8.08167 216.593 5.90284 211.213 8.81114C206.486 11.3643 200.597 10.0301 197.436 5.67248C193.843 0.719732 186.84 -0.220907 182.065 3.59924C177.866 6.95866 171.833 6.68991 167.952 2.97534C163.533 -1.25753 156.471 -0.940784 152.456 3.67602C148.93 7.72653 142.945 8.54239 138.458 5.5765C133.357 2.19788 126.459 3.77201 123.336 9.03191C120.589 13.6487 114.844 15.5204 109.906 13.3992C104.276 10.99 97.7814 13.7639 95.639 19.4941C93.7656 24.5237 88.4432 27.3936 83.1977 26.1842C77.2317 24.8116 71.3329 28.7085 70.2569 34.7267C69.3058 40.0154 64.5887 43.778 59.2183 43.5284C53.1082 43.25 47.9972 48.126 48.0068 54.2498C48.0164 59.6248 44.0486 64.1649 38.7167 64.8847C32.6546 65.7006 28.4947 71.4116 29.5995 77.4298C30.5698 82.7089 27.4763 87.892 22.3557 89.5525C16.5338 91.4338 13.4691 97.7975 15.6307 103.518C17.5329 108.538 15.4098 114.191 10.6734 116.735C5.28384 119.624 3.40085 126.439 6.55199 131.68C9.31884 136.287 8.24284 142.228 4.03492 145.569C-0.759044 149.379 -1.38351 156.415 2.65149 161.003C6.19652 165.044 6.19652 171.081 2.65149 175.112C-1.38351 179.71 -0.749437 186.745 4.05413 190.546C8.26206 193.887 9.34766 199.828 6.58081 204.435C3.42967 209.686 5.32227 216.491 10.7119 219.37C15.4482 221.904 17.581 227.558 15.6788 232.578C13.5172 238.298 16.5914 244.662 22.4134 246.543C27.534 248.194 30.6275 253.377 29.6668 258.656C28.5619 264.674 32.7218 270.385 38.7935 271.192C44.1255 271.902 48.1029 276.442 48.0932 281.817C48.0932 287.931 53.1946 292.807 59.3144 292.519C64.6848 292.27 69.4115 296.032 70.3626 301.311C71.4482 307.33 77.347 311.217 83.313 309.844C88.5489 308.635 93.8713 311.495 95.7542 316.525C97.8966 322.255 104.401 325.029 110.021 322.61C114.959 320.489 120.704 322.351 123.461 326.968C126.593 332.218 133.491 333.792 138.592 330.414C143.069 327.448 149.064 328.254 152.59 332.304C156.615 336.912 163.677 337.228 168.086 332.996C171.968 329.271 178.001 329.003 182.199 332.352C186.984 336.173 193.987 335.222 197.571 330.26C200.722 325.912 206.611 324.559 211.338 327.112C216.727 330.02 223.443 327.832 226.094 322.313C228.419 317.465 233.972 315.095 239.083 316.755C244.905 318.656 251.13 315.306 252.744 309.403C254.166 304.22 259.2 300.889 264.532 301.619C270.595 302.444 276.119 298.038 276.657 291.953C277.127 286.607 281.489 282.431 286.859 282.191C292.979 281.923 297.619 276.605 297.062 270.51C296.572 265.164 300.117 260.278 305.363 259.088C311.329 257.735 314.951 251.669 313.317 245.775C311.876 240.602 314.499 235.16 319.437 233.058C325.067 230.658 327.546 224.045 324.884 218.545C322.54 213.707 324.145 207.891 328.641 204.934C333.752 201.575 335.01 194.626 331.408 189.683C328.237 185.344 328.775 179.336 332.666 175.621C337.095 171.398 337.095 164.333 332.666 160.12V160.168ZM174.312 313.847C93.5158 317.513 25.0361 255.038 21.3662 174.316C17.6963 93.5838 80.2291 25.1763 161.025 21.5098C241.821 17.8432 310.301 80.3189 313.971 161.041C317.641 241.763 255.108 310.18 174.312 313.847Z" fill="#B67B60"/>
<path d="M171.651 255.355C123.26 257.553 82.1122 220.004 79.9122 171.657C77.7121 123.31 115.295 82.2002 163.686 80.0022C212.078 77.8042 253.225 115.353 255.425 163.7C257.625 212.047 220.042 253.157 171.651 255.355ZM163.869 84.0623C117.716 86.1547 81.872 125.374 83.976 171.475C86.0704 217.585 125.325 253.396 171.468 251.304C217.621 249.212 253.465 209.993 251.371 163.892C249.276 117.781 210.022 81.9699 163.879 84.0623H163.869Z" fill="#B67B60"/>
<path d="M164.138 89.9365C121.165 91.8849 87.9052 128.272 89.8555 171.206C91.8057 214.139 128.226 247.369 171.199 245.42C214.172 243.472 247.432 207.084 245.482 164.151C243.531 121.218 207.111 87.988 164.138 89.9365ZM149.247 228.93L101.807 185.651L123.644 161.751L147.162 183.204L205.852 118.991L229.774 140.808L149.247 228.911V228.93Z" fill="#B67B60"/>
<path d="M61.0918 178.923C60.4385 181.908 57.4795 183.799 54.4917 183.137C51.5039 182.474 49.6113 179.528 50.2742 176.542C50.9371 173.557 53.8865 171.666 56.8743 172.329C59.8621 172.991 61.7547 175.938 61.0918 178.923Z" fill="#B67B60"/>
<path d="M284.102 165.361C283.449 168.346 280.49 170.237 277.502 169.574C274.514 168.912 272.622 165.965 273.285 162.98C273.938 159.995 276.897 158.104 279.885 158.766C282.872 159.429 284.765 162.375 284.102 165.361Z" fill="#B67B60"/>
<path d="M44.2408 160.629L44.7212 154.428L65.4342 156.021L65.8761 150.214L71.0928 151.241L70.2185 162.625L44.2408 160.629Z" fill="#B67B60"/>
<path d="M48.0261 134.348L73.437 140.088L72.0727 146.116L46.6619 140.376L48.0261 134.358V134.348Z" fill="#B67B60"/>
<path d="M50.6104 125.249L54.7223 114.556L59.5066 116.399L57.6236 121.285L62.3696 123.109L64.0989 118.626L68.8832 120.469L67.1539 124.961L77.155 128.81L74.9261 134.607L50.6008 125.259L50.6104 125.249Z" fill="#B67B60"/>
<path d="M77.2221 104.497L74.7819 108.596L79.9602 111.667L82.9 106.734L86.9446 109.959L81.1803 119.634L58.7957 106.331L64.5311 96.6938L68.9312 99.3142L66.3757 103.614L70.3723 105.995L72.8125 101.896L77.2221 104.517V104.497Z" fill="#B67B60"/>
<path d="M75.6466 90.3302L73.6387 92.6722L69.7478 89.3415L77.789 79.9543L81.6799 83.285L79.672 85.627L95.5718 99.2278L91.556 103.921L75.6562 90.3206L75.6466 90.3302Z" fill="#B67B60"/>
<path d="M88.7987 69.8569L105.89 89.5048L101.221 93.5553L84.1393 73.9074L88.8084 69.8569H88.7987Z" fill="#B67B60"/>
<path d="M118.398 73.6099C116.65 70.6056 113.71 65.4801 112 62.4566L111.731 62.6102C114.546 68.3884 119.311 78.3706 120.128 79.9256L116.208 82.2004C114.19 79.1193 108.138 70.3464 105.217 66.2575L104.948 66.4111C106.534 69.0602 109.281 73.4755 111.548 77.3628L114.834 83.0067L109.934 85.8574L96.84 63.3588L104.141 59.1164C105.592 61.0744 109.07 65.8832 110.818 68.4843L111.02 68.3692C109.473 65.0193 108.378 62.8117 106.178 57.9358L113.787 53.5205L126.881 76.0287L121.607 79.0905L118.427 73.6195L118.398 73.6099Z" fill="#B67B60"/>
<path d="M138.813 60.2873L134.279 61.7655L136.143 67.4861L141.609 65.7008L142.531 70.7879L131.819 74.2817L123.74 49.5372L134.413 46.053L136.008 50.9193L131.243 52.4743L132.684 56.8991L137.219 55.421L138.813 60.2873Z" fill="#B67B60"/>
<path d="M156.923 68.0236L154.521 42.0312L160.977 41.8872C161.083 45.1315 161.582 55.4785 161.63 57.6669H161.986C162.178 54.0196 162.149 46.9456 162.303 41.8584L166.799 41.7625C167.039 45.5154 167.251 53.4053 167.654 57.6573H168.086C168.077 53.5396 168.125 43.3366 168.048 41.7337L173.995 41.6089L172.256 67.6876L165.608 67.8316C165.396 65.4896 165.06 62.2549 164.714 57.3694H164.359C164.186 61.9574 163.888 64.6257 163.763 67.87L156.913 68.014L156.923 68.0236Z" fill="#B67B60"/>
<path d="M185.062 63.9828L183.717 69.3002L177.492 68.1005L185.139 43.0583L194.862 44.93L192.623 71.0088L186.321 69.7994L187.051 64.3667L185.053 63.9828H185.062ZM187.762 59.2508C188.021 57.2735 188.847 50.5067 189.001 49.0957L188.732 49.0477C188.482 50.1515 186.859 56.4864 186.263 58.9628L187.762 59.2508Z" fill="#B67B60"/>
<path d="M206.89 64.5585L202.73 74.7232L197.004 72.3908L206.851 48.2893L213.989 51.1976C218.697 53.1173 219.206 56.112 217.65 59.9129L217.294 60.7768C216.189 63.4931 214.719 64.5009 213.009 64.6449C214.422 66.1518 214.345 67.678 212.913 71.191C211.732 74.0897 210.569 76.8156 210.291 77.8042L204.709 75.5294C204.632 74.9919 205.237 73.293 207.485 67.8028C208.465 65.4128 208.321 65.144 207.159 64.6737L206.87 64.5585H206.89ZM208.667 60.2968L209.099 60.4696C210.041 60.8536 210.569 60.6904 211.194 59.1738L211.981 57.2542C212.529 55.9104 212.318 55.4977 211.194 55.0369L210.867 54.9026L208.667 60.2968Z" fill="#B67B60"/>
<path d="M226.075 74.5505L219.965 83.6786L214.825 80.2424L229.313 58.6077L235.721 62.8885C239.948 65.7104 239.842 68.7435 237.565 72.1605L237.047 72.938C235.413 75.376 233.78 76.0671 232.07 75.8655C233.146 77.622 232.771 79.1097 230.658 82.258C228.919 84.8592 227.228 87.3067 226.767 88.2186L221.762 84.8688C221.8 84.3313 222.732 82.7859 226.037 77.8524C227.468 75.7119 227.382 75.4144 226.344 74.7233L226.085 74.5505H226.075ZM228.679 70.74L229.073 70.9991C229.918 71.5654 230.475 71.5079 231.388 70.1449L232.541 68.4268C233.348 67.227 233.223 66.7663 232.214 66.0944L231.926 65.9024L228.688 70.74H228.679Z" fill="#B67B60"/>
<path d="M238.555 91.6932L234.443 95.3213L229.976 90.8293L250.42 74.4641L257.385 81.4805L240.822 101.752L236.307 97.2026L239.977 93.1233L238.545 91.6836L238.555 91.6932ZM243.454 89.3032C244.79 87.8154 249.286 82.6899 250.208 81.6245L250.016 81.4325C249.18 82.2004 244.271 86.5196 242.388 88.2281L243.464 89.3128L243.454 89.3032Z" fill="#B67B60"/>
<path d="M243.685 105.352L265.474 91.0884L269.038 96.5115C266.992 98.5943 259.498 105.841 258.663 106.571L258.816 106.801C262.015 104.19 267.367 100.082 269.394 98.7575L270.182 98.2392L273.381 103.106L251.592 117.369L247.749 111.523C249.44 110.045 258.48 101.925 259.133 101.359L258.96 101.099C256.645 102.846 249.766 107.962 247.24 109.613L246.721 109.959L243.695 105.352H243.685Z" fill="#B67B60"/>
<path d="M274.111 116.169L272.919 113.318L277.646 111.341L282.421 122.734L277.694 124.711L276.503 121.861L257.193 129.942L254.8 124.251L274.111 116.169Z" fill="#B67B60"/>
<path d="M260.632 140.875L267.434 139.397C267.972 139.282 268.904 138.955 269.451 138.715L285.188 131.181L286.591 137.64C283.574 138.495 280.01 139.589 276.263 140.606L276.349 140.99C279.222 140.568 283.632 140.05 287.013 139.598L288.32 145.597L270.393 145.29C269.836 145.29 269.586 145.261 269.125 145.367L261.939 146.922L260.622 140.885L260.632 140.875Z" fill="#B67B60"/>
<path d="M291.97 178.779L291.452 184.97L270.748 183.242L270.258 189.049L265.051 187.984L266.002 176.61L291.97 178.779Z" fill="#B67B60"/>
<path d="M288.012 205.04L262.64 199.127L264.043 193.119L289.415 199.031L288.012 205.04Z" fill="#B67B60"/>
<path d="M285.361 214.11L281.172 224.774L276.397 222.902L278.309 218.026L273.573 216.174L271.815 220.647L267.04 218.775L268.798 214.302L258.816 210.386L261.093 204.598L285.351 214.11H285.361Z" fill="#B67B60"/>
<path d="M258.614 234.689L261.083 230.61L255.924 227.5L252.956 232.414L248.93 229.17L254.752 219.533L277.051 232.99L271.248 242.589L266.867 239.94L269.451 235.659L265.464 233.259L262.995 237.338L258.605 234.689H258.614Z" fill="#B67B60"/>
<path d="M260.094 248.866L262.121 246.534L265.993 249.893L257.894 259.223L254.022 255.863L256.049 253.531L240.236 239.824L244.29 235.16L260.104 248.866H260.094Z" fill="#B67B60"/>
<path d="M246.817 269.243L229.86 249.48L234.549 245.458L251.505 265.222L246.817 269.243Z" fill="#B67B60"/>
<path d="M217.227 265.318C218.956 268.341 221.858 273.476 223.548 276.519L223.817 276.365C221.041 270.568 216.343 260.557 215.536 258.992L219.475 256.737C221.473 259.827 227.468 268.648 230.36 272.756L230.629 272.603C229.063 269.944 226.344 265.509 224.106 261.613L220.858 255.95L225.777 253.137L238.718 275.732L231.388 279.926C229.947 277.959 226.507 273.131 224.778 270.51L224.576 270.625C226.094 273.985 227.19 276.202 229.351 281.088L221.714 285.455L208.773 262.86L214.066 259.837L217.217 265.327L217.227 265.318Z" fill="#B67B60"/>
<path d="M196.725 278.487L201.269 277.037L199.435 271.307L193.958 273.054L193.075 267.967L203.806 264.55L211.722 289.352L201.029 292.759L199.473 287.883L204.238 286.367L202.826 281.932L198.282 283.382L196.725 278.506V278.487Z" fill="#B67B60"/>
<path d="M178.654 270.635L180.874 296.637L174.418 296.733C174.331 293.489 173.908 283.132 173.87 280.944H173.514C173.293 284.591 173.284 291.665 173.082 296.752L168.586 296.819C168.375 293.066 168.221 285.177 167.846 280.924H167.414C167.395 285.033 167.27 295.245 167.337 296.839L161.39 296.925L163.312 270.865L169.96 270.769C170.152 273.111 170.469 276.356 170.776 281.232H171.132C171.334 276.653 171.651 273.985 171.795 270.741L178.645 270.645L178.654 270.635Z" fill="#B67B60"/>
<path d="M150.515 274.484L151.889 269.176L158.105 270.414L150.284 295.399L140.581 293.47L142.993 267.4L149.285 268.658L148.526 274.09L150.525 274.494L150.515 274.484ZM147.777 279.197C147.498 281.174 146.634 287.941 146.47 289.342L146.739 289.4C146.999 288.296 148.661 281.971 149.276 279.504L147.777 279.206V279.197Z" fill="#B67B60"/>
<path d="M128.668 273.755L132.895 263.619L138.602 265.99L128.591 290.024L121.473 287.068C116.775 285.119 116.285 282.115 117.87 278.333L118.235 277.469C119.359 274.762 120.838 273.764 122.549 273.63C121.146 272.113 121.232 270.587 122.693 267.084C123.894 264.195 125.075 261.469 125.354 260.49L130.916 262.803C130.993 263.34 130.369 265.03 128.082 270.51C127.093 272.891 127.237 273.16 128.39 273.639L128.678 273.755H128.668ZM126.862 278.007L126.43 277.824C125.488 277.431 124.96 277.594 124.326 279.111L123.528 281.021C122.971 282.355 123.173 282.777 124.297 283.247L124.624 283.382L126.862 278.007Z" fill="#B67B60"/>
<path d="M109.56 263.638L115.727 254.548L120.838 258.013L106.207 279.552L99.8277 275.233C95.6198 272.382 95.7446 269.349 98.0504 265.951L98.5788 265.174C100.222 262.745 101.874 262.064 103.574 262.275C102.508 260.509 102.892 259.031 105.025 255.892C106.783 253.3 108.484 250.872 108.954 249.96L113.941 253.339C113.902 253.876 112.961 255.412 109.617 260.326C108.167 262.457 108.253 262.755 109.291 263.455L109.55 263.628L109.56 263.638ZM106.937 267.439L106.553 267.18C105.707 266.613 105.16 266.661 104.237 268.015L103.075 269.733C102.258 270.933 102.383 271.384 103.382 272.065L103.671 272.267L106.947 267.448L106.937 267.439Z" fill="#B67B60"/>
<path d="M97.205 246.418L101.336 242.819L105.765 247.34L85.2057 263.561L78.2789 256.497L94.9761 236.331L99.4627 240.909L95.7735 244.959L97.1954 246.409L97.205 246.418ZM92.2861 248.77C90.9411 250.248 86.4066 255.345 85.4843 256.41L85.6764 256.602C86.5122 255.834 91.4503 251.554 93.3525 249.855L92.2861 248.77Z" fill="#B67B60"/>
<path d="M92.1612 232.722L70.2762 246.841L66.7504 241.389C68.8063 239.316 76.3575 232.117 77.1933 231.397L77.0396 231.167C73.8212 233.758 68.4508 237.828 66.4141 239.143L65.6263 239.652L62.4656 234.756L84.3506 220.637L88.1551 226.511C86.4546 227.98 77.3662 236.033 76.7034 236.599L76.8763 236.858C79.2012 235.121 86.1183 230.053 88.6546 228.421L89.183 228.086L92.1708 232.712L92.1612 232.722Z" fill="#B67B60"/>
<path d="M61.8027 221.674L62.9747 224.534L58.2384 226.483L53.5405 215.051L58.2865 213.103L59.4585 215.963L78.8265 208.025L81.1707 213.736L61.8027 221.674Z" fill="#B67B60"/>
<path d="M75.4544 197.093L68.6429 198.523C68.1049 198.638 67.173 198.955 66.6254 199.185L50.8409 206.614L49.4767 200.154C52.5029 199.319 56.0672 198.254 59.8236 197.265L59.7467 196.881C56.8742 197.285 52.4549 197.774 49.0732 198.206L47.8051 192.197L65.7224 192.629C66.2796 192.629 66.5294 192.658 66.9905 192.562L74.1863 191.046L75.4544 197.093Z" fill="#B67B60"/>
<path d="M170.325 240.18C209.933 240.18 242.042 208.1 242.042 168.528C242.042 128.956 209.933 96.8762 170.325 96.8762C130.717 96.8762 98.6077 128.956 98.6077 168.528C98.6077 208.1 130.717 240.18 170.325 240.18Z" fill="#B67B60"/>
<path d="M116.266 134.684V133.043C116.266 129.712 117.486 126.218 123.231 126.218C127.785 126.218 130.321 128.244 130.321 132.544V133.935C130.321 137.18 128.803 138.485 127.323 139.08V139.166C128.716 139.714 130.744 141.105 130.744 144.647V146.884C130.744 151.817 128.38 154.217 123.154 154.217C117.332 154.217 116.025 150.464 116.025 146.884V145.617H122.097V147.306C122.097 148.611 122.395 149.206 123.154 149.206C123.913 149.206 124.124 148.323 124.124 147.479V144.446C124.124 142.42 123.663 141.835 121.761 141.835H119.734V136.776H122.059C123.327 136.776 124.086 136.604 124.086 134.626V132.649C124.086 131.641 123.913 130.96 123.154 130.96C122.308 130.96 122.145 131.68 122.145 132.726V134.703H116.285L116.266 134.684Z" fill="white"/>
<path d="M147.7 133.715V146.778C147.7 151.5 145.375 154.322 140.024 154.322C134.375 154.322 132.598 151.078 132.598 146.778V133.753C132.598 128.272 135.931 126.209 140.062 126.209C144.405 126.209 147.7 128.484 147.7 133.715ZM139.092 132.947V147.45C139.092 148.544 139.342 149.178 140.101 149.178C140.773 149.178 141.11 148.592 141.11 147.45V132.947C141.11 132.016 140.898 131.344 140.101 131.344C139.342 131.344 139.092 132.064 139.092 132.947Z" fill="white"/>
<path d="M155.251 125.825H162.591C168.115 125.825 170.776 127.975 170.776 134.511V144.839C170.776 150.694 169.259 153.9 163.562 153.9H155.251V125.825ZM161.967 148.88H162.553C163.61 148.88 163.984 148.295 163.984 147.028V132.649C163.984 131.171 163.437 130.835 162.505 130.835H161.957V148.88H161.967Z" fill="white"/>
<path d="M179.605 147.997L179.269 153.9H172.438L175.436 125.825H186.109L189.059 153.9H182.142L181.805 147.997H179.615H179.605ZM181.498 142.44C181.373 140.29 180.864 132.957 180.739 131.44H180.441C180.403 132.659 179.98 139.704 179.846 142.44H181.488H181.498Z" fill="white"/>
<path d="M192.642 153.9V146.394C192.642 145.809 192.517 144.753 192.392 144.119L188.05 125.825H195.179C195.39 129.194 195.726 133.206 195.938 137.372H196.36C196.572 134.252 197.033 129.492 197.331 125.825H203.95L199.521 144.628C199.396 145.214 199.31 145.473 199.31 145.981V153.91H192.642V153.9Z" fill="white"/>
<path d="M210.829 144.714V146.989C210.829 148.679 211.126 149.101 211.76 149.101C212.347 149.101 212.558 148.515 212.558 147.46C212.558 145.348 212.308 144.724 209.733 142.315C206.313 139.109 204.709 137.468 204.709 133.379C204.709 128.868 206.4 125.412 211.837 125.412C217.832 125.412 218.879 129.079 218.879 132.87V134.598H212.971V132.448C212.971 131.018 212.721 130.634 212.087 130.634C211.578 130.634 211.29 131.056 211.29 132.323C211.29 133.801 211.54 134.387 213.653 136.287C217.496 139.704 219.302 141.47 219.302 145.943C219.302 151.088 217.746 154.332 211.789 154.332C206.477 154.332 204.449 151.424 204.449 146.404V144.714H210.819H210.829Z" fill="white"/>
<path d="M116.294 159.419H122.645C127.429 159.419 129.725 161.281 129.725 166.934V175.871C129.725 180.938 128.409 183.712 123.481 183.712H116.285V159.419H116.294ZM122.097 179.374H122.606C123.519 179.374 123.846 178.865 123.846 177.771V165.332C123.846 164.055 123.375 163.767 122.568 163.767H122.097V179.384V179.374Z" fill="white"/>
<path d="M142.186 173.317H137.728V178.932H143.098L142.445 183.712H131.925V159.419H142.407V164.199H137.728V168.537H142.186V173.317Z" fill="white"/>
<path d="M144.664 159.419H150.467V178.788H155.905L155.319 183.712H144.655V159.419H144.664Z" fill="white"/>
<path d="M163.033 159.419V183.712H157.259V159.419H163.033Z" fill="white"/>
<path d="M167.01 183.722L164.493 159.428H170.517L170.776 167.309C170.882 170.227 171.103 174.277 171.18 177.781H171.583C171.622 173.951 171.804 170.524 171.872 167.27L172.016 159.428H177.857L175.225 183.722H167.01Z" fill="white"/>
<path d="M189.539 173.317H185.082V178.932H190.452L189.799 183.712H179.279V159.419H189.76V164.199H185.082V168.537H189.539V173.317Z" fill="white"/>
<path d="M197.792 173.461V183.712H192.018V159.419H199.214C203.959 159.419 205.458 161.828 205.458 165.658V166.531C205.458 169.267 204.546 170.649 203.124 171.379C204.872 172.185 205.353 173.529 205.353 177.07C205.353 179.988 205.314 182.762 205.429 183.712H199.809C199.55 183.271 199.483 181.601 199.483 176.053C199.483 173.644 199.262 173.461 198.099 173.461H197.811H197.792ZM197.821 169.161H198.262C199.214 169.161 199.617 168.835 199.617 167.299V165.37C199.617 164.017 199.29 163.729 198.157 163.729H197.83V169.161H197.821Z" fill="white"/>
<path d="M210.127 183.722V177.224C210.127 176.715 210.022 175.803 209.906 175.256L206.14 159.419H212.308C212.491 162.337 212.779 165.802 212.961 169.42H213.327C213.509 166.723 213.913 162.596 214.172 159.419H219.907L216.074 175.688C215.968 176.197 215.892 176.418 215.892 176.859V183.722H210.118H210.127Z" fill="white"/>
<path d="M122.078 202.995V204.762C122.078 206.067 122.308 206.393 122.798 206.393C123.26 206.393 123.423 205.933 123.423 205.117C123.423 203.485 123.231 202.995 121.232 201.133C118.59 198.657 117.342 197.38 117.342 194.213C117.342 190.719 118.648 188.041 122.866 188.041C127.506 188.041 128.323 190.882 128.323 193.819V195.154H123.75V193.484C123.75 192.37 123.557 192.082 123.067 192.082C122.674 192.082 122.443 192.409 122.443 193.388C122.443 194.53 122.635 194.99 124.268 196.459C127.247 199.099 128.649 200.471 128.649 203.936C128.649 207.919 127.439 210.434 122.837 210.434C118.715 210.434 117.149 208.179 117.149 204.301V202.995H122.087H122.078Z" fill="white"/>
<path d="M142.099 202.055V203.782C142.099 207.142 141.379 210.444 136.018 210.444C133.107 210.444 130.234 209.436 130.234 204.243V194.088C130.234 189.452 132.78 188.051 136.152 188.051C141.475 188.051 142.099 191.612 142.099 194.059V196.085H136.834V193.503C136.834 192.62 136.767 192.101 136.152 192.101C135.566 192.101 135.432 192.524 135.432 193.503V204.896C135.432 205.971 135.566 206.364 136.085 206.364C136.671 206.364 136.834 205.971 136.834 204.8V202.055H142.099Z" fill="white"/>
<path d="M143.8 188.377H148.997V196.574H150.563V188.377H155.828V210.117H150.563V200.884H148.997V210.117H143.8V188.377Z" fill="white"/>
<path d="M167.097 200.817H163.11V205.846H167.914L167.327 210.127H157.912V188.387H167.289V192.668H163.11V196.555H167.097V200.836V200.817Z" fill="white"/>
<path d="M169.316 188.377H175.004C179.288 188.377 181.344 190.047 181.344 195.106V203.101C181.344 207.641 180.172 210.117 175.753 210.117H169.316V188.377ZM174.514 206.23H174.975C175.791 206.23 176.089 205.769 176.089 204.79V193.656C176.089 192.514 175.666 192.255 174.946 192.255H174.523V206.23H174.514Z" fill="white"/>
<path d="M188.502 188.377V205.155C188.502 205.942 188.694 206.365 189.184 206.365C189.77 206.365 189.933 205.971 189.933 205.155V188.377H195.255V204.502C195.255 209.1 193.094 210.377 189.117 210.377C185.139 210.377 183.237 208.678 183.237 204.406V188.377H188.502Z" fill="white"/>
<path d="M197.292 188.377H202.49V205.712H207.36L206.842 210.117H197.302V188.377H197.292Z" fill="white"/>
<path d="M217.707 200.817H213.72V205.846H218.524L217.938 210.127H208.532V188.387H217.909V192.668H213.73V196.555H217.717V200.836L217.707 200.817Z" fill="white"/>
</g>
<defs>
<clipPath id="clip0_955_39">
<rect width="336" height="336" fill="white"/>
</clipPath>
</defs>
</svg>
