<svg width="54" height="54" viewBox="0 0 54 54" fill="none" xmlns="http://www.w3.org/2000/svg">
<g clip-path="url(#clip0_842_14)">
<path d="M0 0H54V54H0V0Z" fill="#25D366"/>
<path d="M39.6306 14.4288C36.3096 11.0862 31.7898 9.21239 27.0756 9.22319C17.2962 9.22319 9.33662 17.1828 9.33122 26.9676C9.32582 30.0834 10.1466 33.1398 11.7018 35.8398L9.18542 45.036L18.5922 42.5682C21.195 43.983 24.1056 44.7282 27.0702 44.7282H27.0756C36.855 44.7282 44.8146 36.7686 44.82 26.9838C44.8362 22.275 42.9678 17.7552 39.6306 14.4288ZM27.081 41.7312H27.0756C24.435 41.7312 21.843 41.0238 19.5696 39.6738L19.0296 39.3552L13.446 40.8186L14.9364 35.3754L14.5854 34.8192C13.1058 32.4702 12.3282 29.7486 12.3282 26.9676C12.3336 18.8352 18.9486 12.2202 27.081 12.2202C35.2296 12.2256 41.8284 18.8352 41.823 26.9784C41.823 35.1162 35.208 41.7312 27.081 41.7312Z" fill="white"/>
<path d="M35.1702 30.6827C34.7274 30.4613 32.5458 29.3867 32.1408 29.2409C31.7358 29.0951 31.4388 29.0195 31.1418 29.4623C30.8448 29.9051 29.997 30.9041 29.7378 31.2011C29.4786 31.4981 29.2194 31.5359 28.7766 31.3091C28.3338 31.0823 26.9028 30.6179 25.2126 29.1059C23.895 27.9287 23.004 26.4761 22.7448 26.0333C22.4856 25.5905 22.7178 25.3475 22.9392 25.1261C23.139 24.9263 23.382 24.6077 23.6034 24.3485C23.8248 24.0893 23.9004 23.9057 24.0462 23.6087C24.192 23.3117 24.1218 23.0525 24.0084 22.8311C23.895 22.6097 23.0094 20.4281 22.6422 19.5371C22.2804 18.6731 21.9186 18.7919 21.6432 18.7757C21.384 18.7649 21.087 18.7595 20.7954 18.7595C20.5038 18.7595 20.0178 18.8675 19.6128 19.3157C19.2078 19.7639 18.0576 20.8331 18.0576 23.0201C18.0576 25.2071 19.6452 27.3131 19.8666 27.6047C20.088 27.9017 22.9932 32.3783 27.4428 34.3007C28.269 34.6571 29.1114 34.9703 29.97 35.2349C31.0338 35.5697 32.0004 35.5265 32.7618 35.4131C33.615 35.2835 35.3862 34.3385 35.7534 33.3071C36.1206 32.2757 36.1206 31.3847 36.0126 31.2011C35.9046 31.0175 35.613 30.9095 35.1702 30.6827Z" fill="white"/>
</g>
<defs>
<clipPath id="clip0_842_14">
<rect width="54" height="54" fill="white"/>
</clipPath>
</defs>
</svg>
