<?xml version="1.0" standalone="no"?>
<!DOCTYPE svg PUBLIC "-//W3C//DTD SVG 20010904//EN"
 "http://www.w3.org/TR/2001/REC-SVG-20010904/DTD/svg10.dtd">
<svg version="1.0" xmlns="http://www.w3.org/2000/svg"
 width="736.000000pt" height="140.000000pt" viewBox="0 0 736.000000 140.000000"
 preserveAspectRatio="xMidYMid meet">
<metadata>
Created by potrace 1.16, written by Peter Selinger 2001-2019
</metadata>
<g transform="translate(0.000000,140.000000) scale(0.100000,-0.100000)"
fill="#000000" stroke="none">
<path d="M954 1211 c-2 -2 -4 -73 -4 -158 l0 -153 182 2 182 3 2 137 c2 92 -1
141 -9 152 -10 12 -43 16 -180 18 -93 2 -171 1 -173 -1z"/>
<path d="M1455 1200 c-4 -6 -9 -975 -6 -1067 1 -10 35 -13 136 -13 l135 0 0
296 c0 258 2 295 14 284 8 -6 54 -82 102 -168 48 -86 92 -165 98 -174 9 -15
27 -18 117 -18 l107 0 30 52 c16 29 46 85 67 123 21 39 50 90 65 115 14 25 29
53 33 63 4 10 11 15 17 12 6 -4 10 -112 10 -296 l0 -289 135 0 135 0 0 545 0
545 -140 0 -140 0 -23 -37 c-13 -21 -45 -78 -72 -128 -26 -49 -60 -112 -75
-140 -15 -27 -51 -93 -79 -147 -28 -53 -58 -101 -65 -107 -11 -9 -20 1 -46 51
-18 35 -45 86 -60 113 -15 28 -67 124 -115 215 -49 91 -93 168 -99 172 -16 11
-274 10 -281 -2z"/>
<path d="M2855 1198 c-3 -7 -4 -251 -3 -543 l3 -530 419 -3 c329 -2 421 0 428
10 7 13 3 187 -6 195 -2 2 -125 4 -273 3 -149 0 -277 2 -286 6 -14 5 -17 23
-17 115 0 60 1 110 3 111 1 1 103 5 227 8 l225 5 0 100 0 100 -227 3 -228 2 0
104 c0 83 3 105 15 110 8 3 134 2 279 -1 182 -4 269 -3 278 5 10 7 12 35 8
109 l-5 98 -418 3 c-329 2 -419 0 -422 -10z"/>
<path d="M3836 1194 c-8 -20 -8 -1038 0 -1058 5 -14 27 -16 140 -16 l134 0 0
155 0 155 198 0 c293 0 372 19 432 101 43 60 52 120 48 319 -3 165 -5 179 -28
225 -37 71 -97 109 -195 124 -44 6 -210 11 -399 11 -286 0 -325 -2 -330 -16z
m639 -216 c35 -16 48 -66 44 -180 -4 -86 -7 -99 -28 -122 l-24 -26 -179 0
-178 0 0 170 0 170 170 0 c107 0 178 -4 195 -12z"/>
<path d="M4940 665 l0 -545 420 0 421 0 -3 108 -3 107 -280 5 -280 5 4 411 c2
226 0 420 -3 432 -7 21 -13 22 -142 22 l-134 0 0 -545z"/>
<path d="M6237 1203 c-3 -5 -72 -188 -155 -408 -83 -220 -171 -454 -196 -520
-25 -66 -46 -128 -46 -137 0 -16 14 -18 144 -18 128 0 145 2 151 18 4 9 18 49
32 87 14 39 30 76 35 83 11 13 192 15 322 3 l68 -6 32 -90 32 -90 152 -3 c84
-1 152 0 152 4 0 4 -21 61 -46 128 -25 66 -77 202 -114 301 -37 99 -91 241
-120 315 -28 74 -58 153 -65 175 -8 22 -25 67 -39 100 l-24 60 -155 3 c-86 1
-158 -1 -160 -5z m223 -512 c30 -88 52 -162 50 -165 -4 -4 -178 -9 -227 -7
-15 1 97 331 112 331 6 0 35 -72 65 -159z"/>
<path d="M0 665 l0 -188 169 7 c93 3 183 9 200 12 l31 7 0 162 0 162 -53 7
c-30 3 -120 9 -200 12 l-147 7 0 -188z"/>
<path d="M490 664 l0 -167 182 8 c101 4 186 9 190 12 5 2 8 71 8 152 l0 148
-67 6 c-38 4 -123 7 -190 7 l-123 0 0 -166z"/>
<path d="M638 421 c-75 -4 -139 -9 -143 -12 -9 -10 -8 -321 2 -329 4 -4 51 -3
103 2 52 5 133 12 180 16 l85 7 3 163 2 162 -47 -2 c-27 -1 -110 -4 -185 -7z"/>
<path d="M960 275 l0 -155 123 0 c67 0 146 3 175 6 l52 7 0 148 0 149 -175 0
-175 0 0 -155z"/>
</g>
</svg>
